<svg width="20" height="20" viewBox="0 0 20 20" fill="none" xmlns="http://www.w3.org/2000/svg">
<circle cx="10" cy="10" r="10" fill="#A1B3A0"/>
<path d="M16.643 9.84877C16.6029 9.73006 16.5174 9.6321 16.4051 9.57645C16.2929 9.52079 16.1631 9.51198 16.0444 9.55196L10.4722 11.4303V8.2731L13.2447 7.34795L13.256 7.34376C13.2652 7.34041 13.274 7.33706 13.2824 7.3333L13.3012 7.32451C13.3088 7.32116 13.3162 7.31739 13.3234 7.3132L13.3443 7.30106L13.3619 7.28935L13.3849 7.27261L13.3988 7.26172C13.4067 7.25502 13.4142 7.2479 13.4218 7.24079L13.4293 7.2341L13.4331 7.22948C13.4402 7.22237 13.4469 7.21484 13.4536 7.2073L13.4653 7.19349C13.4708 7.18679 13.4754 7.17968 13.4804 7.17298C13.4854 7.16629 13.4892 7.16083 13.4929 7.15455C13.4967 7.14827 13.5001 7.14283 13.5034 7.13697C13.5068 7.13111 13.5122 7.12191 13.5164 7.11395L13.5239 7.09805C13.5277 7.08968 13.5315 7.08129 13.5348 7.0725C13.5382 7.06371 13.539 7.06037 13.5411 7.05451C13.5432 7.04865 13.5469 7.03818 13.5495 7.03023C13.552 7.02228 13.5532 7.01473 13.5549 7.00719C13.5566 6.99966 13.5582 6.99339 13.5595 6.98669C13.5608 6.97999 13.5624 6.96786 13.5637 6.95865C13.5649 6.94944 13.5637 6.94776 13.5637 6.94232C13.5637 6.93688 13.5637 6.92224 13.5637 6.91219C13.5637 6.90214 13.5637 6.90172 13.5637 6.89669C13.5637 6.89167 13.5637 6.87786 13.5637 6.86865C13.5637 6.85944 13.5637 6.85607 13.5637 6.85021C13.5637 6.84435 13.5637 6.83432 13.5603 6.82679C13.557 6.81925 13.5578 6.81087 13.5561 6.80291C13.5545 6.79496 13.5532 6.79037 13.552 6.78409C13.5507 6.77781 13.5469 6.76523 13.544 6.75602C13.5438 6.75408 13.5438 6.75213 13.544 6.75018L13.5398 6.74012C13.5365 6.73049 13.5331 6.7213 13.5289 6.71167L13.5214 6.69534L13.5088 6.67065L13.4975 6.6518L13.4846 6.63212C13.4799 6.62501 13.4749 6.61817 13.4695 6.61161C13.4657 6.60603 13.4615 6.60072 13.4569 6.59571C13.4511 6.5886 13.4444 6.58148 13.4381 6.57478L13.4297 6.56556L10.3345 3.47032C10.3236 3.45986 10.3119 3.44939 10.3002 3.43976C10.2885 3.43014 10.2893 3.4314 10.2839 3.42721C10.2784 3.42303 10.27 3.41673 10.2629 3.41213L10.2428 3.39999L10.2232 3.38827C10.2165 3.38451 10.2098 3.38157 10.2026 3.37822L10.1813 3.36859C10.1746 3.36566 10.1679 3.36358 10.1612 3.36107L10.1378 3.35269L10.1177 3.34766L10.093 3.34181C10.0854 3.34181 10.0779 3.33929 10.0704 3.33803C10.0628 3.33678 10.0549 3.33553 10.0469 3.33511C10.0339 3.33358 10.0207 3.33289 10.0076 3.33303H9.99375C9.9806 3.33289 9.96746 3.33358 9.9544 3.33511C9.94645 3.33511 9.93891 3.3351 9.93096 3.33803C9.92301 3.34096 9.91589 3.34014 9.90836 3.34181L9.88366 3.34766L9.86356 3.35269L9.84012 3.36107C9.83342 3.36358 9.82672 3.36566 9.82003 3.36859C9.81333 3.37152 9.8058 3.37487 9.79868 3.37822C9.79156 3.38157 9.78486 3.38451 9.77816 3.38827L9.75849 3.39999L9.7384 3.41213C9.73128 3.41673 9.72458 3.42219 9.71747 3.42721C9.71035 3.43224 9.70658 3.43516 9.70114 3.43976C9.6957 3.44437 9.6777 3.45986 9.66681 3.47032C9.65593 3.48121 9.64588 3.49292 9.63626 3.50464C9.62663 3.51636 9.62788 3.51596 9.6237 3.5214C9.61951 3.52684 9.61323 3.53479 9.60863 3.5419C9.60402 3.54902 9.60026 3.55531 9.59607 3.56243C9.59188 3.56954 9.58811 3.57498 9.58477 3.58168C9.58142 3.58838 9.57807 3.59549 9.57472 3.60261C9.57137 3.60973 9.56802 3.61643 9.56509 3.62354C9.56216 3.63066 9.55965 3.63736 9.55714 3.64447L9.54918 3.66708C9.54918 3.6742 9.54584 3.6813 9.54374 3.68842C9.54165 3.69554 9.53956 3.70391 9.5383 3.71186C9.53704 3.71982 9.53537 3.72819 9.53453 3.73615C9.5337 3.7441 9.53202 3.75037 9.53118 3.75749C9.53118 3.77256 9.52909 3.78763 9.52909 3.8027V7.59201L3.65636 9.55155C3.59749 9.57118 3.54307 9.60221 3.4962 9.64288C3.44934 9.68355 3.41095 9.73306 3.38323 9.78858C3.35551 9.84409 3.339 9.90453 3.33466 9.96643C3.33031 10.0283 3.3382 10.0905 3.35789 10.1493C3.38918 10.2434 3.44928 10.3252 3.52967 10.3832C3.61007 10.4412 3.70667 10.4725 3.80581 10.4725C3.85566 10.4727 3.90524 10.465 3.95274 10.4499L9.52616 8.58998V11.7476L6.77587 12.6744L6.76792 12.6778L6.73694 12.6899L6.72312 12.6966C6.71392 12.7008 6.70471 12.7054 6.69592 12.7104L6.68001 12.72L6.6574 12.7343L6.6394 12.7477L6.6214 12.7623L6.60256 12.7791L6.59252 12.7883L6.58708 12.7946C6.58121 12.8004 6.57619 12.8063 6.57075 12.8126C6.56531 12.8188 6.56028 12.8247 6.55526 12.831L6.54396 12.8465C6.5381 12.854 6.53266 12.862 6.52763 12.8695L6.52052 12.8821C6.51508 12.8913 6.50963 12.9005 6.50503 12.9101C6.5031 12.9136 6.50142 12.9172 6.5 12.921C6.49494 12.9309 6.49047 12.9411 6.48661 12.9515L6.482 12.9641C6.47865 12.9737 6.47531 12.9838 6.47238 12.9938C6.46945 13.0039 6.46945 13.0056 6.46819 13.011C6.46693 13.0164 6.464 13.0286 6.46233 13.0374C6.46077 13.0447 6.45966 13.0521 6.45898 13.0595C6.45898 13.0671 6.45898 13.0742 6.45605 13.0813C6.45312 13.0884 6.45605 13.0985 6.45605 13.1069C6.45605 13.1152 6.45605 13.1203 6.45605 13.127V13.1521C6.45605 13.1592 6.45605 13.1663 6.45605 13.1734C6.45605 13.1805 6.45605 13.1881 6.4594 13.1952C6.46275 13.2023 6.46191 13.2119 6.46358 13.2203C6.46526 13.2287 6.46652 13.2324 6.46819 13.2383C6.46987 13.2442 6.47321 13.2575 6.47614 13.2672C6.47596 13.2693 6.47596 13.2714 6.47614 13.2735L6.48117 13.2864C6.48368 13.2927 6.48577 13.2994 6.4887 13.3057C6.49163 13.312 6.49624 13.3229 6.50042 13.3312C6.50461 13.3396 6.50419 13.3396 6.50628 13.3434C6.51298 13.3559 6.5201 13.3681 6.52763 13.3798L6.53349 13.3882C6.54 13.3979 6.54698 13.4072 6.55443 13.4162L6.5607 13.4246C6.56907 13.4346 6.57787 13.4443 6.58708 13.4535L6.58959 13.4564L6.59336 13.4602L6.59587 13.4623L9.66137 16.5282C9.67226 16.5391 9.68398 16.5491 9.6957 16.5592L9.71244 16.5713C9.719 16.5767 9.72585 16.5817 9.73296 16.5864L9.75305 16.5989C9.75975 16.6027 9.76603 16.6069 9.77272 16.6103C9.77942 16.6136 9.78654 16.6174 9.79366 16.6207L9.81459 16.6303L9.83552 16.6379L9.85812 16.6458L9.87905 16.6513L9.90291 16.6571L9.92761 16.6609L9.94854 16.6638C9.96397 16.6655 9.97949 16.6663 9.99501 16.6663C10.0107 16.6663 10.0263 16.6655 10.0419 16.6638L10.0628 16.6609L10.0875 16.6571L10.1114 16.6513L10.1323 16.6458L10.1549 16.6379L10.1758 16.6303L10.1968 16.6207C10.2039 16.6174 10.211 16.614 10.2177 16.6103C10.2244 16.6065 10.2307 16.6027 10.2374 16.5989L10.2575 16.5864C10.2646 16.5817 10.2714 16.5767 10.278 16.5713L10.2947 16.5592C10.3065 16.5491 10.3182 16.5391 10.3291 16.5282C10.3395 16.5173 10.35 16.506 10.3596 16.4939C10.3642 16.4884 10.368 16.483 10.3722 16.4771C10.3764 16.4713 10.3826 16.4637 10.3872 16.4566C10.3919 16.4495 10.3956 16.4432 10.3998 16.4365C10.404 16.4298 10.4078 16.4235 10.4111 16.4173C10.4145 16.411 10.4178 16.403 10.4212 16.3959C10.4245 16.3888 10.4279 16.3821 10.4308 16.3754C10.4337 16.3687 10.4362 16.3612 10.4387 16.3545C10.4412 16.3478 10.4442 16.3394 10.4467 16.3314C10.4492 16.3235 10.45 16.3176 10.4521 16.3105C10.4542 16.3034 10.4563 16.2946 10.4576 16.2867C10.4592 16.2786 10.4605 16.2705 10.4613 16.2624C10.4613 16.2553 10.4639 16.2481 10.4647 16.241C10.4647 16.226 10.4647 16.2113 10.4647 16.1962V12.4266L16.3387 10.4465C16.3981 10.4275 16.4531 10.3969 16.5006 10.3565C16.5481 10.3161 16.5871 10.2667 16.6154 10.2111C16.6437 10.1555 16.6607 10.0949 16.6655 10.0327C16.6702 9.9705 16.6626 9.90799 16.643 9.84877ZM10.4722 4.9451L12.2208 6.69323L10.4722 7.2768V4.9451ZM9.52742 15.0547L7.80105 13.3283L9.52742 12.746V15.0547Z" fill="#161616"/>
</svg>
