<svg width="16" height="16" viewBox="0 0 16 16" fill="none" xmlns="http://www.w3.org/2000/svg">
<g clip-path="url(#clip0_320_3157)">
<path d="M12.5801 12C12.2072 11.9992 11.8393 11.9152 11.503 11.7542C11.1667 11.5932 10.8706 11.3591 10.6362 11.0692C10.4018 10.7792 10.235 10.4406 10.148 10.078C10.0611 9.71548 10.0561 9.33807 10.1334 8.97333C10.2592 8.4009 10.5785 7.88936 11.0376 7.52501C11.4967 7.16067 12.0674 6.96582 12.6534 6.97333H14.2467C14.3351 6.97333 14.4199 6.93821 14.4824 6.8757C14.545 6.81319 14.5801 6.72841 14.5801 6.64V5.14C14.5783 4.69851 14.4022 4.27561 14.09 3.96343C13.7778 3.65125 13.3549 3.47509 12.9134 3.47333H3.58008C3.44747 3.47333 3.32029 3.42065 3.22652 3.32689C3.13276 3.23312 3.08008 3.10594 3.08008 2.97333C3.08008 2.84073 3.13276 2.71355 3.22652 2.61978C3.32029 2.52601 3.44747 2.47333 3.58008 2.47333H12.4134C12.4576 2.47333 12.5 2.45577 12.5313 2.42452C12.5625 2.39326 12.5801 2.35087 12.5801 2.30667V2.16667C12.5801 1.24667 11.5334 0.5 10.2467 0.5H2.91341C2.60699 0.5 2.30358 0.560353 2.02048 0.677614C1.73739 0.794875 1.48017 0.966747 1.2635 1.18342C0.825911 1.621 0.580078 2.21449 0.580078 2.83333V13.1667C0.580078 13.7855 0.825911 14.379 1.2635 14.8166C1.48017 15.0333 1.73739 15.2051 2.02048 15.3224C2.30358 15.4396 2.60699 15.5 2.91341 15.5H12.9134C13.1323 15.5 13.349 15.4569 13.5512 15.3731C13.7534 15.2894 13.9372 15.1666 14.0919 15.0118C14.2467 14.8571 14.3695 14.6733 14.4532 14.4711C14.537 14.2689 14.5801 14.0522 14.5801 13.8333V12.1667C14.5801 12.1225 14.5625 12.0801 14.5313 12.0488C14.5 12.0176 14.4576 12 14.4134 12H12.5801Z" fill="white"/>
<path d="M14.5801 8H12.5801C12.1823 8 11.8007 8.15804 11.5194 8.43934C11.2381 8.72064 11.0801 9.10218 11.0801 9.5C11.0801 9.89782 11.2381 10.2794 11.5194 10.5607C11.8007 10.842 12.1823 11 12.5801 11H14.5801C14.8155 10.9602 15.0289 10.8376 15.1817 10.6542C15.3346 10.4707 15.4167 10.2387 15.4134 10V9C15.4167 8.76128 15.3346 8.52925 15.1817 8.34585C15.0289 8.16244 14.8155 8.03977 14.5801 8Z" fill="white"/>
</g>
<defs>
<clipPath id="clip0_320_3157">
<rect width="16" height="16" fill="white"/>
</clipPath>
</defs>
</svg>
