<svg width="32" height="32" viewBox="0 0 32 32" fill="none" xmlns="http://www.w3.org/2000/svg">
<circle cx="16" cy="16" r="15.5" stroke="#F25041"/>
<path d="M11.3402 22C11.3402 19.6 12.2842 18.016 15.6922 16.208C17.2602 15.376 17.8842 14.864 17.8842 13.712C17.8842 12.544 17.1162 11.728 15.6122 11.728C14.0122 11.728 13.0842 12.592 12.8442 14.128L11.4042 14.032C11.6602 11.808 13.1482 10.384 15.6122 10.384C17.9482 10.384 19.3242 11.728 19.3242 13.68C19.3242 15.408 18.5562 16.272 16.2042 17.52C14.1562 18.608 13.1002 19.792 13.0362 20.656H19.3242V22H11.3402Z" fill="#F25041"/>
</svg>
