<svg width="32" height="32" viewBox="0 0 32 32" fill="none" xmlns="http://www.w3.org/2000/svg">
<circle cx="16" cy="16" r="15.5" stroke="#F25041"/>
<path d="M15.2431 22.256C12.7151 22.256 11.3231 20.944 11.2271 19.072L12.6511 18.976C12.7791 20.368 13.8191 20.912 15.2431 20.912C16.7151 20.912 17.9951 20.368 17.9951 18.832C17.9951 17.328 16.8911 16.64 15.2591 16.64H14.3631V15.296H15.2591C16.6031 15.296 17.5951 14.816 17.5951 13.52C17.5951 12.352 16.8271 11.728 15.3231 11.728C13.8191 11.728 13.0991 12.336 12.9551 13.344L11.5151 13.248C11.7231 11.552 13.0511 10.384 15.3231 10.384C17.6271 10.384 19.0351 11.568 19.0351 13.456C19.0351 14.672 18.3631 15.488 17.0671 15.888C18.5391 16.288 19.4351 17.376 19.4351 18.832C19.4351 21.008 17.7071 22.256 15.2431 22.256Z" fill="#F25041"/>
</svg>
