<svg xmlns="http://www.w3.org/2000/svg" aria-label="BNB Chain logo" width="32" height="33" viewBox="0 0 32 33"><circle cx="16" cy="16.5" r="16" fill="#F3BA2F"/><g fill="#fff"><path d="m22.848 20.776-.002.001-6.843 6.844-6.842-6.841-.003-.004 2.52-2.513 4.325 4.325 4.327-4.327zM22.846 12.195 20.33 14.71l-4.327-4.327-4.326 4.325-2.516-2.517 6.842-6.841zM22.105 16.487l2.517-2.516 2.516 2.516-2.516 2.517zM4.868 16.487l2.516-2.517 2.517 2.517-2.517 2.516z"/><path d="m18.556 16.485-2.553-2.554-2.554 2.554 2.555 2.555 2.555-2.555h-.003"/></g></svg>
