<svg width="32" height="33" viewBox="0 0 32 33" fill="none" xmlns="http://www.w3.org/2000/svg">
  <circle cx="16" cy="16.5" r="16" fill="#0538AF"/>
  <g clip-path="url(#clip0_191_3077)">
    <!-- Scaled up the C path slightly -->
    <path d="M21 13.5C20.4 11.5 18.5 10.5 16 10.5C13.2 10.5 11 12.7 11 15.5C11 18.3 13.2 20.5 16 20.5C18.5 20.5 20.4 19.5 21 17.5H19.8C19.3 18.8 18 19.5 16 19.5C13.8 19.5 12.2 17.8 12.2 15.5C12.2 13.2 13.8 11.5 16 11.5C18 11.5 19.3 12.2 19.8 13.5H21Z" fill="white"/>
  </g>
  <defs>
    <clipPath id="clip0_191_3077">
      <rect width="9.36585" height="16.0557" fill="white" transform="translate(10.9268 7.36914)"/>
    </clipPath>
  </defs>
</svg>

