<svg width="32" height="33" viewBox="0 0 32 33" fill="none" xmlns="http://www.w3.org/2000/svg">
  <circle cx="16" cy="16.5" r="16" fill="#0538AF"/>
  <g clip-path="url(#clip0_191_3077)" transform="matrix(1, 0, 0, 1, 0.089918, 2.089918)">
    <!-- Scaled up the C path slightly -->
    <path d="M 21.899 12.305 C 21.159 9.706 18.814 8.407 15.731 8.407 C 12.276 8.407 9.561 11.266 9.561 14.904 C 9.561 18.54 12.276 21.399 15.731 21.399 C 18.814 21.399 21.159 20.1 21.899 17.501 L 20.418 17.501 C 19.801 19.19 18.197 20.1 15.731 20.1 C 13.016 20.1 11.042 17.891 11.042 14.904 C 11.042 11.915 13.016 9.706 15.731 9.706 C 18.197 9.706 19.801 10.616 20.418 12.305 L 21.899 12.305 Z" fill="white"/>
  </g>
  <defs>
    <clipPath id="clip0_191_3077">
      <rect width="13.36585" height="16.0557" fill="white" transform="translate(8.9268 7.36914)"/>
    </clipPath>
  </defs>
</svg>

