<svg width="28" height="28" viewBox="0 0 28 28" fill="none" xmlns="http://www.w3.org/2000/svg">
<circle cx="14" cy="14" r="14" fill="#161616"/>
<path d="M20.975 13.8416C20.9329 13.7169 20.8431 13.614 20.7252 13.5556C20.6074 13.4972 20.4711 13.4879 20.3464 13.5299L14.4957 15.5021V12.1871L17.4068 11.2157L17.4186 11.2113C17.4283 11.2078 17.4375 11.2043 17.4463 11.2003L17.4661 11.1911C17.4741 11.1876 17.4819 11.1836 17.4894 11.1792L17.5114 11.1665L17.5298 11.1542L17.554 11.1366L17.5685 11.1251C17.5769 11.1181 17.5848 11.1106 17.5927 11.1032L17.6006 11.0961L17.6046 11.0913C17.612 11.0838 17.6191 11.0759 17.6261 11.068L17.6384 11.0535C17.6441 11.0465 17.649 11.039 17.6542 11.032C17.6595 11.0249 17.6635 11.0192 17.6674 11.0126C17.6714 11.006 17.6749 11.0003 17.6784 10.9942C17.6819 10.988 17.6876 10.9783 17.692 10.97L17.6999 10.9533C17.7039 10.9445 17.7079 10.9357 17.7114 10.9265C17.7149 10.9172 17.7158 10.9137 17.718 10.9076C17.7202 10.9014 17.7241 10.8904 17.7268 10.8821C17.7294 10.8737 17.7307 10.8658 17.7325 10.8579C17.7342 10.85 17.736 10.8434 17.7373 10.8364C17.7386 10.8293 17.7404 10.8166 17.7417 10.8069C17.743 10.7973 17.7417 10.7955 17.7417 10.7898C17.7417 10.7841 17.7417 10.7687 17.7417 10.7581C17.7417 10.7476 17.7417 10.7471 17.7417 10.7419C17.7417 10.7366 17.7417 10.7221 17.7417 10.7124C17.7417 10.7028 17.7417 10.6992 17.7417 10.6931C17.7417 10.6869 17.7417 10.6764 17.7382 10.6685C17.7347 10.6606 17.7355 10.6518 17.7338 10.6434C17.732 10.6351 17.7307 10.6302 17.7294 10.6236C17.7281 10.617 17.7241 10.6038 17.721 10.5942C17.7208 10.5921 17.7208 10.5901 17.721 10.588L17.7166 10.5775C17.7131 10.5674 17.7096 10.5577 17.7052 10.5476L17.6973 10.5304L17.6841 10.5045L17.6723 10.4847L17.6586 10.4641C17.6537 10.4566 17.6485 10.4494 17.6428 10.4425C17.6388 10.4367 17.6344 10.4311 17.6296 10.4258C17.6235 10.4184 17.6164 10.4109 17.6098 10.4039L17.601 10.3942L14.3511 7.14418C14.3396 7.13319 14.3273 7.1222 14.315 7.11209C14.3027 7.10198 14.3036 7.10331 14.2979 7.09892C14.2922 7.09452 14.2834 7.08791 14.2759 7.08308L14.2548 7.07033L14.2341 7.05803C14.2271 7.05407 14.2201 7.05099 14.2126 7.04747L14.1902 7.03736C14.1832 7.03429 14.1761 7.0321 14.1691 7.02946L14.1445 7.02066L14.1234 7.01539L14.0974 7.00925C14.0895 7.00925 14.0816 7.00659 14.0737 7.00528C14.0658 7.00396 14.0574 7.00265 14.0491 7.00221C14.0354 7.0006 14.0216 6.99987 14.0078 7.00002H13.9933C13.9795 6.99987 13.9657 7.0006 13.952 7.00221C13.9436 7.00221 13.9357 7.0022 13.9273 7.00528C13.919 7.00835 13.9115 7.00749 13.9036 7.00925L13.8777 7.01539L13.8566 7.02066L13.832 7.02946C13.8249 7.0321 13.8179 7.03429 13.8109 7.03736C13.8038 7.04044 13.7959 7.04395 13.7884 7.04747C13.781 7.05099 13.7739 7.05407 13.7669 7.05803L13.7462 7.07033L13.7251 7.08308C13.7177 7.08791 13.7106 7.09364 13.7032 7.09892C13.6957 7.10419 13.6917 7.10726 13.686 7.11209C13.6803 7.11693 13.6614 7.13319 13.65 7.14418C13.6386 7.15561 13.628 7.16791 13.6179 7.18021C13.6078 7.19252 13.6091 7.1921 13.6047 7.19781C13.6003 7.20353 13.5937 7.21187 13.5889 7.21934C13.5841 7.22681 13.5801 7.23342 13.5757 7.24089C13.5713 7.24836 13.5673 7.25407 13.5638 7.26111C13.5603 7.26814 13.5568 7.27561 13.5533 7.28308C13.5498 7.29056 13.5463 7.29759 13.5432 7.30506C13.5401 7.31253 13.5375 7.31957 13.5348 7.32704L13.5265 7.35078C13.5265 7.35825 13.523 7.36571 13.5208 7.37318C13.5186 7.38065 13.5164 7.38945 13.515 7.3978C13.5137 7.40615 13.512 7.41494 13.5111 7.4233C13.5102 7.43165 13.5085 7.43823 13.5076 7.4457C13.5076 7.46153 13.5054 7.47735 13.5054 7.49318V11.472L7.33901 13.5295C7.2772 13.5501 7.22005 13.5827 7.17084 13.6254C7.12163 13.6681 7.08132 13.7201 7.05222 13.7783C7.02311 13.8366 7.00578 13.9001 7.00122 13.9651C6.99665 14.0301 7.00494 14.0953 7.02562 14.1571C7.05847 14.2559 7.12157 14.3418 7.20599 14.4027C7.2904 14.4637 7.39184 14.4964 7.49593 14.4965C7.54828 14.4966 7.60033 14.4886 7.65021 14.4727L13.5023 12.5198V15.8353L10.6145 16.8085L10.6061 16.812L10.5736 16.8247L10.5591 16.8318C10.5494 16.8362 10.5398 16.841 10.5305 16.8463L10.5138 16.8564L10.4901 16.8713L10.4712 16.8854L10.4523 16.9008L10.4325 16.9184L10.422 16.928L10.4163 16.9346C10.4101 16.9408 10.4048 16.9469 10.3991 16.9535C10.3934 16.9601 10.3881 16.9663 10.3829 16.9729L10.371 16.9891C10.3648 16.9971 10.3591 17.0054 10.3538 17.0133L10.3464 17.0265C10.3407 17.0362 10.3349 17.0458 10.3301 17.056C10.3281 17.0596 10.3263 17.0634 10.3248 17.0674C10.3195 17.0778 10.3148 17.0885 10.3108 17.0995L10.3059 17.1127C10.3024 17.1228 10.2989 17.1333 10.2958 17.1439C10.2927 17.1544 10.2927 17.1562 10.2914 17.1619C10.2901 17.1676 10.287 17.1803 10.2853 17.1896C10.2836 17.1973 10.2825 17.205 10.2818 17.2129C10.2818 17.2208 10.2818 17.2282 10.2787 17.2357C10.2756 17.2432 10.2787 17.2538 10.2787 17.2625C10.2787 17.2713 10.2787 17.2766 10.2787 17.2836V17.31C10.2787 17.3175 10.2787 17.325 10.2787 17.3324C10.2787 17.3399 10.2787 17.3478 10.2822 17.3553C10.2857 17.3628 10.2848 17.3729 10.2866 17.3817C10.2884 17.3905 10.2897 17.3944 10.2914 17.4005C10.2932 17.4067 10.2967 17.4208 10.2998 17.4309C10.2996 17.4331 10.2996 17.4353 10.2998 17.4375L10.3051 17.4511C10.3077 17.4577 10.3099 17.4647 10.313 17.4713C10.316 17.4779 10.3209 17.4893 10.3253 17.4981C10.3297 17.5069 10.3292 17.5069 10.3314 17.5109C10.3385 17.5241 10.3459 17.5368 10.3538 17.5491L10.36 17.5579C10.3668 17.5681 10.3742 17.5779 10.382 17.5874L10.3886 17.5962C10.3974 17.6067 10.4066 17.6168 10.4163 17.6265L10.4189 17.6295L10.4229 17.6335L10.4255 17.6357L13.6443 20.855C13.6557 20.8664 13.668 20.8769 13.6803 20.8875L13.6979 20.9002C13.7048 20.9059 13.712 20.9112 13.7194 20.916L13.7405 20.9292C13.7476 20.9332 13.7542 20.9376 13.7612 20.9411C13.7682 20.9446 13.7757 20.9486 13.7832 20.9521L13.8051 20.9622L13.8271 20.9701L13.8509 20.9785L13.8728 20.9842L13.8979 20.9903L13.9238 20.9943L13.9458 20.9974C13.962 20.9991 13.9783 21 13.9946 21C14.011 21 14.0275 20.9991 14.0438 20.9974L14.0658 20.9943L14.0917 20.9903L14.1168 20.9842L14.1388 20.9785L14.1625 20.9701L14.1845 20.9622L14.2064 20.9521C14.2139 20.9486 14.2214 20.9451 14.2284 20.9411C14.2355 20.9372 14.2421 20.9332 14.2491 20.9292L14.2702 20.916C14.2776 20.9112 14.2848 20.9059 14.2917 20.9002L14.3093 20.8875C14.3216 20.8769 14.3339 20.8664 14.3453 20.855C14.3563 20.8435 14.3673 20.8316 14.3774 20.8189C14.3823 20.8132 14.3862 20.8075 14.3906 20.8013C14.395 20.7952 14.4016 20.7873 14.4064 20.7798C14.4113 20.7723 14.4152 20.7657 14.4196 20.7587C14.424 20.7516 14.428 20.7451 14.4315 20.7385C14.435 20.7319 14.4385 20.7235 14.442 20.7161C14.4456 20.7086 14.4491 20.7015 14.4522 20.6945C14.4552 20.6875 14.4579 20.6796 14.4605 20.6725C14.4631 20.6655 14.4662 20.6567 14.4689 20.6484C14.4715 20.64 14.4724 20.6339 14.4746 20.6264C14.4768 20.6189 14.479 20.6097 14.4803 20.6013C14.482 20.5929 14.4834 20.5844 14.4842 20.5758C14.4842 20.5684 14.4869 20.5609 14.4878 20.5534C14.4878 20.5376 14.4878 20.5222 14.4878 20.5064V16.5483L20.6554 14.4692C20.7178 14.4492 20.7756 14.4171 20.8255 14.3747C20.8753 14.3322 20.9163 14.2804 20.946 14.222C20.9757 14.1636 20.9936 14.1 20.9986 14.0347C21.0035 13.9694 20.9955 13.9037 20.975 13.8416ZM14.4957 8.6927L16.3316 10.5282L14.4957 11.141V8.6927ZM13.5036 19.3077L11.6909 17.495L13.5036 16.8837V19.3077Z" fill="white"/>
</svg>
