<svg width="28" height="28" viewBox="0 0 28 28" fill="none" xmlns="http://www.w3.org/2000/svg">
<circle cx="14" cy="14" r="14" fill="#161616"/>
<path d="M19.5535 8.81854C18.5178 8.33396 17.4104 7.98178 16.2526 7.78125C16.1104 8.03832 15.9443 8.38409 15.8298 8.65915C14.599 8.47406 13.3796 8.47406 12.1714 8.65915C12.0569 8.38409 11.887 8.03832 11.7436 7.78125C10.5845 7.98178 9.47584 8.33525 8.44013 8.8211C6.3511 11.9779 5.78479 15.0563 6.06794 18.091C7.4535 19.1257 8.79627 19.7542 10.1164 20.1655C10.4423 19.7169 10.733 19.2401 10.9835 18.7375C10.5065 18.5563 10.0497 18.3326 9.61805 18.073C9.73256 17.9882 9.84457 17.8995 9.95279 17.8082C12.5855 19.0396 15.4459 19.0396 18.0472 17.8082C18.1566 17.8995 18.2686 17.9882 18.3819 18.073C17.949 18.3339 17.4909 18.5576 17.014 18.7388C17.2644 19.2401 17.5538 19.7182 17.881 20.1668C19.2024 19.7555 20.5464 19.127 21.932 18.091C22.2642 14.573 21.3644 11.5229 19.5535 8.81854ZM11.3421 16.2247C10.5518 16.2247 9.9037 15.4869 9.9037 14.5884C9.9037 13.69 10.538 12.9509 11.3421 12.9509C12.1463 12.9509 12.7944 13.6887 12.7805 14.5884C12.7818 15.4869 12.1463 16.2247 11.3421 16.2247ZM16.6578 16.2247C15.8675 16.2247 15.2194 15.4869 15.2194 14.5884C15.2194 13.69 15.8537 12.9509 16.6578 12.9509C17.462 12.9509 18.1101 13.6887 18.0962 14.5884C18.0962 15.4869 17.462 16.2247 16.6578 16.2247Z" fill="white"/>
</svg>
