<svg width="80" height="80" viewBox="0 0 80 80" fill="none" xmlns="http://www.w3.org/2000/svg">
<circle cx="40" cy="40" r="40" fill="#161616"/>
<path transform="translate(20,25)" d="M3.75 30C2.71875 30 1.83594 29.6326 1.10156 28.8979C0.367188 28.1632 0 27.2799 0 26.2479V3.73541C0 2.70347 0.367188 1.82292 1.10156 1.09375C1.83594 0.364583 2.71875 0 3.75 0H36.25C37.2812 0 38.1641 0.36736 38.8984 1.10208C39.6328 1.8368 40 2.72014 40 3.75208V26.2646C40 27.2965 39.6328 28.1771 38.8984 28.9062C38.1641 29.6354 37.2812 30 36.25 30H3.75ZM20 17.5L3.75 8.17708V26.25H36.25V8.17708L20 17.5ZM20 13.0729L36.25 3.75H3.75L20 13.0729ZM3.75 8.17708V3.75V26.25V8.17708Z" fill="white"/>
</svg>
