<svg xmlns="http://www.w3.org/2000/svg" viewBox="0 0 250 250"><defs><style>.cls-1{fill:none;}.cls-2{fill:#FFFFFF;}</style></defs><title>ethernal-icon-dark-transparent</title><g id="Layer_2" data-name="Layer 2"><g id="Layer_1-2" data-name="Layer 1"><rect class="cls-1" width="250" height="250"/><polygon class="cls-2" points="187.15 122.01 170.99 131.31 158.1 138.75 124.34 158.21 98.95 143.31 111.44 135.83 124.5 143.5 145.56 131.36 158.45 123.93 168.84 117.94 124.83 49.47 87.6 107.55 62.85 121.66 124.81 25 187.15 122.01"/><polygon class="cls-2" points="187.18 136.14 125.12 225 62.82 135.79 78.77 126.44 91.39 119.03 125.12 99.25 151.14 114.58 138.17 121.97 125.32 114.41 104.41 126.67 91.79 134.07 81.35 140.2 125.32 203.16 162.2 150.35 187.18 136.14"/></g></g></svg>