<svg width="28" height="28" viewBox="0 0 28 28" fill="none" xmlns="http://www.w3.org/2000/svg">
<circle cx="14" cy="14" r="14" fill="#161616"/>
<path d="M10.8359 12.1924H8.42676V19.875H10.8359V12.1924Z" fill="white"/>
<path d="M17.3584 12.0259C17.2696 12.0148 17.1752 12.0093 17.0809 12.0037C15.732 11.9482 14.9715 12.7476 14.705 13.0917C14.6329 13.1861 14.5996 13.2416 14.5996 13.2416V12.2147H12.2959V19.8972H14.5996H14.705C14.705 19.1146 14.705 18.3374 14.705 17.5547C14.705 17.1328 14.705 16.711 14.705 16.2891C14.705 15.7673 14.6662 15.2122 14.9271 14.7348C15.1491 14.3351 15.5488 14.1353 15.9984 14.1353C17.3307 14.1353 17.3584 15.3399 17.3584 15.4509C17.3584 15.4564 17.3584 15.462 17.3584 15.462V19.9305H19.7675V14.918C19.7675 13.2027 18.896 12.1925 17.3584 12.0259Z" fill="white"/>
<path d="M9.63225 11.1961C10.4048 11.1961 11.0311 10.5699 11.0311 9.79729C11.0311 9.02472 10.4048 8.39844 9.63225 8.39844C8.85968 8.39844 8.2334 9.02472 8.2334 9.79729C8.2334 10.5699 8.85968 11.1961 9.63225 11.1961Z" fill="white"/>
</svg>
