<svg width="91" height="91" viewBox="0 0 91 91" fill="none" xmlns="http://www.w3.org/2000/svg">
<circle cx="45.5" cy="45.5" r="45.5" fill="#F25041"/>
<g clip-path="url(#clip0_453_3814)">
<path d="M24.0007 50.4481C25.519 39.9078 34.5458 31.7829 45.417 31.7829C56.2882 31.7829 65.315 39.9078 66.8333 50.4481H71.6135C70.0596 37.2653 58.9097 27 45.417 27C31.9243 27 20.7684 37.2653 19.2145 50.4481H23.9948H24.0007Z" fill="#051D26"/>
<path d="M21.9308 57.8615C25.2064 57.8615 27.8617 55.1848 27.8617 51.8829C27.8617 48.581 25.2064 45.9043 21.9308 45.9043C18.6553 45.9043 16 48.581 16 51.8829C16 55.1848 18.6553 57.8615 21.9308 57.8615Z" fill="#051D26"/>
<path d="M69.0691 57.8615C72.3447 57.8615 75 55.1848 75 51.8829C75 48.581 72.3447 45.9043 69.0691 45.9043C65.7936 45.9043 63.1383 48.581 63.1383 51.8829C63.1383 55.1848 65.7936 57.8615 69.0691 57.8615Z" fill="#051D26"/>
</g>
<defs>
<clipPath id="clip0_453_3814">
<rect width="59" height="30.8615" fill="white" transform="translate(16 27)"/>
</clipPath>
</defs>
</svg>
