<svg width="119" height="133" viewBox="0 0 119 133" fill="none" xmlns="http://www.w3.org/2000/svg">
<circle cx="54.5" cy="69.5" r="45.5" fill="#F25041"/>
<circle cx="32" cy="32" r="31.5" fill="url(#paint0_linear_599_8956)" stroke="url(#paint1_linear_599_8956)"/>
<g clip-path="url(#clip0_599_8956)">
</g>
<circle cx="87" cy="101" r="31.5" fill="url(#paint2_linear_599_8956)" stroke="url(#paint3_linear_599_8956)"/>
<g opacity="0.9" clip-path="url(#clip1_599_8956)">
<path d="M93.2974 106.5C92.7847 106.499 92.2787 106.383 91.8163 106.162C91.3539 105.941 90.9468 105.619 90.6245 105.22C90.3022 104.821 90.0729 104.356 89.9533 103.857C89.8337 103.359 89.8268 102.84 89.9332 102.338C90.1061 101.551 90.5452 100.848 91.1765 100.347C91.8077 99.8459 92.5924 99.578 93.3982 99.5883H95.589C95.7106 99.5883 95.8272 99.54 95.9131 99.4541C95.9991 99.3681 96.0474 99.2516 96.0474 99.13V97.0675C96.0449 96.4605 95.8027 95.879 95.3735 95.4497C94.9442 95.0205 94.3627 94.7782 93.7557 94.7758H80.9224C80.74 94.7758 80.5652 94.7034 80.4362 94.5745C80.3073 94.4455 80.2349 94.2707 80.2349 94.0883C80.2349 93.906 80.3073 93.7311 80.4362 93.6022C80.5652 93.4733 80.74 93.4008 80.9224 93.4008H93.0682C93.129 93.4008 93.1873 93.3767 93.2302 93.3337C93.2732 93.2907 93.2974 93.2324 93.2974 93.1717V92.9792C93.2974 91.7142 91.8582 90.6875 90.089 90.6875H80.0057C79.5844 90.6875 79.1672 90.7705 78.7779 90.9317C78.3887 91.093 78.035 91.3293 77.7371 91.6272C77.1354 92.2289 76.7974 93.0449 76.7974 93.8958V108.104C76.7974 108.955 77.1354 109.771 77.7371 110.373C78.035 110.671 78.3887 110.907 78.7779 111.068C79.1672 111.23 79.5844 111.312 80.0057 111.312H93.7557C94.0566 111.312 94.3546 111.253 94.6327 111.138C94.9107 111.023 95.1633 110.854 95.3762 110.641C95.589 110.428 95.7578 110.176 95.8729 109.898C95.9881 109.62 96.0474 109.322 96.0474 109.021V106.729C96.0474 106.668 96.0232 106.61 95.9802 106.567C95.9373 106.524 95.879 106.5 95.8182 106.5H93.2974Z" fill="white"/>
<path d="M96.0471 101H93.2971C92.7501 101 92.2255 101.217 91.8387 101.604C91.4519 101.991 91.2346 102.515 91.2346 103.062C91.2346 103.61 91.4519 104.134 91.8387 104.521C92.2255 104.908 92.7501 105.125 93.2971 105.125H96.0471C96.3708 105.07 96.6642 104.902 96.8744 104.649C97.0845 104.397 97.1975 104.078 97.193 103.75V102.375C97.1975 102.047 97.0845 101.728 96.8744 101.476C96.6642 101.223 96.3708 101.055 96.0471 101Z" fill="white"/>
</g>
<defs>
<linearGradient id="paint0_linear_599_8956" x1="32" y1="43.978" x2="32" y2="73.5119" gradientUnits="userSpaceOnUse">
<stop stop-color="#052531"/>
<stop offset="1" stop-color="#052531" stop-opacity="0.1"/>
</linearGradient>
<linearGradient id="paint1_linear_599_8956" x1="32" y1="0" x2="32" y2="64" gradientUnits="userSpaceOnUse">
<stop stop-color="#435F69"/>
<stop offset="1" stop-color="#435F69" stop-opacity="0"/>
</linearGradient>
<linearGradient id="paint2_linear_599_8956" x1="87" y1="58" x2="87" y2="142.512" gradientUnits="userSpaceOnUse">
<stop stop-color="#052531"/>
<stop offset="1" stop-color="#052531" stop-opacity="0.1"/>
</linearGradient>
<linearGradient id="paint3_linear_599_8956" x1="87" y1="69" x2="87" y2="133" gradientUnits="userSpaceOnUse">
<stop stop-color="#435F69"/>
<stop offset="1" stop-color="#435F69" stop-opacity="0"/>
</linearGradient>
<clipPath id="clip0_599_8956">
<rect width="26.55" height="28.7027" fill="white" transform="translate(21 19)"/>
</clipPath>
<clipPath id="clip1_599_8956">
<rect width="22" height="22" fill="white" transform="translate(76 90)"/>
</clipPath>
</defs>

<text style="white-space: pre; fill: white; font-family: &quot;Arial&quot;, sans-serif; font-size: 28px; user-select: none;" x="17.214" y="38.253" transform="matrix(1.403228, 0, 0, 1.340177, -6.759965, -7.988666)">C</text>

</svg>
