<svg width="119" height="133" viewBox="0 0 119 133" fill="none" xmlns="http://www.w3.org/2000/svg">
<circle cx="54.5" cy="69.5" r="45.5" fill="url(#paint0_radial_453_6234)"/>
<circle cx="32" cy="32" r="31.5" fill="url(#paint1_linear_453_6234)" stroke="url(#paint2_linear_453_6234)"/>
<g clip-path="url(#clip0_453_6234)">
</g>
<circle cx="87" cy="101" r="31.5" fill="url(#paint3_linear_453_6234)" stroke="url(#paint4_linear_453_6234)"/>
<g opacity="0.9" clip-path="url(#clip1_453_6234)">
<path d="M93.2972 106.5C92.7846 106.499 92.2786 106.383 91.8162 106.162C91.3538 105.941 90.9466 105.619 90.6243 105.22C90.3021 104.821 90.0728 104.356 89.9532 103.857C89.8336 103.359 89.8267 102.84 89.9331 102.338C90.106 101.551 90.5451 100.848 91.1763 100.347C91.8076 99.8459 92.5923 99.578 93.3981 99.5883H95.5889C95.7105 99.5883 95.827 99.54 95.913 99.4541C95.999 99.3681 96.0472 99.2516 96.0472 99.13V97.0675C96.0448 96.4605 95.8026 95.879 95.3734 95.4497C94.9441 95.0205 94.3626 94.7782 93.7556 94.7758H80.9222C80.7399 94.7758 80.565 94.7034 80.4361 94.5745C80.3072 94.4455 80.2347 94.2707 80.2347 94.0883C80.2347 93.906 80.3072 93.7311 80.4361 93.6022C80.565 93.4733 80.7399 93.4008 80.9222 93.4008H93.0681C93.1289 93.4008 93.1871 93.3767 93.2301 93.3337C93.2731 93.2907 93.2972 93.2324 93.2972 93.1717V92.9792C93.2972 91.7142 91.8581 90.6875 90.0889 90.6875H80.0056C79.5843 90.6875 79.1671 90.7705 78.7778 90.9317C78.3885 91.093 78.0349 91.3293 77.7369 91.6272C77.1353 92.2289 76.7972 93.0449 76.7972 93.8958V108.104C76.7972 108.955 77.1353 109.771 77.7369 110.373C78.0349 110.671 78.3885 110.907 78.7778 111.068C79.1671 111.23 79.5843 111.312 80.0056 111.312H93.7556C94.0565 111.312 94.3545 111.253 94.6326 111.138C94.9106 111.023 95.1632 110.854 95.376 110.641C95.5888 110.428 95.7576 110.176 95.8728 109.898C95.988 109.62 96.0472 109.322 96.0472 109.021V106.729C96.0472 106.668 96.0231 106.61 95.9801 106.567C95.9371 106.524 95.8789 106.5 95.8181 106.5H93.2972Z" fill="white"/>
<path d="M96.0469 101H93.2969C92.7499 101 92.2253 101.217 91.8385 101.604C91.4517 101.991 91.2344 102.515 91.2344 103.062C91.2344 103.61 91.4517 104.134 91.8385 104.521C92.2253 104.908 92.7499 105.125 93.2969 105.125H96.0469C96.3706 105.07 96.6641 104.902 96.8742 104.649C97.0844 104.397 97.1974 104.078 97.1928 103.75V102.375C97.1974 102.047 97.0844 101.728 96.8742 101.476C96.6641 101.223 96.3706 101.055 96.0469 101Z" fill="white"/>
</g>
<defs>
<radialGradient id="paint0_radial_453_6234" cx="0" cy="0" r="1" gradientUnits="userSpaceOnUse" gradientTransform="translate(100 24) rotate(135) scale(128.693 267.714)">
<stop stop-color="#0538af"/>
<stop offset="1" stop-color="white"/>
</radialGradient>
<linearGradient id="paint1_linear_453_6234" x1="32" y1="43.978" x2="32" y2="73.5119" gradientUnits="userSpaceOnUse">
<stop stop-color="#052531"/>
<stop offset="1" stop-color="#052531" stop-opacity="0.1"/>
</linearGradient>
<linearGradient id="paint2_linear_453_6234" x1="32" y1="0" x2="32" y2="64" gradientUnits="userSpaceOnUse">
<stop stop-color="#435F69"/>
<stop offset="1" stop-color="#435F69" stop-opacity="0"/>
</linearGradient>
<linearGradient id="paint3_linear_453_6234" x1="87" y1="58" x2="87" y2="142.512" gradientUnits="userSpaceOnUse">
<stop stop-color="#052531"/>
<stop offset="1" stop-color="#052531" stop-opacity="0.1"/>
</linearGradient>
<linearGradient id="paint4_linear_453_6234" x1="87" y1="69" x2="87" y2="133" gradientUnits="userSpaceOnUse">
<stop stop-color="#435F69"/>
<stop offset="1" stop-color="#435F69" stop-opacity="0"/>
</linearGradient>
<clipPath id="clip0_453_6234">
<rect width="26.55" height="28.7027" fill="white" transform="translate(21 19)"/>
</clipPath>
<clipPath id="clip1_453_6234">
<rect width="22" height="22" fill="white" transform="translate(76 90)"/>
</clipPath>
</defs>

<text style="white-space: pre; fill: white; font-family: &quot;Arial&quot;, sans-serif; font-size: 28px; user-select: none;" x="17.214" y="38.253" transform="matrix(1.403228, 0, 0, 1.340177, -6.759965, -7.988666)">C</text>

</svg>
