<svg width="100" height="100" viewBox="0 0 100 100" fill="none" xmlns="http://www.w3.org/2000/svg">
<path d="M99.8167 48.8615C99.5164 47.9708 98.8747 47.2358 98.0327 46.8183C97.1906 46.4008 96.2173 46.3349 95.3266 46.635L53.5456 60.7218V37.0432L74.3341 30.1058L74.4181 30.0738C74.4861 30.0478 74.5521 30.0238 74.6181 29.9958L74.7541 29.9318C74.8121 29.9038 74.8701 29.8758 74.9261 29.8438C74.9821 29.8118 75.0281 29.7838 75.0781 29.7538L75.2141 29.6658C75.2721 29.6257 75.3281 29.5837 75.3821 29.5417C75.4361 29.4997 75.4541 29.4877 75.4882 29.4577C75.5221 29.4277 75.6042 29.3557 75.6602 29.3017L75.7182 29.2497C75.7302 29.2397 75.7382 29.2277 75.7482 29.2177C75.8002 29.1643 75.8502 29.1083 75.8982 29.0496C75.9282 29.0156 75.9602 28.9816 75.9882 28.9456L76.1002 28.7936C76.1322 28.7476 76.1662 28.7016 76.1962 28.6536C76.2262 28.6055 76.2482 28.5675 76.2722 28.5235C76.2962 28.4795 76.3402 28.4095 76.3702 28.3495C76.4002 28.2895 76.4062 28.2715 76.4262 28.2315C76.4462 28.1915 76.4842 28.1034 76.5102 28.0314C76.5362 27.9594 76.5422 27.9414 76.5562 27.8974C76.5702 27.8534 76.6002 27.7754 76.6182 27.7134C76.6362 27.6514 76.6462 27.5993 76.6602 27.5413C76.6742 27.4833 76.6862 27.4393 76.6962 27.3873C76.7062 27.3353 76.7162 27.2473 76.7262 27.1773C76.7262 27.1373 76.7382 27.0953 76.7422 27.0532C76.7422 26.9792 76.7422 26.9052 76.7522 26.8292C76.7522 26.7912 76.7522 26.7512 76.7522 26.7132C76.7522 26.6432 76.7522 26.5731 76.7522 26.5131C76.7522 26.4531 76.7522 26.4191 76.7422 26.3731C76.7322 26.3271 76.7262 26.2551 76.7162 26.1971C76.7062 26.1391 76.6982 26.0771 76.6862 26.019C76.6742 25.961 76.6642 25.925 76.6522 25.879C76.6402 25.833 76.6142 25.737 76.5922 25.667C76.5891 25.6527 76.5851 25.6387 76.5802 25.625C76.5802 25.599 76.5602 25.575 76.5502 25.549C76.5262 25.4769 76.4982 25.4049 76.4682 25.3349C76.4382 25.2649 76.4302 25.2529 76.4102 25.2109C76.3902 25.1689 76.3502 25.0889 76.3162 25.0268C76.2822 24.9648 76.2622 24.9328 76.2322 24.8868C76.2022 24.8408 76.1702 24.7868 76.1362 24.7388C76.1022 24.6908 76.0622 24.6328 76.0222 24.5828C75.9822 24.5328 75.9622 24.5047 75.9302 24.4667C75.8982 24.4287 75.8342 24.3567 75.7842 24.3047C75.7642 24.2847 75.7462 24.2607 75.7242 24.2387L52.5236 1.0342C52.4416 0.952183 52.3576 0.876169 52.2676 0.802154C52.2256 0.768148 52.1816 0.738142 52.1396 0.706136C52.0976 0.674129 52.0416 0.632121 51.9896 0.596114C51.9376 0.560107 51.8856 0.532102 51.8336 0.502096C51.7816 0.47209 51.7396 0.444085 51.6916 0.41808C51.6436 0.392075 51.5836 0.36607 51.5296 0.340065L51.3776 0.270051C51.3256 0.248047 51.2696 0.230043 51.2156 0.21004L51.0515 0.152028L50.8855 0.11002C50.8275 0.0960174 50.7735 0.0800143 50.7155 0.068012L50.5155 0.0380062C50.4655 0.0380062 50.4175 0.0220031 50.3675 0.0180023C50.1348 -0.00600077 49.9002 -0.00600077 49.6675 0.0180023C49.6175 0.0180023 49.5695 0.032005 49.5195 0.0380062C49.4695 0.0440074 49.3895 0.0560097 49.3195 0.068012C49.2495 0.0800143 49.2055 0.0960174 49.1475 0.11002C49.0895 0.124023 49.0375 0.136025 48.9835 0.152028L48.8175 0.21004L48.6555 0.270051C48.6035 0.292055 48.5555 0.31606 48.5055 0.340065C48.4555 0.364069 48.3955 0.390074 48.3415 0.41808C48.2875 0.446085 48.2475 0.474091 48.2015 0.502096C48.1555 0.530102 48.0955 0.562108 48.0435 0.596114L47.8935 0.706136C47.8515 0.738142 47.8075 0.768148 47.7655 0.802154C47.6775 0.876169 47.5915 0.952183 47.5095 1.0342C47.4275 1.11622 47.3515 1.20223 47.2775 1.29225C47.2435 1.33226 47.2155 1.37427 47.1834 1.41627C47.1514 1.45828 47.1074 1.51629 47.0714 1.5703C47.0354 1.62431 47.0094 1.67232 46.9774 1.72233C46.9454 1.77234 46.9194 1.81835 46.8934 1.86836C46.8674 1.91837 46.8414 1.97238 46.8154 2.02639C46.7894 2.0804 46.7654 2.12841 46.7434 2.18242C46.7214 2.23643 46.7054 2.28644 46.6874 2.33845C46.6694 2.39046 46.6454 2.45047 46.6274 2.50849C46.6094 2.5665 46.5994 2.61451 46.5874 2.66652C46.5754 2.71853 46.5554 2.78454 46.5434 2.84655C46.5314 2.90856 46.5234 2.96657 46.5154 3.02659C46.5074 3.0866 46.4974 3.13461 46.4914 3.18862C46.4814 3.30064 46.4754 3.41266 46.4754 3.52468C46.4754 3.52468 46.4754 3.52468 46.4754 3.53668V31.9422L2.42234 46.631C1.53066 46.9287 0.793718 47.5684 0.373627 48.4095C-0.0464653 49.2505 -0.115292 50.2241 0.182289 51.1159C0.479869 52.0077 1.11948 52.7448 1.96041 53.165C2.80135 53.5851 3.77472 53.654 4.6664 53.3563L46.4674 39.4076V63.1122L25.8469 70.0636L25.7929 70.0856C25.7109 70.1136 25.6309 70.1456 25.5509 70.1796L25.4529 70.2256C25.3829 70.2596 25.3129 70.2956 25.2529 70.3336L25.1369 70.4016C25.0789 70.4376 25.0229 70.4737 24.9669 70.5137L24.8329 70.6117L24.6949 70.7217C24.6469 70.7617 24.6009 70.8037 24.5569 70.8477C24.5309 70.8717 24.5049 70.8917 24.4809 70.9157C24.4569 70.9398 24.4529 70.9477 24.4389 70.9638C24.4249 70.9798 24.3569 71.0518 24.3169 71.0978C24.2769 71.1438 24.2369 71.1878 24.2009 71.2358C24.1649 71.2838 24.1429 71.3118 24.1149 71.3518C24.0869 71.3918 24.0309 71.4678 23.9949 71.5279C23.9589 71.5879 23.9589 71.5879 23.9409 71.6179C23.8989 71.6879 23.8589 71.7579 23.8229 71.8299C23.8089 71.8559 23.7989 71.8839 23.7849 71.9099C23.7489 71.9859 23.7149 72.062 23.6849 72.142C23.6729 72.172 23.6629 72.202 23.6529 72.232C23.6249 72.308 23.5989 72.382 23.5769 72.46C23.5649 72.5021 23.5569 72.5441 23.5469 72.5861C23.5369 72.6281 23.5149 72.7181 23.5029 72.7861C23.4909 72.8541 23.4849 72.8981 23.4789 72.9541C23.4729 73.0101 23.4629 73.0622 23.4569 73.1182C23.4509 73.1742 23.4569 73.2442 23.4569 73.3182C23.4569 73.3922 23.4569 73.4182 23.4569 73.4682C23.4569 73.5182 23.4569 73.5923 23.4569 73.6563C23.4569 73.7203 23.4569 73.7623 23.4689 73.8163C23.4809 73.8703 23.4849 73.9263 23.4929 73.9803C23.5009 74.0343 23.5129 74.1064 23.5269 74.1704C23.5409 74.2344 23.5469 74.2584 23.5589 74.3044C23.5709 74.3504 23.5969 74.4484 23.6209 74.5184L23.6329 74.5665C23.6449 74.6005 23.6589 74.6305 23.6709 74.6625C23.6829 74.6945 23.7049 74.7605 23.7269 74.8085C23.753 74.8733 23.7823 74.9367 23.8149 74.9985C23.8289 75.0305 23.8429 75.0625 23.8589 75.0926C23.9089 75.1866 23.9629 75.2766 24.0209 75.3646C24.0329 75.3866 24.0489 75.4066 24.0629 75.4286C24.1129 75.5006 24.1649 75.5706 24.2189 75.6407L24.2669 75.6987C24.3309 75.7747 24.3969 75.8487 24.4669 75.9187L24.4849 75.9387L24.5089 75.9647L24.5309 75.9867L47.4955 98.9652C47.5775 99.0452 47.6635 99.1232 47.7515 99.1952C47.7935 99.2312 47.8375 99.2592 47.8795 99.2912C47.9215 99.3232 47.9775 99.3673 48.0295 99.4033C48.0815 99.4393 48.1335 99.4653 48.1855 99.4973C48.2375 99.5293 48.2795 99.5553 48.3275 99.5813L48.4895 99.6593L48.6415 99.7293C48.6935 99.7513 48.7475 99.7693 48.8015 99.7873C48.8555 99.8053 48.9115 99.8293 48.9695 99.8474C49.0275 99.8654 49.0775 99.8754 49.1295 99.8874C49.1815 99.8994 49.2455 99.9194 49.3055 99.9314C49.3655 99.9434 49.4295 99.9494 49.4915 99.9594C49.5535 99.9694 49.5955 99.9774 49.6475 99.9814C49.8802 100.005 50.1148 100.005 50.3475 99.9814C50.3995 99.9814 50.4515 99.9674 50.5035 99.9594C50.5555 99.9514 50.6275 99.9434 50.6895 99.9314C50.7515 99.9194 50.8075 99.9034 50.8655 99.8874C50.9235 99.8714 50.9735 99.8634 51.0255 99.8474C51.0775 99.8313 51.1375 99.8073 51.1936 99.7873C51.2495 99.7673 51.3016 99.7513 51.3536 99.7293L51.5056 99.6593C51.5596 99.6333 51.6156 99.6093 51.6676 99.5813C51.7196 99.5533 51.7616 99.5253 51.8096 99.4973C51.8576 99.4693 51.9156 99.4373 51.9656 99.4033C52.0156 99.3693 52.0656 99.3293 52.1156 99.2912C52.1656 99.2532 52.2016 99.2312 52.2436 99.1952C52.3336 99.1232 52.4176 99.0452 52.4996 98.9652C52.5816 98.8835 52.6591 98.7974 52.7316 98.7071C52.7656 98.6671 52.7936 98.6231 52.8256 98.5831C52.8576 98.5431 52.9036 98.4811 52.9376 98.4291C52.9716 98.3771 53.0016 98.3271 53.0316 98.275C53.0616 98.223 53.0896 98.181 53.1176 98.131C53.1456 98.081 53.1676 98.025 53.1936 97.973C53.2196 97.921 53.2436 97.871 53.2656 97.817C53.2876 97.7629 53.3036 97.7129 53.3236 97.6609C53.3436 97.6089 53.3656 97.5469 53.3816 97.4889C53.3976 97.4309 53.4096 97.3849 53.4236 97.3309C53.4376 97.2769 53.4536 97.2128 53.4656 97.1528C53.4776 97.0928 53.4856 97.0328 53.4936 96.9708C53.5016 96.9088 53.5116 96.8648 53.5176 96.8108C53.5276 96.6987 53.5336 96.5867 53.5336 96.4747C53.5336 96.4747 53.5336 96.4647 53.5336 96.4607V68.1972L97.5787 53.3483C98.4702 53.0499 99.2067 52.4097 99.6264 51.5683C100.046 50.7269 100.115 49.7533 99.8167 48.8615ZM53.5456 12.0843L66.6559 25.1889L53.5456 29.5637V12.0843ZM46.4574 87.899L33.5131 74.9525L46.4574 70.5977V87.899Z" fill="white"/>
</svg>
