<svg width="61" height="98" viewBox="0 0 61 98" fill="none" xmlns="http://www.w3.org/2000/svg">
<g clip-path="url(#clip0_1_650)">
<path d="M60.6605 47.5452L52.7772 52.0712L46.4891 55.692L30.02 65.1625L17.634 57.9112L23.727 54.2709L30.098 58.0036L40.3668 52.0955L46.6598 48.4796L51.7235 45.5645L30.259 12.2426L12.0972 40.5081L0.0234375 47.3749L30.2444 0.333984L60.6605 47.5452Z" fill="white"/>
<path d="M60.6741 54.4218L30.3995 97.6667L0.0078125 54.2514L7.78379 49.7011L13.9451 46.095L30.3995 36.4688L43.0928 43.9293L36.7608 47.5258L30.4922 43.8466L20.2966 49.8131L14.1353 53.4192L9.04727 56.3976L30.4922 87.038L48.4882 61.3373L60.6741 54.4218Z" fill="white"/>
</g>
<defs>
<clipPath id="clip0_1_650">
<rect width="60.6663" height="97.3327" fill="white" transform="translate(0 0.333984)"/>
</clipPath>
</defs>
</svg>
