<svg width="99" height="63" viewBox="0 0 99 63" fill="none" xmlns="http://www.w3.org/2000/svg">
<path d="M67.5 54C73.725 54 79.0312 51.8062 83.4187 47.4187C87.8062 43.0312 90 37.725 90 31.5C90 25.275 87.8062 19.9688 83.4187 15.5812C79.0312 11.1937 73.725 9 67.5 9C65.475 9 63.5062 9.2625 61.5938 9.7875C59.6812 10.3125 57.9 11.0625 56.25 12.0375C58.425 14.7375 60.0938 17.7375 61.2562 21.0375C62.4187 24.3375 63 27.825 63 31.5C63 35.175 62.4187 38.6625 61.2562 41.9625C60.0938 45.2625 58.425 48.2625 56.25 50.9625C57.9 51.9375 59.6812 52.6875 61.5938 53.2125C63.5062 53.7375 65.475 54 67.5 54ZM49.5 45C50.925 43.125 52.0312 41.0438 52.8187 38.7562C53.6062 36.4688 54 34.05 54 31.5C54 28.95 53.6062 26.5312 52.8187 24.2437C52.0312 21.9562 50.925 19.875 49.5 18C48.075 19.875 46.9688 21.9562 46.1812 24.2437C45.3937 26.5312 45 28.95 45 31.5C45 34.05 45.3937 36.4688 46.1812 38.7562C46.9688 41.0438 48.075 43.125 49.5 45ZM31.5 54C33.525 54 35.4937 53.7375 37.4062 53.2125C39.3187 52.6875 41.1 51.9375 42.75 50.9625C40.575 48.2625 38.9062 45.2625 37.7437 41.9625C36.5812 38.6625 36 35.175 36 31.5C36 27.825 36.5812 24.3375 37.7437 21.0375C38.9062 17.7375 40.575 14.7375 42.75 12.0375C41.1 11.0625 39.3187 10.3125 37.4062 9.7875C35.4937 9.2625 33.525 9 31.5 9C25.275 9 19.9688 11.1937 15.5812 15.5812C11.1937 19.9688 9 25.275 9 31.5C9 37.725 11.1937 43.0312 15.5812 47.4187C19.9688 51.8062 25.275 54 31.5 54ZM31.5 63C22.725 63 15.2812 59.9437 9.16875 53.8312C3.05625 47.7188 0 40.275 0 31.5C0 22.725 3.05625 15.2812 9.16875 9.16875C15.2812 3.05625 22.725 0 31.5 0C34.875 0 38.0812 0.4875 41.1187 1.4625C44.1562 2.4375 46.95 3.825 49.5 5.625C52.05 3.825 54.8438 2.4375 57.8812 1.4625C60.9187 0.4875 64.125 0 67.5 0C76.275 0 83.7188 3.05625 89.8312 9.16875C95.9437 15.2812 99 22.725 99 31.5C99 40.275 95.9437 47.7188 89.8312 53.8312C83.7188 59.9437 76.275 63 67.5 63C64.125 63 60.9187 62.5125 57.8812 61.5375C54.8438 60.5625 52.05 59.175 49.5 57.375C46.95 59.175 44.1562 60.5625 41.1187 61.5375C38.0812 62.5125 34.875 63 31.5 63Z" fill="#113E3C"/>
</svg>
