<svg width="969" height="728" viewBox="0 0 969 728" fill="none" xmlns="http://www.w3.org/2000/svg">
<path d="M997.71 59.7948C998.801 59.7948 999.864 59.2634 1000.5 58.3069C1001.41 56.9253 1001.17 55.0655 999.917 53.9762L934.487 -2.96092C934.008 -3.38603 933.423 -3.65172 932.784 -3.73143L854.693 -14.9701C853.071 -15.2092 851.501 -14.2261 851.023 -12.632C850.544 -11.0644 851.288 -9.36403 852.778 -8.67324L996.3 59.4759C996.752 59.6885 997.231 59.7948 997.71 59.7948ZM930.843 2.69824L977.256 43.0829L875.439 -5.27243L930.843 2.69824Z" fill="#191919"/>
<path d="M932.279 2.88422C933.689 2.88422 934.965 2.00745 935.418 0.652435C935.95 -0.862 935.311 -2.50926 933.928 -3.30632L770.059 -96.9882C768.596 -97.8118 766.76 -97.4399 765.75 -96.1114C764.739 -94.783 764.899 -92.8966 766.095 -91.7276C798.226 -60.5357 816.046 -43.3191 851.9 -9.25776C852.406 -8.77952 853.044 -8.48726 853.709 -8.38098L931.8 2.85765C931.96 2.85765 932.119 2.88422 932.279 2.88422ZM789.635 -78.1509L915.496 -6.20233L855.704 -14.8107C827.989 -41.1404 811.072 -57.4006 789.635 -78.1509Z" fill="#191919"/>
<path d="M930.736 103.58C931.401 103.58 932.04 103.394 932.598 102.996C939.354 98.3993 946.11 93.6966 952.706 89.1002C970.979 76.3737 988.214 64.338 999.093 59.4759C1000.26 58.9445 1001.03 57.7755 1001.06 56.4736C1001.09 55.1718 1000.34 54.0027 999.173 53.4448L855.651 -14.7044C854.294 -15.342 852.672 -14.9966 851.687 -13.8542C850.703 -12.7117 850.623 -11.0644 851.475 -9.8157L863.417 7.56035C886.477 41.1168 901.718 63.2753 927.997 102.119C928.502 102.836 929.247 103.341 930.125 103.527C930.311 103.58 930.524 103.58 930.736 103.58ZM990.156 56.5799C979.065 62.6642 964.329 72.9198 948.903 83.6802C943.237 87.6389 937.439 91.6774 931.614 95.6362C906.426 58.4663 891.372 36.5736 868.87 3.81413L863.922 -3.35947L990.156 56.5799Z" fill="#191919"/>
<path d="M930.736 103.58C931.455 103.58 932.146 103.368 932.758 102.889C934.167 101.827 934.487 99.8341 933.503 98.3993C907.197 59.5291 891.957 37.3706 868.896 3.81413L856.954 -13.5353C856.821 -13.7213 856.661 -13.9073 856.502 -14.0667C820.674 -48.1015 802.854 -65.3181 770.75 -96.4834C769.5 -97.7055 767.505 -97.7321 766.202 -96.5631C764.899 -95.3941 764.739 -93.4014 765.856 -92.0198C825.701 -17.441 858.896 21.9341 928.236 102.464C928.848 103.208 929.779 103.58 930.736 103.58ZM851.634 -9.49688L863.364 7.58691C874.961 24.4847 884.589 38.4865 894.643 53.2057C860.997 13.8572 835.436 -16.6705 805.115 -53.92C818.812 -40.795 832.697 -27.484 851.634 -9.49688Z" fill="#191919"/>
<path d="M930.71 103.58C931.588 103.58 932.465 103.235 933.13 102.544C934.301 101.295 934.354 99.3824 933.237 98.0805C863.949 17.6299 830.808 -21.7186 771.016 -96.2177C770.165 -97.2539 768.782 -97.7055 767.505 -97.3336C766.202 -96.9616 765.271 -95.8457 765.138 -94.5173C762.664 -72.1994 760.59 -60.1637 754.526 -33.3026C754.233 -32.0273 754.712 -30.6988 755.776 -29.9283C803.173 5.85994 834.426 30.011 873.977 60.5918C890.334 73.2386 908.022 86.9216 928.715 102.863C929.3 103.368 930.018 103.58 930.71 103.58ZM770.803 -85.8293C821.286 -23.047 853.15 15.0793 906.984 77.7819C896.718 69.8643 887.143 62.4516 877.993 55.3843C838.894 25.1755 807.934 1.21037 761.441 -33.8871C766.495 -56.3644 768.702 -68.4266 770.803 -85.8293Z" fill="#191919"/>
<path d="M757.744 -29.211C758.116 -29.211 758.515 -29.2641 758.887 -29.4235C759.951 -29.8221 760.749 -30.6988 760.989 -31.8147C767.106 -58.9681 769.207 -71.1367 771.734 -93.7468C771.894 -95.2612 771.016 -96.6959 769.58 -97.2273C715.852 -117.101 687.126 -123.823 629.968 -129.88C628.425 -130.04 627.042 -129.163 626.51 -127.728C625.978 -126.294 626.483 -124.7 627.733 -123.849C675.157 -91.0102 700.505 -71.9869 755.749 -29.9018C756.307 -29.4501 757.026 -29.211 757.744 -29.211ZM764.819 -91.887C762.638 -72.5714 760.616 -60.7482 755.616 -38.2975C707.341 -75.0689 682.073 -94.0125 642.256 -121.804C689.653 -116.251 717.448 -109.316 764.819 -91.887Z" fill="#191919"/>
<path d="M930.71 103.58C931.88 103.58 933.024 102.943 933.609 101.88C934.407 100.445 934.035 98.6385 932.731 97.6288C912.038 81.6875 894.351 68.0311 877.993 55.3843C838.415 24.8035 807.163 0.62587 759.739 -35.189C758.781 -35.9063 757.531 -36.0658 756.44 -35.5875C755.35 -35.1093 754.579 -34.0997 754.446 -32.9306C750.961 -3.54546 748.434 12.0505 741.599 46.4306C741.253 48.2107 742.397 49.9643 744.205 50.3362C819.584 65.6931 857.699 76.5863 929.566 103.394C929.938 103.527 930.338 103.58 930.71 103.58ZM760.35 -26.3947C805.194 7.50722 835.675 31.0738 873.923 60.645C885.573 69.6518 897.915 79.19 911.506 89.6848C852.645 68.3765 815.035 58.0678 748.727 44.4911C754.711 14.362 757.291 -1.26051 760.35 -26.3947Z" fill="#191919"/>
<path d="M744.844 50.3894C745.057 50.3894 745.296 50.3628 745.509 50.3097C746.812 50.044 747.849 49.0078 748.115 47.7059C754.978 13.1132 757.531 -2.56239 761.042 -32.1601C761.175 -33.3292 760.696 -34.4716 759.765 -35.189C704.442 -77.3538 679.041 -96.3771 631.51 -129.323C630.207 -130.226 628.451 -130.093 627.308 -128.977C626.164 -127.888 625.951 -126.134 626.802 -124.806C668.082 -59.9777 692.419 -23.8972 742.104 48.9281C742.743 49.858 743.78 50.3894 744.844 50.3894ZM754.233 -31.0442C751.121 -5.11301 748.701 10.1907 743.142 38.6459C700.053 -24.5083 676.221 -59.898 641.378 -114.338C680.131 -87.2374 705.505 -68.1609 754.233 -31.0442Z" fill="#191919"/>
<path d="M744.844 50.3894C745.775 50.3894 746.706 49.9908 747.344 49.2469C748.355 48.1044 748.434 46.4306 747.583 45.1819C697.952 -27.5637 673.641 -63.6442 632.388 -128.366C631.404 -129.907 629.382 -130.359 627.813 -129.402C588.634 -104.932 564.005 -88.8315 512.937 -52.4056C511.899 -51.6882 511.394 -50.4395 511.58 -49.1908C511.766 -47.942 512.644 -46.9324 513.841 -46.5339C600.603 -18.8757 649.384 2.80452 743.328 50.0174C743.833 50.2831 744.339 50.3894 744.844 50.3894ZM628.584 -122.016C666.779 -62.1033 690.664 -26.5275 734.896 38.3537C653.799 -2.19043 603.13 -24.7208 522.219 -50.838C568.367 -83.624 592.491 -99.4325 628.584 -122.016Z" fill="#191919"/>
<path d="M514.905 -46.3745C515.597 -46.3745 516.262 -46.587 516.847 -46.9856C567.782 -83.3052 592.331 -99.3528 631.404 -123.743C632.601 -124.487 633.212 -125.922 632.893 -127.303C632.574 -128.685 631.404 -129.721 629.994 -129.854C569.085 -136.31 535.917 -135.433 475.647 -125.762C474.609 -125.603 473.705 -124.939 473.226 -124.009C472.747 -123.079 472.721 -121.963 473.2 -121.006C486.312 -94.411 493.919 -80.0904 512.032 -48.0218C512.485 -47.1981 513.283 -46.6136 514.214 -46.401C514.4 -46.401 514.666 -46.3745 514.905 -46.3745ZM619.648 -124.248C585.762 -102.966 561.451 -86.9186 515.995 -54.5311C500.143 -82.641 492.589 -96.8553 481.152 -119.944C534.72 -128.313 566.824 -129.376 619.648 -124.248Z" fill="#191919"/>
<path d="M1039.76 206.508C1040.37 206.508 1040.96 206.349 1041.49 206.003C1042.77 205.233 1043.35 203.692 1042.95 202.257L1000.9 55.5437C1000.64 54.6138 999.971 53.8433 999.12 53.4448C998.242 53.0463 997.231 53.0197 996.353 53.4182C984.943 58.546 967.415 70.7411 948.903 83.6536C942.333 88.2235 935.604 92.9262 928.875 97.496C928.05 98.054 927.518 98.9573 927.438 99.9669C927.358 100.977 927.731 101.96 928.449 102.65C971.963 144.549 994.385 165.725 1037.53 205.631C1038.14 206.216 1038.94 206.508 1039.76 206.508ZM995.609 61.2029L1033.3 192.692C996.619 158.711 974.57 137.881 936.003 100.737C941.615 96.8849 947.227 92.9793 952.733 89.1534C969.117 77.6756 984.73 66.8089 995.609 61.2029Z" fill="#191919"/>
<path d="M1039.76 206.508C1039.89 206.508 1040.03 206.508 1040.16 206.482C1041.78 206.269 1043.03 204.914 1043.09 203.293L1045.8 119.203C1045.83 118.485 1045.61 117.768 1045.19 117.157L1000.45 54.5341C999.519 53.2057 997.763 52.754 996.3 53.4714C994.837 54.1622 994.093 55.836 994.545 57.377L1036.6 204.09C1036.97 205.552 1038.3 206.508 1039.76 206.508ZM1039.1 120.106L1037.1 181.905L1006.19 74.1154L1039.1 120.106Z" fill="#191919"/>
<path d="M958.717 270.22C959.462 270.22 960.207 269.955 960.819 269.476C998.827 238.364 1015.45 225.292 1041.73 205.87C1042.53 205.286 1043.01 204.383 1043.06 203.373C1043.11 202.363 1042.71 201.433 1042 200.743C998.88 160.863 976.485 139.714 933.024 97.868C931.96 96.8318 930.311 96.6458 929.034 97.3897C927.757 98.1602 927.119 99.6747 927.518 101.109C944.009 162.776 949.727 196.917 955.393 267.138C955.499 268.36 956.27 269.45 957.414 269.928C957.84 270.114 958.265 270.22 958.717 270.22ZM1034.55 202.921C1011.12 220.297 994.704 233.21 961.51 260.31C956.324 198.139 950.818 164.237 936.96 110.887C974.118 146.595 996.167 167.372 1034.55 202.921Z" fill="#191919"/>
<path d="M958.717 270.22C959.196 270.22 959.648 270.114 960.1 269.928C961.377 269.344 962.148 268.042 962.042 266.633C956.324 195.934 950.552 161.554 933.955 99.4089C933.689 98.3727 932.917 97.5225 931.907 97.1506C859.64 70.2097 821.313 59.2368 745.535 43.8269C744.126 43.5346 742.663 44.1988 741.971 45.4741C741.28 46.7494 741.466 48.317 742.477 49.3797C827.829 138.518 875.439 187.193 956.377 269.237C956.988 269.875 957.84 270.22 958.717 270.22ZM927.944 102.783C943.37 160.703 949.249 194.446 954.648 258.025C879.908 182.251 833.175 134.427 754.632 52.4617C822.696 66.6229 860.465 77.6756 927.944 102.783Z" fill="#191919"/>
<path d="M1121.92 291.502C1123.12 291.502 1124.26 290.838 1124.85 289.748C1125.54 288.473 1125.3 286.906 1124.29 285.869C1092.37 253.057 1075.56 235.76 1042.13 200.902C1040.96 199.706 1039.1 199.547 1037.74 200.53C1011.35 220.005 994.678 233.13 956.563 264.322C955.526 265.172 955.1 266.58 955.499 267.882C955.898 269.184 957.042 270.087 958.398 270.22C1028.38 276.145 1061.86 280.529 1121.28 291.475C1121.52 291.475 1121.71 291.502 1121.92 291.502ZM1039.39 207.597C1068.91 238.391 1085.48 255.475 1112.29 283.026C1061.04 273.78 1027.98 269.529 967.149 264.269C999.705 237.7 1015.9 225 1039.39 207.597Z" fill="#191919"/>
<path d="M744.844 50.3894C746.28 50.3894 747.557 49.4595 748.009 48.0779C748.488 46.5369 747.796 44.8365 746.333 44.1191C656.246 -1.15425 604.327 -24.6411 515.889 -52.8307C515.011 -53.0964 514.081 -53.0167 513.256 -52.565C512.458 -52.1134 511.873 -51.3694 511.66 -50.4661C503.601 -18.796 499.106 -1.41992 490.967 30.0376L489.158 36.9721C488.892 38.0083 489.132 39.0976 489.823 39.9212C490.515 40.7449 491.525 41.1965 492.616 41.1168C592.863 34.1824 646.964 36.175 744.365 50.3894C744.525 50.3894 744.684 50.3894 744.844 50.3894ZM517.246 -45.4446C596.215 -20.1244 643.905 0.493027 725.161 40.9309C640.873 29.4531 587.597 28.0184 496.765 34.1292L497.404 31.6583C505.25 1.34322 509.718 -15.9 517.246 -45.4446Z" fill="#191919"/>
<path d="M958.717 270.22C959.648 270.22 960.553 269.848 961.218 269.104C962.361 267.803 962.308 265.81 961.085 264.588C880.174 182.57 832.59 133.922 747.264 44.8099C746.2 43.694 744.525 43.4549 743.195 44.252C741.865 45.0225 741.253 46.6166 741.705 48.0779C750.163 75.8689 754.419 90.1895 763.037 120.212C763.223 120.903 763.648 121.488 764.207 121.939C793.092 144.071 816.738 162.297 839.053 179.461C876.849 208.554 909.458 233.688 956.723 269.583C957.308 269.981 957.999 270.22 958.717 270.22ZM752.078 59.4228C819.717 129.99 863.843 175.29 923.528 235.92C894.537 213.761 870.146 194.977 843.096 174.174C821.02 157.17 797.587 139.129 769.101 117.29C762.132 93.0324 758.01 79.0572 752.078 59.4228Z" fill="#191919"/>
<path d="M766.202 122.577C767.026 122.577 767.824 122.285 768.463 121.7C769.394 120.85 769.766 119.548 769.394 118.353C760.776 88.2766 756.494 73.956 748.036 46.1118C747.663 44.8896 746.599 43.9863 745.323 43.8003C647.363 29.5062 592.97 27.5136 492.164 34.4746C490.515 34.5809 489.185 35.9093 489.078 37.5832C488.972 39.257 490.116 40.7183 491.738 41.0637C599.539 62.9299 660.608 82.9362 765.032 122.391C765.404 122.497 765.803 122.577 766.202 122.577ZM742.29 50.044C749.738 74.5405 753.94 88.6486 761.175 113.809C668.029 78.7118 608.929 59.2103 517.086 39.5227C601.641 34.6075 654.358 37.3175 742.29 50.044Z" fill="#191919"/>
<path d="M514.905 -46.3745C515.836 -46.3745 516.74 -46.773 517.379 -47.4638C518.336 -48.5266 518.496 -50.0676 517.804 -51.3163C499.771 -83.2787 492.19 -97.5196 479.131 -123.982C478.492 -125.284 477.056 -126.028 475.62 -125.789C433.648 -119.067 412.45 -113.62 372.5 -99.3263C371.09 -98.8214 370.186 -97.4133 370.319 -95.9254C370.452 -94.4376 371.569 -93.1888 373.058 -92.9232C420.642 -84.554 449.873 -74.0327 513.575 -46.6136C514.001 -46.4542 514.453 -46.3745 514.905 -46.3745ZM474.237 -118.854C485.488 -96.0849 492.855 -82.1096 507.165 -56.6035C454.395 -79.1073 425.669 -89.4426 386.411 -97.2007C418.328 -108.2 438.144 -112.983 474.237 -118.854Z" fill="#191919"/>
<path d="M273.077 -11.4098C273.21 -11.4098 273.343 -11.4098 273.476 -11.4364L368.271 -22.8079C369.893 -22.9939 371.117 -24.3489 371.197 -25.9696C372.42 -55.8064 373.537 -69.516 376.915 -95.766C377.075 -97.0945 376.436 -98.4229 375.24 -99.0871C374.069 -99.7514 372.606 -99.6451 371.542 -98.7949C331.619 -67.0185 310.075 -49.3502 270.949 -17.2816C269.805 -16.3517 269.433 -14.7575 269.992 -13.4025C270.55 -12.2069 271.774 -11.4098 273.077 -11.4098ZM364.68 -29.0781L284.009 -19.3805C315.74 -45.3914 336.353 -62.2361 369.308 -88.5127C366.781 -67.7624 365.718 -54.106 364.68 -29.0781Z" fill="#191919"/>
<path d="M367.872 -22.7813C368.138 -22.7813 368.43 -22.8079 368.696 -22.8876C425.643 -37.4739 455.751 -42.3094 515.118 -46.3745C516.661 -46.4808 517.911 -47.6232 518.177 -49.1376C518.443 -50.6521 517.618 -52.1399 516.208 -52.751C451.974 -80.3826 422.451 -91.0102 374.202 -99.4857C373.298 -99.6451 372.394 -99.4325 371.649 -98.9011C370.904 -98.3698 370.425 -97.5461 370.319 -96.6428C366.914 -70.1271 365.771 -56.3378 364.547 -26.2618C364.494 -25.1991 364.973 -24.216 365.771 -23.5518C366.383 -23.047 367.127 -22.7813 367.872 -22.7813ZM501.021 -52.0071C451.283 -48.1812 421.6 -43.1596 371.383 -30.4332C372.473 -55.9924 373.617 -69.5425 376.49 -92.3121C418.887 -84.6337 447.24 -74.8563 501.021 -52.0071Z" fill="#191919"/>
<path d="M492.403 41.0903C492.855 41.0903 493.281 41.0106 493.706 40.8246C494.664 40.4261 495.356 39.6024 495.622 38.5928L497.404 31.6583C505.543 0.20076 510.038 -17.2019 518.097 -48.872C518.363 -49.9081 518.123 -50.9975 517.432 -51.8211C516.74 -52.6447 515.73 -53.0698 514.639 -53.0167C454.794 -48.9251 424.446 -44.063 367.021 -29.3438C365.638 -28.9984 364.654 -27.8028 364.521 -26.3947C364.414 -24.9865 365.212 -23.6581 366.489 -23.0736C409.285 -4.34251 435.032 9.26076 490.728 40.6652C491.259 40.9574 491.845 41.0903 492.403 41.0903ZM510.543 -46.0556C503.175 -17.1487 498.734 0.0413513 490.994 30.011L490.275 32.7742C440.803 4.90346 415.11 -8.69981 378.032 -25.2256C427.717 -37.6599 457.4 -42.2829 510.543 -46.0556Z" fill="#191919"/>
<path d="M225.892 161.872C226.557 161.872 227.196 161.686 227.781 161.288L241.904 151.59C266.108 134.985 282.253 123.905 310.075 104.962C310.58 104.616 310.979 104.138 311.245 103.58C335.529 49.858 347.737 24.0331 370.877 -24.6943C371.595 -26.2353 371.064 -28.0685 369.601 -28.9719C368.138 -29.8486 366.249 -29.4767 365.212 -28.1217C314.516 39.2836 284.354 78.0476 234.377 142.238L223.286 156.479C222.275 157.781 222.355 159.614 223.498 160.783C224.137 161.5 225.015 161.872 225.892 161.872ZM305.553 99.9935C279.54 117.715 263.768 128.528 241.665 143.699C283.716 89.6582 311.857 53.4979 350.876 1.92775C335.821 33.7573 324.278 58.5726 305.553 99.9935Z" fill="#191919"/>
<path d="M308.213 105.546C308.638 105.546 309.064 105.467 309.463 105.307C382.9 75.6298 419.765 62.1594 493.334 40.984C494.611 40.612 495.568 39.4961 495.728 38.1677C495.888 36.8392 495.223 35.5374 494.052 34.8997C438.144 3.36246 412.29 -10.2939 369.228 -29.1313C367.579 -29.8486 365.664 -29.1313 364.893 -27.5106C341.726 21.2699 329.491 47.0948 305.207 100.87C304.649 102.119 304.888 103.554 305.846 104.537C306.458 105.174 307.309 105.546 308.213 105.546ZM483.865 36.7861C417.53 56.0751 380.799 69.3861 314.65 96.0347C336.247 48.3436 348.323 22.8109 369.495 -21.7717C408.78 -4.50192 434.127 8.7825 483.865 36.7861Z" fill="#191919"/>
<path d="M661.991 213.31C662.763 213.31 663.561 213.044 664.172 212.486L665.529 211.29C709.043 173.217 730.88 154.114 768.356 121.753C769.234 120.983 769.66 119.814 769.447 118.671C769.234 117.529 768.436 116.572 767.345 116.147C662.576 76.5597 601.295 56.4736 493.042 34.5012C491.605 34.2089 490.169 34.8997 489.451 36.175C488.759 37.4503 488.972 39.0444 489.983 40.0806C519.905 70.7677 544.189 95.3173 569.936 121.302C596.188 147.791 623.318 175.183 659.571 212.3C660.263 212.964 661.14 213.31 661.991 213.31ZM759.792 120.398C725.108 150.368 703.351 169.391 662.178 205.419C626.989 169.418 600.417 142.583 574.697 116.626C551.185 92.873 528.842 70.3426 502.324 43.1892C601.907 63.8598 661.965 83.5207 759.792 120.398Z" fill="#191919"/>
<path d="M388.911 233.794C388.964 233.794 389.017 233.794 389.07 233.794C390.241 233.741 391.305 233.077 391.837 232.041C410.535 197.076 425.084 170.135 439.181 144.045C456.789 111.445 473.439 80.6248 495.356 39.3367C495.967 38.1677 495.834 36.733 495.01 35.6968C494.159 34.6606 492.802 34.2355 491.499 34.6075C417.637 55.8625 380.666 69.3861 306.963 99.1698C306.059 99.5418 305.367 100.259 305.074 101.163C304.755 102.066 304.862 103.075 305.34 103.899C331.726 149.093 348.642 175.608 386.145 232.306C386.757 233.236 387.794 233.794 388.911 233.794ZM485.78 43.1361C465.646 80.9967 449.927 110.143 433.303 140.883C419.897 165.725 406.04 191.364 388.592 223.99C354.201 171.942 337.497 145.719 313.001 103.846C381.597 76.1878 418.302 62.7705 485.78 43.1361Z" fill="#191919"/>
<path d="M582.011 322.853C583.049 322.853 584.059 322.348 584.698 321.498C618.052 276.305 634.622 253.748 664.704 211.928C665.635 210.626 665.502 208.82 664.385 207.677C628.106 170.534 600.949 143.141 574.724 116.626C549.003 90.6678 524.693 66.1181 494.797 35.4577C493.733 34.3683 492.084 34.1292 490.754 34.8997C489.424 35.6436 488.812 37.2112 489.211 38.6725C514.479 129.326 533.497 185.838 565.015 279.44C569.378 292.379 573.979 306.035 578.846 320.595C579.245 321.764 580.256 322.641 581.479 322.827C581.666 322.827 581.852 322.853 582.011 322.853ZM657.656 210.307C629.781 249.071 613.37 271.416 583.129 312.412C578.979 300.11 575.069 288.447 571.319 277.314C541.317 188.202 522.645 132.753 499.132 49.4063C524.986 75.8689 546.902 98.0008 569.989 121.302C595.736 147.313 622.36 174.2 657.656 210.307Z" fill="#191919"/>
<path d="M582.011 322.853C582.809 322.853 583.581 322.561 584.219 322.03C585.23 321.153 585.602 319.745 585.177 318.496C580.283 303.936 575.681 290.28 571.346 277.341C539.854 183.818 520.863 127.386 495.622 36.8924C495.249 35.5905 494.132 34.634 492.776 34.4746C491.419 34.3152 490.116 35.0326 489.477 36.2281C467.561 77.5162 450.937 108.31 433.329 140.91C419.232 167 404.683 193.968 385.985 228.932C385.559 229.756 385.48 230.712 385.772 231.589C386.065 232.466 386.73 233.183 387.581 233.555C458.464 264.349 496.818 282.415 580.575 322.561C581.027 322.747 581.533 322.853 582.011 322.853ZM491.446 46.6697C515.623 132.7 534.454 188.601 565.015 279.44C568.633 290.147 572.383 301.332 576.346 313.129C498.627 275.906 460.433 257.945 393.539 228.853C411.413 195.429 425.51 169.312 439.181 144.045C455.725 113.384 471.417 84.3444 491.446 46.6697Z" fill="#191919"/>
<path d="M388.911 233.794C389.842 233.794 390.773 233.396 391.411 232.678C392.395 231.563 392.528 229.915 391.677 228.64C354.254 172.048 337.364 145.612 311.085 100.551C310.633 99.7543 309.835 99.1964 308.958 98.9839C308.053 98.7713 307.122 98.9573 306.351 99.4887C278.503 118.459 262.385 129.512 238.154 146.144L224.03 155.841C222.993 156.532 222.461 157.754 222.621 159.003C222.78 160.225 223.605 161.288 224.775 161.713C281.056 182.437 314.756 197.794 387.475 233.502C387.9 233.688 388.406 233.794 388.911 233.794ZM307.122 106.955C330.874 147.578 347.285 173.456 379.389 222.104C316.352 191.284 283.237 176.326 233.047 157.648L241.878 151.59C265.257 135.569 281.083 124.703 307.122 106.955Z" fill="#191919"/>
<path d="M958.717 270.22C959.967 270.22 961.164 269.503 961.723 268.334C962.388 266.926 961.989 265.225 960.739 264.269C913.501 228.374 880.865 203.267 843.096 174.174C820.781 156.984 797.109 138.757 768.223 116.626C766.973 115.669 765.218 115.722 764.021 116.758C726.518 149.119 704.681 168.249 661.167 206.322L659.81 207.518C658.826 208.368 658.454 209.723 658.826 210.972C659.199 212.22 660.263 213.124 661.539 213.31C783.012 230.394 842.086 242.482 957.946 270.141C958.212 270.194 958.451 270.22 958.717 270.22ZM766.335 123.533C794.236 144.921 817.296 162.669 839.027 179.408C873.391 205.87 903.474 229.038 944.195 260.018C840.171 235.362 781.23 223.539 669.652 207.73C709.681 172.686 731.252 153.822 766.335 123.533Z" fill="#191919"/>
<path d="M1142.64 415.977C1143.23 415.977 1143.81 415.818 1144.34 415.499C1145.51 414.808 1146.13 413.453 1145.91 412.098L1125.19 287.623C1124.95 286.241 1123.89 285.152 1122.51 284.913C1062.82 273.913 1029.2 269.529 958.983 263.578C957.547 263.445 956.164 264.295 955.632 265.65C955.1 267.005 955.499 268.546 956.616 269.476C1037.98 335.527 1075.8 365.496 1140.62 415.286C1141.21 415.738 1141.92 415.977 1142.64 415.977ZM1119.02 291.024L1137.99 404.871C1079.45 359.837 1042.08 330.213 969.223 271.124C1031.14 276.544 1064.12 280.954 1119.02 291.024Z" fill="#191919"/>
<path d="M791.842 383.404C792.507 383.404 793.172 383.218 793.757 382.793C870.04 328.725 902.968 306.088 960.499 269.689C961.616 268.972 962.228 267.643 961.989 266.341C961.75 265.039 960.792 263.977 959.489 263.658C843.389 235.92 784.209 223.804 662.47 206.694C661.14 206.508 659.81 207.146 659.145 208.315C658.454 209.484 658.56 210.945 659.385 212.008L668.96 224.389C714.23 283 741.546 318.363 789.209 382.049C789.821 382.952 790.831 383.404 791.842 383.404ZM950.286 268.307C894.217 303.936 859.348 328.167 792.56 375.513C746.067 313.421 718.858 278.191 674.2 220.35L669.625 214.426C783.038 230.526 841.953 242.509 950.286 268.307Z" fill="#191919"/>
<path d="M791.842 383.404C792.906 383.404 793.944 382.899 794.555 381.996C795.38 380.826 795.353 379.259 794.502 378.117C746.839 314.378 719.496 278.988 674.2 220.377L664.624 207.996C663.986 207.172 663.002 206.721 661.938 206.694C660.874 206.721 659.917 207.225 659.305 208.076C629.249 249.869 612.679 272.425 579.352 317.566C578.687 318.443 578.527 319.585 578.9 320.621C579.272 321.658 580.123 322.455 581.16 322.747C660.395 344.241 702.819 356.941 773.117 377.957L790.911 383.271C791.204 383.351 791.523 383.404 791.842 383.404ZM662.098 215.542L668.933 224.389C712.261 280.476 739.152 315.281 783.145 373.998L775.006 371.554C706.064 350.937 663.906 338.316 587.57 317.566C618.078 276.251 634.489 253.907 662.098 215.542Z" fill="#191919"/>
<path d="M282.838 459.311C283.317 459.311 283.769 459.205 284.222 459.019C323.826 440.952 357.18 425.462 389.416 410.477C448.171 383.165 503.654 357.366 583.341 322.588C584.538 322.056 585.31 320.914 585.336 319.612C585.363 318.31 584.618 317.114 583.448 316.556C499.611 276.384 461.231 258.291 390.241 227.444C388.618 226.754 386.73 227.418 385.932 229.012C341.035 319.213 317.761 366.479 279.78 454.688C279.248 455.937 279.514 457.425 280.498 458.381C281.163 458.992 281.987 459.311 282.838 459.311ZM574.032 319.399C497.802 352.77 443.756 377.904 386.597 404.446C356.515 418.421 325.475 432.848 289.302 449.374C324.836 367.17 346.753 322.587 390.454 234.777C457.666 264.003 495.887 281.937 574.032 319.399Z" fill="#191919"/>
<path d="M282.838 459.311C283.051 459.311 283.237 459.284 283.45 459.258C284.541 459.045 285.445 458.328 285.897 457.292C323.879 369.056 345.849 324.447 391.89 231.935C392.555 230.579 392.236 228.959 391.118 227.976C390.001 226.993 388.352 226.86 387.076 227.683C346.647 254.252 315.953 274.631 286.296 294.318C255.709 314.617 226.823 333.826 188.522 358.96C187.698 359.518 187.139 360.395 187.033 361.378C186.926 362.361 187.272 363.344 187.964 364.062C218.472 394.881 236.984 413.825 267.651 445.203L280.445 458.301C281.083 458.966 281.961 459.311 282.838 459.311ZM380.453 240.011C339.811 321.684 317.017 368.419 281.748 450.118L272.412 440.58C242.702 410.185 224.403 391.454 195.544 362.308C232.196 338.237 260.283 319.585 289.967 299.871C317.07 281.884 345.024 263.312 380.453 240.011Z" fill="#191919"/>
<path d="M890.866 493.16C891.079 493.16 891.292 493.133 891.478 493.107C892.622 492.894 893.579 492.097 893.978 491.008C928.21 398.707 943.61 351.069 961.962 267.617C962.255 266.315 961.723 264.96 960.632 264.189C959.542 263.419 958.079 263.392 956.935 264.109C896.106 302.581 861.077 326.945 789.901 377.399C789.129 377.957 788.624 378.807 788.517 379.764C788.411 380.72 788.73 381.65 789.369 382.367C819.797 415.658 839.213 437.312 861.715 462.393C869.88 471.506 878.551 481.151 888.393 492.097C889.031 492.761 889.935 493.16 890.866 493.16ZM953.744 273.966C936.561 350.751 921.401 397.751 889.669 483.515C881.318 474.216 873.817 465.847 866.689 457.903C844.825 433.513 825.834 412.364 796.843 380.614C867.939 330.239 901.027 307.47 953.744 273.966Z" fill="#191919"/>
<path d="M1142.64 415.977C1144.02 415.977 1145.27 415.1 1145.75 413.798C1146.26 412.443 1145.81 410.902 1144.66 410.026C1079.92 360.289 1042.1 330.319 960.792 264.322C959.622 263.366 957.919 263.339 956.722 264.242C955.499 265.146 955.047 266.766 955.632 268.174C978.639 324.235 989.198 352.398 1006.38 408.671C1006.81 410.026 1008.03 410.982 1009.47 411.009C1064.87 412.736 1092.21 413.745 1142.51 415.977C1142.54 415.977 1142.59 415.977 1142.64 415.977ZM966.697 277.66C1037.82 335.341 1075.06 364.859 1132.27 408.883C1089.07 406.997 1061.97 405.987 1012.05 404.446C996.46 353.54 986.193 325.537 966.697 277.66Z" fill="#191919"/>
<path d="M890.866 493.16C891.531 493.16 892.196 492.947 892.781 492.549L910.762 479.902C949.275 452.828 972.548 436.462 1011.41 410.424C1012.63 409.601 1013.16 408.086 1012.74 406.705C995.476 350.193 984.863 321.897 961.776 265.624C961.218 264.269 959.861 263.445 958.425 263.578C956.989 263.711 955.765 264.747 955.473 266.182C937.226 349.263 921.879 396.688 887.754 488.67C887.249 490.025 887.701 491.566 888.845 492.442C889.43 492.921 890.148 493.16 890.866 493.16ZM1005.66 406.306C967.947 431.6 944.807 447.86 906.931 474.482L897.675 480.991C927.944 398.893 942.945 352.185 959.648 277.978C979.623 326.971 989.917 354.922 1005.66 406.306Z" fill="#191919"/>
<path d="M890.866 493.16C891.85 493.16 892.834 492.708 893.473 491.884C894.484 490.609 894.404 488.802 893.34 487.607C883.498 476.66 874.828 467.016 866.662 457.903C844.16 432.822 824.717 411.142 794.289 377.851C793.89 377.399 793.358 377.08 792.8 376.921L775.006 371.607C704.654 350.565 662.204 337.865 582.889 316.344C581.267 315.919 579.565 316.742 578.926 318.337C578.314 319.904 578.953 321.684 580.442 322.481C648.134 358.642 698.75 387.07 747.69 414.569C792.667 439.836 835.117 463.695 889.297 492.761C889.802 493.027 890.334 493.16 890.866 493.16ZM790.007 383.005C820.089 415.897 839.399 437.445 861.742 462.34C866.183 467.308 870.785 472.436 875.652 477.856C829.345 452.802 791.151 431.334 750.961 408.777C708.405 384.865 664.598 360.262 609.381 330.478C671.46 347.562 711.623 359.598 773.091 377.984L790.007 383.005Z" fill="#191919"/>
<path d="M282.838 459.311C388.459 459.125 443.117 458.859 553.738 458.142C555.307 458.142 556.664 457.026 556.983 455.485C564.111 421.131 569.058 397.565 574.484 371.634C577.729 356.224 581.134 339.99 585.257 320.196C585.523 318.974 585.07 317.725 584.086 316.928C583.129 316.158 581.799 315.972 580.655 316.45C500.914 351.282 445.378 377.08 386.597 404.42C354.36 419.405 321.033 434.894 281.455 452.934C280.019 453.572 279.248 455.14 279.594 456.654C279.939 458.222 281.269 459.311 282.838 459.311ZM550.998 451.526C447.612 452.19 393.167 452.456 298.159 452.642C331.779 437.259 361.01 423.656 389.39 410.477C446.682 383.855 500.888 358.668 577.41 325.165C573.846 342.169 570.84 356.569 567.941 370.305C562.675 395.546 557.834 418.581 550.998 451.526Z" fill="#191919"/>
<path d="M890.866 493.16C892.329 493.16 893.632 492.203 894.058 490.795C894.51 489.281 893.845 487.66 892.436 486.916C838.335 457.876 795.885 434.017 750.935 408.777C701.968 381.252 651.326 352.796 583.554 316.61C582.623 316.105 581.533 316.078 580.575 316.53C579.618 316.981 578.953 317.832 578.74 318.868C574.591 338.662 571.186 354.895 567.968 370.305C562.515 396.21 557.568 419.803 550.466 454.157C550.28 455.06 550.493 456.016 551.025 456.787C551.584 457.557 552.408 458.036 553.339 458.142L604.966 463.881C714.655 476.076 780.884 483.409 890.574 493.16C890.68 493.133 890.786 493.16 890.866 493.16ZM584.352 324.554C650.102 359.731 699.707 387.575 747.69 414.542C788.624 437.551 827.51 459.391 875.041 485.056C774.82 476.023 709.868 468.796 605.684 457.212L557.701 451.898C564.43 419.458 569.218 396.635 574.484 371.634C577.49 357.393 580.628 342.408 584.352 324.554Z" fill="#191919"/>
<path d="M324.198 604.324C324.65 604.324 325.129 604.218 325.555 604.032C327.097 603.341 327.869 601.614 327.363 600.02C309.17 541.967 300.659 512.9 286.057 455.193C285.924 454.635 285.631 454.103 285.206 453.678L272.412 440.58C241.745 409.202 223.233 390.258 192.698 359.412C191.554 358.243 189.719 358.084 188.389 359.067C187.059 360.023 186.634 361.803 187.379 363.264C230.361 447.727 259.166 499.191 321.326 602.703C321.964 603.739 323.054 604.324 324.198 604.324ZM279.833 457.664C291.935 505.514 299.888 533.704 312.734 575.417C264.699 494.913 237.595 446.478 203.071 379.365C225.36 401.949 242.383 419.351 267.651 445.203L279.833 457.664Z" fill="#191919"/>
<path d="M324.198 604.324C324.81 604.324 325.395 604.164 325.927 603.846C395.933 561.017 441.069 531.764 509.373 487.501C523.602 478.281 538.817 468.424 555.52 457.637C556.77 456.84 557.329 455.299 556.903 453.891C556.477 452.483 555.174 451.526 553.711 451.526H553.685C443.064 452.244 388.432 452.509 282.838 452.695C281.828 452.695 280.844 453.174 280.232 453.971C279.594 454.768 279.381 455.83 279.62 456.813C294.249 514.681 302.787 543.827 321.006 601.986C321.325 602.969 322.044 603.739 323.001 604.111C323.4 604.244 323.799 604.324 324.198 604.324ZM542.354 458.222C529.348 466.644 517.219 474.482 505.755 481.921C438.675 525.388 393.938 554.374 326.087 595.955C309.197 541.94 300.739 513.007 287.121 459.311C386.304 459.125 440.67 458.859 542.354 458.222Z" fill="#191919"/>
<path d="M563.792 568.722C564.005 568.722 564.244 568.695 564.484 568.642C673.561 545.899 739.95 529.798 823.999 509.42C845.011 504.319 867.247 498.925 891.664 493.053C893.26 492.681 894.324 491.194 894.191 489.573C894.084 487.952 892.781 486.65 891.159 486.517C781.522 476.767 715.347 469.434 605.684 457.239L554.057 451.526C553.073 451.42 552.089 451.765 551.371 452.456C550.653 453.147 550.307 454.13 550.387 455.113C554.057 495.976 556.079 518.002 559.43 554.534L560.467 565.693C560.547 566.623 561.026 567.499 561.797 568.057C562.409 568.482 563.1 568.722 563.792 568.722ZM870.439 491.326C853.549 495.418 837.644 499.271 822.403 502.964C739.365 523.103 673.561 539.071 566.771 561.389L566.079 553.949C562.834 518.639 560.813 496.879 557.382 458.567L604.965 463.854C707.793 475.279 772.399 482.452 870.439 491.326Z" fill="#191919"/>
<path d="M468.412 628.342C469.024 628.342 469.609 628.183 470.167 627.837C505.436 606.024 524.853 593.803 560.148 571.644L565.601 568.217C566.664 567.553 567.25 566.357 567.143 565.108L566.106 553.949C562.755 517.417 560.706 495.391 557.063 454.529C556.93 453.041 555.839 451.845 554.376 451.553C552.913 451.261 551.45 452.005 550.786 453.306C543.524 467.654 537.008 480.513 530.97 492.469C507.724 538.353 490.94 571.511 465.459 623.533C464.821 624.862 465.114 626.456 466.204 627.465C466.789 628.05 467.587 628.342 468.412 628.342ZM560.308 563.673L556.584 566.012C524.746 586.018 505.808 597.921 476.471 616.12C499.159 569.917 515.224 538.247 536.875 495.498C541.423 486.491 546.264 476.979 551.45 466.697C554.483 500.466 556.424 521.615 559.456 554.56L560.308 563.673Z" fill="#191919"/>
<path d="M468.412 628.342C469.662 628.342 470.832 627.625 471.391 626.482C496.845 574.487 513.628 541.356 536.875 495.498C542.913 483.542 549.456 470.682 556.69 456.335C557.355 455.007 557.063 453.36 555.946 452.377C554.828 451.393 553.179 451.234 551.929 452.058C535.252 462.845 520.012 472.728 505.782 481.921C437.505 526.158 392.395 555.384 322.469 598.187C321.299 598.904 320.687 600.285 320.927 601.614C321.166 602.942 322.23 604.032 323.587 604.271C379.894 614.606 408.647 619.548 467.907 628.316C468.066 628.316 468.226 628.342 468.412 628.342ZM545.2 464.279C540.12 474.349 535.385 483.675 530.917 492.495C507.99 537.742 491.366 570.608 466.47 621.381C411.945 613.278 383.325 608.442 333.321 599.302C399.178 558.891 443.49 530.17 509.373 487.501C520.623 480.194 532.486 472.516 545.2 464.279Z" fill="#191919"/>
<path d="M1040.4 547.413C1041.17 547.413 1041.94 547.148 1042.55 546.616C1043.43 545.872 1043.86 544.73 1043.67 543.587C1035.59 491.592 1029.23 463.456 1012.74 406.758C1012.45 405.748 1011.67 404.924 1010.69 404.553C1009.71 404.181 1008.59 404.313 1007.71 404.924C968.771 431.015 945.498 447.355 906.931 474.482L888.951 487.102C887.94 487.793 887.408 488.988 887.568 490.211C887.728 491.433 888.499 492.469 889.643 492.921C953.93 518.294 984.57 529.718 1039.39 547.281C1039.73 547.36 1040.05 547.413 1040.4 547.413ZM1007.63 412.975C1022.53 464.572 1028.83 492.283 1036.28 539.283C986.432 523.209 956.111 511.97 897.808 488.988L910.735 479.902C948.025 453.705 971.006 437.551 1007.63 412.975Z" fill="#191919"/>
<path d="M1040.4 547.413C1041.38 547.413 1042.34 546.962 1042.98 546.191C1087.77 491.034 1109.77 462.738 1145.3 414.622C1146.02 413.639 1146.15 412.337 1145.62 411.221C1145.09 410.105 1144 409.388 1142.77 409.335C1092.45 407.103 1065.08 406.094 1009.65 404.367C1008.54 404.34 1007.58 404.818 1006.91 405.642C1006.25 406.466 1006.06 407.581 1006.35 408.591C1022.74 464.997 1029.07 492.947 1037.1 544.597C1037.31 545.899 1038.25 546.962 1039.52 547.307C1039.81 547.387 1040.11 547.413 1040.4 547.413ZM1136.26 415.685C1104.13 459.045 1082.58 486.757 1042.53 536.201C1035.16 490.104 1028.8 462.287 1014.04 411.142C1064.15 412.709 1091.23 413.719 1136.26 415.685Z" fill="#191919"/>
<path d="M359.307 746.653C360.238 746.653 361.116 746.255 361.754 745.564C401.305 702.151 423.674 677.946 470.832 627.279C471.683 626.376 471.949 625.074 471.524 623.932C471.125 622.763 470.088 621.939 468.864 621.753C409.684 612.985 380.985 608.07 324.757 597.735C323.666 597.549 322.549 597.894 321.751 598.691C320.953 599.488 320.661 600.631 320.9 601.72C333.88 660.145 341.061 688.547 356.036 744.209C356.355 745.378 357.286 746.281 358.456 746.574C358.776 746.627 359.042 746.653 359.307 746.653ZM461.656 627.386C418.993 673.27 396.81 697.235 360.93 736.61C347.445 686.395 340.343 658.179 328.534 605.174C379.655 614.526 408.247 619.415 461.656 627.386Z" fill="#191919"/>
<path d="M475.407 796.603C476.099 796.603 476.764 796.39 477.349 795.992C478.28 795.328 478.785 794.238 478.732 793.096C475.061 727.869 473.625 693.303 471.737 624.941C471.71 623.586 470.859 622.391 469.582 621.939C468.305 621.461 466.896 621.806 465.965 622.789C418.78 673.483 396.411 697.687 356.834 741.127C356.116 741.924 355.823 742.987 356.036 744.023C356.249 745.059 356.94 745.936 357.924 746.388C404.923 767.669 428.329 777.898 474.157 796.39C474.556 796.523 474.982 796.603 475.407 796.603ZM465.3 633.231C467.029 694.605 468.465 728.826 471.79 788.234C430.536 771.548 407.37 761.426 364.84 742.19C400.96 702.576 423.062 678.637 465.3 633.231Z" fill="#191919"/>
<path d="M475.407 796.603C475.833 796.603 476.285 796.523 476.711 796.337C533.55 772.399 563.5 758.822 622.361 730.234C623.425 729.702 624.143 728.64 624.222 727.471C624.302 726.302 623.717 725.133 622.733 724.468C566.904 688.016 533.683 666.043 470.3 622.284C469.263 621.567 467.933 621.487 466.816 622.098C465.726 622.683 465.034 623.852 465.087 625.101C466.976 693.542 468.439 728.135 472.109 793.441C472.162 794.53 472.747 795.487 473.678 796.071C474.184 796.417 474.795 796.603 475.407 796.603ZM614.168 726.806C560.361 752.897 530.704 766.341 478.466 788.366C475.115 728.215 473.678 693.941 471.896 631.451C530.039 671.57 562.781 693.25 614.168 726.806Z" fill="#191919"/>
<path d="M820.462 689.557C820.914 689.557 821.339 689.477 821.765 689.291C822.589 688.946 823.228 688.282 823.574 687.458C854.135 609.93 869.056 570.449 894.058 490.822C894.404 489.679 894.138 488.43 893.313 487.554C892.489 486.677 891.265 486.305 890.095 486.597C865.678 492.469 843.442 497.862 822.403 502.964C738.434 523.342 672.099 539.443 563.1 562.133C561.717 562.425 560.654 563.567 560.494 564.949C560.308 566.357 561.052 567.712 562.303 568.35L571.718 573.026C676.806 625.34 729.577 651.59 819.185 689.265C819.584 689.477 820.036 689.557 820.462 689.557ZM885.946 494.435C862.407 569.067 847.565 608.389 818.626 681.852C731.119 644.974 678.429 618.751 574.697 567.101L573.846 566.676C677.418 544.969 742.37 529.214 823.973 509.393C843.336 504.717 863.736 499.775 885.946 494.435Z" fill="#191919"/>
<path d="M820.462 689.557C821.1 689.557 821.712 689.371 822.27 689.025C847.299 672.765 868.896 658.684 888.818 645.692C940.764 611.816 981.778 585.062 1042.18 546.935C1043.27 546.244 1043.86 544.996 1043.7 543.72C1043.54 542.445 1042.63 541.382 1041.41 540.984C986.778 523.475 956.217 512.103 892.09 486.783C891.239 486.438 890.281 486.491 889.43 486.863C888.605 487.261 887.967 487.979 887.701 488.856C862.779 568.27 847.884 607.672 817.376 685.04C816.844 686.395 817.243 687.91 818.36 688.839C818.972 689.291 819.717 689.557 820.462 689.557ZM1032.63 545.102C975.448 581.262 935.418 607.379 885.201 640.139C867.62 651.59 848.735 663.918 827.377 677.813C854.986 607.592 869.668 568.27 892.994 494.249C952.361 517.656 982.868 529.028 1032.63 545.102Z" fill="#191919"/>
<path d="M620.898 730.553C621.616 730.553 622.334 730.313 622.946 729.862C624.063 728.985 624.515 727.524 624.063 726.169C604.699 668.992 593.289 637.376 572.596 579.96L566.931 564.258C566.585 563.302 565.84 562.558 564.882 562.239C563.925 561.92 562.888 562.026 562.036 562.558L556.584 565.985C521.315 588.143 501.899 600.365 466.656 622.178C465.699 622.763 465.114 623.799 465.087 624.915C465.061 626.031 465.593 627.093 466.523 627.731C529.959 671.543 563.207 693.516 619.089 729.995C619.621 730.393 620.259 730.553 620.898 730.553ZM562.063 570.395L566.319 582.192C585.868 636.446 597.119 667.664 614.647 719.181C564.75 686.581 532.087 664.901 474.476 625.154C507.059 604.962 526.316 592.873 560.121 571.618L562.063 570.395Z" fill="#191919"/>
<path d="M620.898 730.553C621.084 730.553 621.243 730.526 621.43 730.499C703.218 717.295 743.062 708.66 821.259 689.451C822.643 689.105 823.68 687.91 823.786 686.475C823.893 685.04 823.095 683.712 821.765 683.154C732.369 645.559 679.679 619.335 574.697 567.101L565.281 562.425C564.058 561.814 562.595 562 561.584 562.903C560.574 563.806 560.201 565.241 560.653 566.516L566.319 582.219C586.985 639.581 598.396 671.198 617.732 728.294C618.211 729.676 619.488 730.553 620.898 730.553ZM809.929 685.386C739.072 702.708 699.415 711.131 623.132 723.512C604.3 668.009 592.943 636.472 572.569 579.96L569.723 572.043L571.718 573.026C673.163 623.533 725.826 649.757 809.929 685.386Z" fill="#191919"/>
<path d="M955.871 724.707C957.095 724.707 958.212 724.043 958.797 722.954C997.497 650.182 1015.16 614.34 1043.46 545.368C1044.02 544.039 1043.62 542.498 1042.53 541.568C1041.41 540.638 1039.84 540.532 1038.62 541.303C978.187 579.455 937.147 606.237 885.174 640.112C865.253 653.104 843.655 667.186 818.626 683.446C817.536 684.137 816.977 685.412 817.137 686.661C817.296 687.936 818.201 688.999 819.424 689.371C877.514 707.863 905.282 715.568 955.26 724.628C955.473 724.707 955.685 724.707 955.871 724.707ZM1033.35 552.488C1007.66 614.393 990.05 649.996 954.089 717.667C907.915 709.191 880.573 701.779 828.175 685.173C850.73 670.534 870.492 657.621 888.845 645.665C938.211 613.49 977.708 587.718 1033.35 552.488Z" fill="#191919"/>
<path d="M955.871 724.707C956.27 724.707 956.696 724.628 957.095 724.468C1019.15 700.025 1049.55 686.714 1104.02 661.474C1105.64 660.73 1106.39 658.817 1105.7 657.169C1090.48 620.903 1076.76 596.699 1043.25 542.339C1042.58 541.276 1041.38 540.691 1040.13 540.771C1038.88 540.877 1037.79 541.674 1037.31 542.817C1009.12 611.524 991.513 647.259 952.919 719.819C952.254 721.041 952.44 722.555 953.371 723.592C954.036 724.335 954.941 724.707 955.871 724.707ZM1098.33 656.824C1048.27 679.992 1018.35 693.117 963.053 715.01C997.763 649.571 1015.16 613.995 1041.01 551.425C1070.96 600.126 1084.29 623.772 1098.33 656.824Z" fill="#191919"/>
<path d="M1102.64 661.792C1102.77 661.792 1102.93 661.792 1103.06 661.766C1104.55 661.58 1105.72 660.411 1105.94 658.949L1125.17 523.74C1125.33 522.651 1124.93 521.535 1124.1 520.791C1123.28 520.047 1122.13 519.755 1121.04 520.047L1110.19 522.837C1085.32 529.214 1069.13 533.385 1039.6 540.877C1038.56 541.143 1037.74 541.86 1037.34 542.844C1036.94 543.827 1037.05 544.942 1037.58 545.846C1070.91 599.86 1084.53 623.905 1099.55 659.773C1100.09 661.022 1101.31 661.792 1102.64 661.792ZM1117.85 527.726L1100.99 646.303C1087.8 616.439 1074.05 592.421 1045.59 546.218C1072.4 539.39 1088.2 535.351 1111.81 529.267L1117.85 527.726Z" fill="#191919"/>
<path d="M1040.4 547.413C1040.67 547.413 1040.96 547.387 1041.22 547.307C1070.77 539.788 1086.97 535.643 1111.84 529.267L1122.69 526.477C1123.94 526.158 1124.9 525.149 1125.14 523.873L1145.94 413.267C1146.23 411.753 1145.43 410.238 1144 409.601C1142.59 408.99 1140.91 409.415 1140.01 410.663C1104.53 458.7 1082.58 486.916 1037.87 541.993C1036.97 543.109 1036.89 544.677 1037.66 545.872C1038.22 546.855 1039.28 547.413 1040.4 547.413ZM1118.97 520.579L1110.17 522.837C1088.17 528.496 1072.96 532.402 1049.28 538.407C1086.36 492.628 1107.56 465.448 1136.68 426.233L1118.97 520.579Z" fill="#191919"/>
<path d="M359.307 746.653C360.105 746.653 360.903 746.361 361.515 745.803C362.446 744.979 362.845 743.678 362.499 742.455C347.551 686.9 340.37 658.578 327.417 600.259C327.177 599.169 326.406 598.266 325.342 597.868C324.305 597.469 323.134 597.629 322.203 598.266C271.907 634.533 248.208 651.165 206.901 678.292C205.891 678.956 205.306 680.125 205.412 681.347C205.518 682.569 206.29 683.632 207.407 684.11C266.029 709.537 296.084 722.29 358.057 746.388C358.483 746.574 358.882 746.653 359.307 746.653ZM322.044 606.635C333.853 659.587 340.955 687.83 354.387 737.859C298.558 716.073 268.742 703.479 215.732 680.523C252.943 655.974 276.508 639.448 322.044 606.635Z" fill="#191919"/>
<path d="M231.425 784.647C231.664 784.647 231.877 784.62 232.116 784.567C278.929 774.604 305.207 766.314 360.424 746.441C361.728 745.963 362.606 744.74 362.632 743.359C362.659 741.977 361.808 740.728 360.504 740.224C298.638 716.179 268.635 703.426 210.093 678.052C208.976 677.574 207.673 677.734 206.715 678.504C205.758 679.275 205.279 680.497 205.518 681.692C212.966 722.582 217.62 743.253 228.233 782.176C228.605 783.664 229.935 784.647 231.425 784.647ZM349.812 743.199C301.643 760.389 275.95 768.334 233.792 777.42C224.243 742.19 219.802 722.688 213.152 686.634C265.497 709.324 295.26 721.891 349.812 743.199Z" fill="#191919"/>
<path d="M390.108 799.047C415.083 799.047 442.639 798.17 475.567 796.603C477.136 796.523 478.413 795.381 478.679 793.84C478.945 792.299 478.094 790.784 476.657 790.2C430.935 771.761 407.583 761.558 360.664 740.303C359.866 739.958 358.988 739.905 358.164 740.197C303.266 759.938 277.146 768.174 230.707 778.058C229.137 778.403 228.047 779.785 228.073 781.379C228.1 782.973 229.27 784.328 230.84 784.594C291.589 794.743 334.359 799.047 390.108 799.047ZM460.087 790.651C371.09 794.504 322.203 792.299 249.059 780.821C285.737 772.372 311.75 763.923 359.121 746.919C400.348 765.57 423.382 775.693 460.087 790.651Z" fill="#191919"/>
<path d="M324.198 604.324C325.209 604.324 326.166 603.872 326.805 603.049C327.656 601.959 327.762 600.471 327.044 599.276C264.965 495.923 236.212 444.539 193.31 360.236C192.592 358.827 190.969 358.11 189.453 358.535C187.937 358.96 186.926 360.422 187.033 361.989C193.31 441.271 200.013 485.774 218.285 569.094C218.551 570.236 219.376 571.193 220.52 571.538C260.124 584.318 281.03 591.013 323.187 604.138C323.533 604.271 323.852 604.324 324.198 604.324ZM195.039 378.249C232.967 452.164 261.427 502.778 316.857 595.237C280.711 583.972 260.124 577.357 224.376 565.826C207.806 490.078 200.89 446.531 195.039 378.249Z" fill="#191919"/>
<path d="M208.763 684.429C209.402 684.429 210.04 684.243 210.599 683.871C252.012 656.665 275.763 639.979 326.14 603.66C327.15 602.916 327.682 601.667 327.47 600.445C327.257 599.223 326.379 598.186 325.182 597.814C283.025 584.716 262.145 577.994 222.568 565.241C221.61 564.922 220.573 565.082 219.748 565.613C218.924 566.144 218.365 567.048 218.259 568.031L205.492 680.736C205.359 682.011 205.944 683.26 207.061 683.951C207.566 684.27 208.178 684.429 208.763 684.429ZM316.857 602.172C272.572 634.054 249.192 650.474 212.886 674.413L224.403 572.787C259.539 584.132 280.152 590.747 316.857 602.172Z" fill="#191919"/>
<path d="M799.582 781.645C799.928 781.645 800.274 781.591 800.619 781.485C865.625 760.443 896.718 748.805 957.122 724.468C958.505 723.91 959.329 722.529 959.196 721.041C959.063 719.553 957.946 718.384 956.483 718.118C906.878 709.112 879.27 701.46 821.499 683.074C820.595 682.782 819.61 682.888 818.812 683.366C817.988 683.845 817.429 684.642 817.243 685.571C809.61 722.369 805.514 740.41 796.391 777.553C796.098 778.722 796.47 779.944 797.348 780.768C797.96 781.352 798.758 781.645 799.582 781.645ZM944.035 722.582C892.223 743.359 861.475 754.757 804.237 773.355C812.136 741.1 816.179 723.14 822.962 690.54C874.269 706.8 901.798 714.505 944.035 722.582Z" fill="#191919"/>
<path d="M1023.22 745.086C1024.12 745.086 1025 744.714 1025.64 744.05C1058.3 709.377 1074.92 692.054 1105.01 660.783C1106.12 659.64 1106.26 657.86 1105.32 656.558C1104.39 655.256 1102.67 654.805 1101.23 655.469C1046.86 680.656 1016.57 693.941 954.648 718.304C953.371 718.809 952.52 720.058 952.547 721.413C952.573 722.768 953.424 724.017 954.701 724.495C985.847 736.185 999.173 740.224 1022.55 745.033C1022.79 745.086 1023 745.086 1023.22 745.086ZM1088.01 668.886C1065.37 692.453 1049.31 709.271 1022.1 738.151C1002.31 734.033 989.597 730.313 965.181 721.307C1015.82 701.247 1045.21 688.547 1088.01 668.886Z" fill="#191919"/>
<path d="M799.582 781.645C799.768 781.645 799.928 781.618 800.114 781.591L1023.75 745.033C1025.35 744.767 1026.52 743.412 1026.54 741.818C1026.57 740.224 1025.45 738.816 1023.88 738.497C1000.9 733.794 987.789 729.809 957.015 718.251C956.244 717.959 955.366 717.959 954.595 718.278C894.351 742.535 863.364 754.172 798.518 775.135C796.869 775.667 795.912 777.393 796.311 779.067C796.736 780.635 798.066 781.645 799.582 781.645ZM1005.77 741.26L840.756 768.227C881.105 754.544 910.07 743.412 955.925 724.947C978.187 733.289 991.247 737.673 1005.77 741.26Z" fill="#191919"/>
<path d="M799.582 781.645C801.072 781.645 802.428 780.635 802.8 779.121C811.95 741.898 816.046 723.778 823.706 686.9C823.946 685.784 823.573 684.615 822.749 683.844C821.924 683.047 820.754 682.729 819.637 683.021C741.625 702.204 701.888 710.812 620.312 723.964C618.796 724.203 617.653 725.451 617.52 726.966C617.387 728.48 618.318 729.888 619.78 730.393C696.622 756.112 733.274 767.111 798.811 781.591C799.103 781.618 799.343 781.645 799.582 781.645ZM816.126 690.726C809.37 723.113 805.301 741.1 797.135 774.391C737.529 761.133 701.649 750.586 634.728 728.347C706.064 716.604 745.535 708.022 816.126 690.726Z" fill="#191919"/>
<path d="M190.358 365.071C190.996 365.071 191.634 364.885 192.193 364.513C230.52 339.352 259.406 320.17 289.993 299.845C319.65 280.157 350.344 259.779 390.746 233.21C391.73 232.546 392.315 231.43 392.236 230.234C392.156 229.039 391.464 227.976 390.374 227.471C317.442 191.656 283.61 176.22 227.063 155.416C226.185 155.097 225.201 155.15 224.376 155.602C223.552 156.054 222.94 156.824 222.701 157.728C202.486 237.487 195.145 279.387 187.06 361.431C186.927 362.707 187.565 363.929 188.655 364.593C189.161 364.912 189.746 365.071 190.358 365.071ZM382.208 230.898C344.147 255.926 314.756 275.428 286.296 294.345C257.278 313.607 229.802 331.86 194.347 355.161C202.008 279.227 209.349 237.78 228.233 162.962C281.11 182.516 314.543 197.714 382.208 230.898Z" fill="#191919"/>
<path d="M225.892 161.872C226.903 161.872 227.887 161.421 228.526 160.597L239.617 146.356C289.621 82.1126 319.81 43.3486 370.532 -24.0832C371.542 -25.4116 371.383 -27.298 370.186 -28.4671C368.989 -29.6361 367.101 -29.7424 365.797 -28.6796C333.268 -2.88123 309.596 16.089 284.514 36.175C267.704 49.6454 249.831 63.9661 227.542 81.7407C226.85 82.2986 226.398 83.0957 226.318 83.999C223.366 112.242 222.647 126.881 222.594 158.578C222.594 159.986 223.499 161.261 224.829 161.713C225.174 161.819 225.547 161.872 225.892 161.872ZM349.519 -7.29166C307.787 47.9185 278.982 84.9555 234.377 142.265L229.27 148.827C229.457 124.277 230.281 110.116 232.781 86.0448C254.565 68.6688 272.146 54.5873 288.69 41.3294C308.186 25.6803 326.858 10.722 349.519 -7.29166Z" fill="#191919"/>
<path d="M229.616 87.6389C230.361 87.6389 231.079 87.3998 231.691 86.9216C253.98 69.147 271.854 54.8264 288.69 41.356C313.772 21.2699 337.444 2.29971 369.947 -23.4721C371.117 -24.402 371.516 -25.9696 370.957 -27.3512C370.372 -28.7327 368.962 -29.5298 367.5 -29.3704L272.705 -17.9989C271.588 -17.8661 270.603 -17.1753 270.098 -16.1391C251.4 22.5452 242.436 42.9501 226.531 83.1222C225.972 84.5304 226.424 86.1245 227.648 87.0013C228.233 87.3998 228.924 87.6389 229.616 87.6389ZM356.621 -21.4263C328.693 0.758713 307.176 17.9753 284.541 36.1219C270.258 47.5465 255.23 59.6088 237.356 73.8763C250.362 41.4622 258.874 22.3326 275.311 -11.6755L356.621 -21.4263Z" fill="#191919"/>
<path d="M229.616 87.6389C230.973 87.6389 232.196 86.8153 232.701 85.54C248.713 45.0756 257.225 25.6803 276.083 -13.2697C276.668 -14.4918 276.455 -15.9265 275.551 -16.9362C274.646 -17.9458 273.21 -18.2912 271.933 -17.8395L212.594 3.761C211.051 4.31894 210.146 5.93964 210.466 7.53377L226.318 84.9555C226.611 86.3902 227.807 87.4795 229.297 87.5858C229.43 87.6124 229.51 87.6389 229.616 87.6389ZM266.534 -8.80608C251.745 22.0138 243.128 41.5419 230.627 72.7604L217.567 9.02164L266.534 -8.80608Z" fill="#191919"/>
<path d="M117.852 197.501C118.224 197.501 118.623 197.448 118.995 197.289C161.818 181.746 182.99 174.758 226.85 161.74C228.26 161.314 229.217 160.039 229.217 158.551C229.27 127.147 229.988 112.64 232.914 84.6632C233.047 83.2551 232.302 81.9266 231.026 81.3156C229.749 80.7045 228.233 80.9702 227.249 81.9798C183.415 125.925 160.435 148.482 115.538 191.789C114.421 192.878 114.208 194.605 115.032 195.934C115.644 196.917 116.735 197.501 117.852 197.501ZM222.594 156.08C185.809 167.027 164.212 174.014 131.337 185.784C167.111 151.218 189.294 129.379 225.387 93.2715C223.259 115.164 222.674 129.644 222.594 156.08Z" fill="#191919"/>
<path d="M102.984 122.577C103.276 122.577 103.569 122.55 103.861 122.471L230.494 87.5327C232.169 87.0544 233.207 85.3806 232.861 83.6536L217.009 6.2319C216.769 5.00974 215.838 4.02669 214.641 3.70786C213.445 3.36246 212.141 3.73442 211.317 4.66434C189.48 28.2575 170.196 47.3074 149.769 67.4732C134.156 82.8831 118.011 98.8244 100.59 116.998C99.5524 118.087 99.3662 119.708 100.138 121.009C100.749 121.966 101.84 122.577 102.984 122.577ZM225.733 81.9266L113.809 112.826C128.012 98.2399 141.391 85.0086 154.424 72.1493C173.521 53.2854 191.634 35.4311 211.769 13.8572L225.733 81.9266Z" fill="#191919"/>
<path d="M117.852 197.501C118.703 197.501 119.527 197.182 120.166 196.571C165.116 153.238 188.097 130.627 231.983 86.6559C233.047 85.5931 233.26 83.9459 232.489 82.644C231.717 81.3421 230.174 80.731 228.738 81.103L102.106 116.041C100.43 116.493 99.3927 118.193 99.7384 119.894L114.607 194.818C114.846 196.013 115.724 196.97 116.867 197.342C117.187 197.448 117.506 197.501 117.852 197.501ZM218.392 90.8538C181.474 127.785 158.972 149.89 119.926 187.538L106.84 121.621L218.392 90.8538Z" fill="#191919"/>
<path d="M114.101 277.341C114.979 277.341 115.857 276.995 116.495 276.331C160.541 231.217 182.99 208.155 228.313 160.836C229.35 159.747 229.536 158.1 228.738 156.798C227.94 155.522 226.398 154.911 224.961 155.336C181.447 168.249 159.211 175.609 116.735 191.018C115.538 191.444 114.713 192.506 114.58 193.755C111.096 223.858 110.325 240.357 110.803 274.046C110.83 275.375 111.654 276.597 112.905 277.075C113.277 277.288 113.676 277.341 114.101 277.341ZM214.801 165.326C176.952 204.781 154.956 227.444 117.32 265.969C117.08 238.284 117.905 222.928 120.911 196.598C158.414 182.995 179.319 176.007 214.801 165.326Z" fill="#191919"/>
<path d="M114.101 277.341C114.766 277.341 115.431 277.128 116.016 276.73C116.921 276.092 117.453 275.056 117.426 273.966C116.947 240.224 117.666 224.628 121.15 194.526C121.283 193.277 120.724 192.055 119.661 191.364C118.597 190.673 117.267 190.646 116.176 191.284C90.7751 206.056 74.2844 215.701 54.9744 226.993L26.1422 243.837C24.9719 244.528 24.3336 245.857 24.5464 247.212C24.7592 248.567 25.7698 249.629 27.0997 249.948C56.7031 256.75 73.5663 262.09 112.958 277.128C113.303 277.288 113.703 277.341 114.101 277.341ZM113.809 200.371C111.123 225.08 110.404 241.127 110.724 269.184C77.7687 256.67 60.8259 251.197 36.675 245.378L58.3258 232.732C76.1464 222.317 91.5731 213.31 113.809 200.371Z" fill="#191919"/>
<path d="M27.8179 250.028C28.4031 250.028 28.9615 249.868 29.4935 249.576L58.3258 232.732C77.6359 221.44 94.1263 211.795 119.527 197.05C120.751 196.332 121.389 194.924 121.123 193.543L106.255 118.618C105.989 117.316 105.005 116.307 103.702 116.014C102.425 115.722 101.068 116.227 100.297 117.29C94.7382 124.915 89.658 131.77 84.9501 138.067C58.4054 173.802 43.7766 193.463 24.6793 245.538C24.2006 246.866 24.5995 248.328 25.6635 249.231C26.2753 249.762 27.0465 250.028 27.8179 250.028ZM114.128 192.48C89.8708 206.588 73.7524 215.993 54.9744 226.993L34.2014 239.135C51.3571 194.472 64.8688 176.273 90.2963 142.052C93.7008 137.456 97.3448 132.593 101.202 127.333L114.128 192.48Z" fill="#191919"/>
<path d="M190.358 365.071C190.703 365.071 191.049 365.018 191.368 364.912C192.618 364.513 193.523 363.397 193.656 362.069C201.715 280.423 209.003 238.736 229.137 159.348C229.51 157.887 228.845 156.346 227.515 155.629C226.185 154.911 224.536 155.15 223.499 156.24C178.176 203.559 155.754 226.621 111.708 271.708C110.511 272.93 110.431 274.896 111.575 276.198C137.774 306.699 153.041 324.155 186.528 362.441L187.831 363.955C188.469 364.673 189.4 365.071 190.358 365.071ZM219.615 169.896C202.273 239.56 195.172 280.848 187.804 353.779C157.722 319.373 142.614 302.103 118.597 274.152C158.387 233.422 180.596 210.6 219.615 169.896Z" fill="#191919"/>
<path d="M43.0054 395.519C43.2181 395.519 43.4575 395.492 43.6703 395.439C67.502 390.524 86.5992 386.565 105.431 382.66C130.725 377.399 155.594 372.245 190.996 364.991C192.166 364.752 193.097 363.929 193.47 362.786C193.842 361.644 193.602 360.422 192.831 359.545L191.501 358.03C158.041 319.771 142.774 302.289 116.602 271.841C115.91 271.044 114.899 270.619 113.836 270.699C112.772 270.778 111.841 271.336 111.255 272.24C79.604 321.844 64.8687 345.915 40.0795 390.577C39.4412 391.72 39.5476 393.101 40.319 394.164C40.9839 395.041 41.968 395.519 43.0054 395.519ZM184.081 359.651C151.604 366.32 128.039 371.209 104.101 376.177C87.1577 379.684 70.0553 383.244 49.442 387.495C71.4916 348.014 86.0408 324.235 114.5 279.599C138.332 307.31 153.52 324.686 184.081 359.651Z" fill="#191919"/>
<path d="M43.0054 395.519C43.0586 395.519 43.1117 395.519 43.1648 395.519C44.3086 395.466 45.3458 394.828 45.9043 393.819C70.6404 349.289 85.3224 325.298 116.894 275.826C117.719 274.551 117.559 272.877 116.522 271.761C115.484 270.645 113.835 270.406 112.479 271.124C65.2943 297.214 43.5372 309.17 1.77856 331.435C0.953979 331.887 0.342285 332.657 0.102905 333.587C-0.136475 334.517 0.0496826 335.473 0.581543 336.244L40.2656 394.084C40.9039 394.988 41.9148 395.519 43.0054 395.519ZM104.287 283.239C78.3538 324.022 64.1239 347.483 42.7125 385.875L8.1886 335.527C44.4415 316.211 65.8262 304.494 104.287 283.239Z" fill="#191919"/>
<path d="M3.37439 337.705C3.90625 337.705 4.43835 337.572 4.94373 337.307C46.729 315.015 68.5126 303.033 115.724 276.942C116.868 276.305 117.532 275.082 117.426 273.807C117.346 272.532 116.495 271.389 115.298 270.938C75.561 255.767 58.5385 250.373 28.5626 243.492C26.9136 243.12 25.2644 244.023 24.7059 245.591C12.1517 279.812 7.09814 297.958 0.129517 333.773C-0.109863 335.022 0.395386 336.324 1.40613 337.068C1.96472 337.466 2.65625 337.705 3.37439 337.705ZM106.228 274.578C65.5868 297.055 44.0159 308.878 7.97571 328.14C14.0667 297.772 18.9075 280.821 29.9189 250.612C56.1179 256.723 72.715 261.931 106.228 274.578Z" fill="#191919"/>
<path d="M221.53 571.724C222.089 571.724 222.621 571.591 223.126 571.299C224.403 570.581 225.068 569.12 224.775 567.685C206.582 484.737 199.88 440.394 193.656 361.484C193.576 360.528 193.097 359.651 192.352 359.093C191.581 358.509 190.624 358.296 189.693 358.482C154.291 365.735 129.422 370.89 104.127 376.15C85.2959 380.056 66.1987 384.015 42.3671 388.93C41.1702 389.169 40.1859 390.072 39.8402 391.242C39.4944 392.411 39.8135 393.686 40.7178 394.563C72.5289 425.648 97.6906 450.623 126.868 479.503C152.482 504.903 181.527 533.677 219.243 570.741C219.855 571.378 220.679 571.724 221.53 571.724ZM187.326 365.762C193.23 439.225 199.694 483.037 215.918 558.227C182.033 524.909 155.302 498.394 131.523 474.827C103.728 447.275 79.5508 423.31 49.8143 394.217C70.8533 389.886 88.2483 386.273 105.457 382.686C129.874 377.612 153.865 372.617 187.326 365.762Z" fill="#191919"/>
<path d="M129.608 573.398C155.594 573.398 184.666 572.813 221.637 571.724C222.967 571.697 224.137 570.847 224.642 569.625C225.121 568.376 224.828 566.968 223.871 566.038C186.155 529.001 157.137 500.227 131.523 474.827C102.345 445.92 77.157 420.945 45.3459 389.833C44.4949 388.983 43.218 388.691 42.0743 389.036C40.9041 389.382 40.0264 390.338 39.787 391.507L2.04456 564.285C1.83179 565.215 2.04456 566.198 2.62976 566.968C3.21497 567.739 4.09253 568.217 5.05005 568.297C52.4209 571.804 86.812 573.398 129.608 573.398ZM213.657 565.294C123.065 567.871 80.8541 567.154 9.35889 561.947L45.0001 398.76C74.8164 427.933 99.0204 451.925 126.842 479.503C151.179 503.654 178.628 530.861 213.657 565.294Z" fill="#191919"/>
<path d="M208.763 684.429C209.269 684.429 209.801 684.323 210.253 684.084C211.264 683.579 211.929 682.596 212.062 681.48L224.828 568.775C224.935 567.818 224.616 566.862 223.977 566.144C223.312 565.427 222.408 565.028 221.424 565.082C123.756 567.951 81.386 567.287 5.5022 561.681C3.93298 561.548 2.52332 562.558 2.07117 564.045C1.61902 565.533 2.28381 567.154 3.64038 567.898C63.9644 601.348 103.516 624.224 158.307 655.841C173.149 664.396 189.161 673.669 207.088 684.004C207.62 684.27 208.205 684.429 208.763 684.429ZM217.807 571.83L206.05 675.714C189.879 666.389 175.277 657.966 161.659 650.102C110.91 620.796 73.2205 599.037 19.998 569.386C86.2268 573.956 129.076 574.407 217.807 571.83Z" fill="#191919"/>
<path d="M106.122 746.175C106.601 746.175 107.08 746.069 107.558 745.856C139.795 730.579 161.579 716.976 210.652 683.871C211.609 683.233 212.141 682.144 212.115 681.002C212.061 679.859 211.45 678.823 210.466 678.239C192.539 667.903 176.527 658.657 161.685 650.102C106.893 618.458 67.2892 595.583 6.91199 562.106C5.60864 561.389 3.98621 561.601 2.94897 562.664C1.91162 563.727 1.67224 565.347 2.41699 566.649L103.25 744.501C103.835 745.564 104.952 746.175 106.122 746.175ZM202.513 681.32C158.227 711.131 136.896 724.389 107.505 738.497L14.0135 573.61C68.6456 604.005 106.76 626.031 158.334 655.814C171.872 663.652 186.421 672.048 202.513 681.32Z" fill="#191919"/>
<path d="M231.425 784.647C232.329 784.647 233.18 784.275 233.819 783.637C234.643 782.787 234.936 781.591 234.643 780.449C223.977 741.26 219.562 721.652 212.062 680.497C211.849 679.381 211.104 678.478 210.093 678.026C209.056 677.574 207.859 677.707 206.928 678.345C158.174 711.237 136.577 724.734 104.712 739.825C103.515 740.383 102.771 741.605 102.824 742.934C102.877 744.262 103.702 745.431 104.925 745.909C151.631 764.215 177.511 772.159 230.68 784.54C230.919 784.62 231.159 784.647 231.425 784.647ZM206.423 686.714C212.992 722.502 217.594 742.827 226.77 776.836C180.224 765.889 154.929 758.184 114.474 742.535C142.215 728.905 163.76 715.408 206.423 686.714Z" fill="#191919"/>
<path d="M586.506 800.455C656.273 800.455 716.597 794.663 800.114 781.618C801.683 781.379 802.88 780.024 802.933 778.43C802.987 776.836 801.896 775.427 800.327 775.082C735.082 760.682 698.563 749.709 621.961 724.096C621.137 723.831 620.233 723.884 619.461 724.256C560.733 752.791 530.864 766.341 474.13 790.2C472.694 790.811 471.896 792.299 472.135 793.813C472.401 795.328 473.678 796.47 475.221 796.576C516.953 799.1 552.833 800.455 586.506 800.455ZM781.708 777.712C673.189 793.973 602.891 797.081 489.823 790.784C538.125 770.3 567.728 756.75 621.11 730.818C690.158 753.907 726.704 765.066 781.708 777.712Z" fill="#191919"/>
<path d="M932.199 846.818C933.13 846.818 934.061 846.419 934.699 845.702C970.075 805.53 988.454 785.072 1025.69 744.023C1026.65 742.987 1026.83 741.446 1026.14 740.197C1025.45 738.948 1024.09 738.284 1022.69 738.497L799.05 775.056C797.667 775.268 796.577 776.357 796.311 777.712C796.045 779.094 796.683 780.476 797.907 781.193C863.151 819.479 891.558 834.304 931.215 846.685C931.534 846.765 931.88 846.818 932.199 846.818ZM1014.39 746.6C981.751 782.601 963.558 802.9 931.135 839.698C894.776 828.167 867.3 814.085 809.211 780.13L1014.39 746.6Z" fill="#191919"/>
<path d="M718.964 889.86C719.017 889.86 719.07 889.86 719.15 889.86C814.025 884.891 858.098 875.991 933.423 846.605C934.726 846.101 935.577 844.799 935.524 843.391C935.471 841.982 934.54 840.76 933.184 840.335C894.164 828.167 866.024 813.474 801.258 775.481C799.795 774.63 797.933 775.002 796.922 776.357C763.728 820.488 747.158 842.647 716.278 884.572C715.506 885.609 715.427 886.99 716.038 888.106C716.623 889.195 717.767 889.86 718.964 889.86ZM922.278 843.789C854.746 869.481 811.445 878.036 725.826 882.845C753.541 845.25 769.979 823.278 800.46 782.707C858.975 816.981 887.488 832.072 922.278 843.789Z" fill="#191919"/>
<path d="M718.964 889.86C720.001 889.86 721.012 889.381 721.65 888.505C752.504 846.605 769.074 824.447 802.242 780.343C803.066 779.253 803.12 777.792 802.428 776.65C801.737 775.481 800.407 774.869 799.077 775.082C675.796 794.371 603.237 797.719 475.62 789.987C473.997 789.908 472.588 790.944 472.189 792.485C471.79 794.026 472.561 795.646 474.024 796.311C582.091 846.101 634.542 866.187 718.086 889.753C718.379 889.806 718.671 889.86 718.964 889.86ZM792.028 782.867C762.505 822.135 746.12 844.055 717.661 882.713C639.995 860.714 588.98 841.504 492.802 797.612C607.599 803.856 678.748 800.243 792.028 782.867Z" fill="#191919"/>
<path d="M534.534 910.344C599.353 910.344 645.261 904.898 719.629 889.806C721.145 889.488 722.236 888.212 722.289 886.671C722.342 885.13 721.358 883.775 719.868 883.35C636.75 859.89 584.485 839.884 476.79 790.279C475.673 789.775 474.343 789.908 473.359 790.651C472.375 791.395 471.896 792.644 472.109 793.866C480.115 839.644 484.264 862.414 492.456 907.076C492.749 908.617 494.079 909.76 495.648 909.786C509.506 910.132 522.353 910.344 534.534 910.344ZM704.894 885.954C626.297 901.364 579.219 905.19 498.547 903.197C491.047 862.308 486.951 839.724 479.796 798.914C578.288 844.161 630.207 864.327 704.894 885.954Z" fill="#191919"/>
<path d="M495.755 909.786C496.526 909.786 497.271 909.521 497.882 909.016C498.813 908.245 499.239 907.05 499.026 905.854C490.834 861.192 486.711 838.449 478.705 792.697C478.413 791.05 476.976 789.854 475.274 789.961C369.361 795.088 319.331 792.644 231.983 778.058C230.388 777.792 228.818 778.722 228.286 780.263C227.754 781.804 228.419 783.478 229.856 784.275C337.417 842.434 391.464 870.039 494.584 909.6C494.93 909.707 495.329 909.786 495.755 909.786ZM472.641 796.736C479.982 838.635 484.078 861.245 491.419 901.231C397.821 865.097 344.546 838.475 250.309 787.729C325.98 799.472 376.144 801.305 472.641 796.736Z" fill="#191919"/>
<path d="M225.573 882.899C225.866 882.899 226.132 882.872 226.424 882.792C227.834 882.447 228.791 881.118 228.898 879.684L234.749 781.538C234.856 779.918 233.765 778.483 232.196 778.111C179.399 765.836 153.732 757.945 107.372 739.772C105.936 739.214 104.313 739.692 103.436 740.968C102.558 742.216 102.638 743.917 103.648 745.059C135.912 781.777 220.227 877.85 222.86 881.384C223.445 882.367 224.456 882.899 225.573 882.899ZM227.94 783.93L222.754 871.049C205.04 850.484 150.115 787.888 117.586 750.851C155.966 765.491 181.5 773.063 227.94 783.93Z" fill="#191919"/>
<path d="M405.588 967.334C406.678 967.334 407.742 966.776 408.38 965.82C409.205 964.545 409.072 962.871 408.035 961.755C340.582 889.036 303.133 849.741 233.792 778.988C232.861 778.058 231.478 777.739 230.254 778.191C229.031 778.642 228.18 779.785 228.1 781.113L222.248 879.259C222.169 880.481 222.78 881.65 223.844 882.287C294.329 924.957 331.486 942.413 404.524 967.148C404.87 967.281 405.242 967.334 405.588 967.334ZM234.297 789.004C302.148 858.322 337.683 895.784 394.177 956.601C330.262 934.389 293.797 916.827 229.031 877.664L234.297 789.004Z" fill="#191919"/>
<path d="M405.588 967.334C406.173 967.334 406.758 967.175 407.263 966.883C438.729 948.391 457.4 936.249 497.59 909.228C498.627 908.538 499.186 907.342 499.026 906.093C498.893 904.871 498.069 903.808 496.925 903.357C394.177 863.955 340.263 836.403 232.994 778.403C231.558 777.633 229.749 778.005 228.765 779.333C227.781 780.635 227.887 782.495 229.031 783.664C303.957 860.129 339.784 897.99 403.141 966.298C403.806 966.989 404.683 967.334 405.588 967.334ZM488.6 907.262C453.065 931.121 434.766 942.944 406.226 959.789C345.024 893.818 308.452 855.32 249.112 794.637C342.232 844.772 395.56 871.341 488.6 907.262Z" fill="#191919"/>
<path d="M684.52 993C684.999 993 685.504 992.894 685.956 992.681C784.687 945.787 837.378 912.045 934.088 846.26C935.497 845.304 935.95 843.47 935.152 841.956C934.354 840.468 932.572 839.804 931.002 840.415C856.475 869.481 812.828 878.276 718.804 883.217C717.421 883.297 716.251 884.2 715.825 885.502C701.915 927.8 695.212 947.673 681.381 988.616C680.956 989.891 681.328 991.273 682.312 992.15C682.924 992.708 683.722 993 684.52 993ZM907.251 856.409C827.111 910.53 776.017 942.147 690.185 983.302C701.888 948.736 708.883 927.88 721.438 889.727C803.333 885.343 847.219 877.877 907.251 856.409Z" fill="#191919"/>
<path d="M932.199 846.818C932.784 846.818 933.37 846.659 933.901 846.34L1011.27 800.004C1012.05 799.552 1012.58 798.808 1012.79 797.958L1026.46 742.562C1026.83 741.074 1026.14 739.56 1024.79 738.842C1023.43 738.125 1021.78 738.417 1020.77 739.533C983.507 780.635 965.128 801.093 929.726 841.292C928.635 842.514 928.609 844.347 929.673 845.622C930.311 846.419 931.242 846.818 932.199 846.818ZM1006.67 795.035L948.85 829.681C973.107 802.235 990.183 783.212 1016.86 753.774L1006.67 795.035Z" fill="#191919"/>
<path d="M684.52 993C686.089 993 687.445 991.911 687.765 990.343C688.11 988.696 687.153 987.049 685.53 986.517C621.35 965.661 580.894 947.833 497.297 903.543C496.207 902.958 494.903 903.038 493.893 903.729C453.836 930.696 435.218 942.758 403.912 961.17C402.662 961.914 402.05 963.349 402.343 964.757C402.662 966.165 403.832 967.202 405.268 967.334L684.201 993C684.307 993 684.413 993 684.52 993ZM495.941 910.344C566.638 947.753 606.535 966.219 656.592 983.781L416.094 961.649C442.16 946.132 460.752 934.017 495.941 910.344Z" fill="#191919"/>
<path d="M405.588 967.334C406.971 967.334 408.274 966.458 408.726 965.076C409.312 963.349 408.381 961.463 406.652 960.852C334.172 936.302 297.281 918.979 227.302 876.602C225.999 875.805 224.323 876.017 223.233 877.08C222.142 878.143 221.929 879.817 222.701 881.145C234.43 900.912 240.335 910.45 252.863 929.686C253.315 930.404 254.06 930.909 254.884 931.121C295.233 940.739 400.694 965.953 404.55 967.148C404.87 967.281 405.242 967.334 405.588 967.334ZM235.202 889.142C279.008 915.286 310.208 931.413 348.136 946.611C311.272 937.763 268.688 927.587 257.73 924.984C248.341 910.557 242.702 901.603 235.202 889.142Z" fill="#191919"/>
<path d="M684.52 993C685.903 993 687.206 992.123 687.658 990.742C701.144 950.862 708.245 929.819 722.129 887.575C722.502 886.459 722.236 885.21 721.464 884.333C720.666 883.456 719.469 883.058 718.326 883.297C630.526 901.125 582.73 905.402 495.834 903.171C494.318 903.091 492.935 904.154 492.536 905.641C492.137 907.129 492.829 908.697 494.185 909.414C578.182 953.917 618.876 971.851 683.483 992.841C683.828 992.947 684.174 993 684.52 993ZM714.043 890.922C701.675 928.544 694.973 948.391 682.419 985.508C623.265 966.139 583.794 948.975 509.745 910.105C586.746 911.487 633.957 906.97 714.043 890.922Z" fill="#191919"/>
<path d="M5.28943 568.297C6.83215 568.297 8.1886 567.234 8.5343 565.693L46.2767 392.915C46.4629 392.012 46.2767 391.082 45.7714 390.338L6.11401 332.524C5.28943 331.329 3.77332 330.797 2.36365 331.222C0.980469 331.647 0.0229492 332.949 0.0229492 334.411L1.93811 565.029C1.96472 566.729 3.24146 568.137 4.91711 568.297C5.05005 568.297 5.15649 568.297 5.28943 568.297ZM39.4677 392.889L8.37476 535.298L6.80542 345.224L39.4677 392.889Z" fill="#191919"/>
<path d="M1121.92 291.502C1122.59 291.502 1123.23 291.316 1123.81 290.917C1125.14 289.988 1125.62 288.234 1124.93 286.773L1045.45 117.688C1044.79 116.307 1043.27 115.536 1041.78 115.855C1040.27 116.174 1039.18 117.476 1039.12 118.99L1036.41 203.081C1036.38 203.984 1036.73 204.861 1037.34 205.499L1119.5 290.492C1120.17 291.157 1121.04 291.502 1121.92 291.502ZM1045.35 133.045L1110.41 271.496L1043.14 201.912L1045.35 133.045Z" fill="#191919"/>
<path d="M213.764 10.1907C214.136 10.1907 214.535 10.1375 214.907 9.97812L274.221 -11.6224C274.566 -11.7552 274.886 -11.9412 275.178 -12.1538L375.718 -93.6405C377.101 -94.7564 377.341 -96.7491 376.303 -98.1572C375.266 -99.5654 373.298 -99.9639 371.808 -99.0074L211.928 4.07982C210.519 5.00974 209.987 6.84299 210.758 8.35741C211.343 9.49988 212.513 10.1907 213.764 10.1907ZM271.428 -17.6535L240.441 -6.38831L323.959 -60.2434L271.428 -17.6535Z" fill="#191919"/>
<path d="M225.573 882.792C226.557 882.792 227.542 882.341 228.18 881.517C229.164 880.268 229.111 878.488 228.073 877.292L108.622 740.675C107.505 739.373 105.564 739.161 104.181 740.171C102.797 741.18 102.398 743.067 103.25 744.554L165.888 851.84C166.207 852.371 166.659 852.823 167.244 853.115L224.031 882.447C224.536 882.659 225.041 882.792 225.573 882.792ZM126.576 771.309L211.556 868.498L171.154 847.642L126.576 771.309Z" fill="#191919"/>
<path d="M255.655 931.227C256.427 931.227 257.172 930.962 257.783 930.457C259.06 929.394 259.353 927.561 258.475 926.153L228.393 877.718C228.073 877.213 227.621 876.788 227.089 876.522L170.303 847.19C168.813 846.419 166.978 846.871 166.047 848.253C165.09 849.634 165.329 851.494 166.552 852.61L253.421 930.377C254.06 930.935 254.857 931.227 255.655 931.227ZM223.233 881.995L240.601 909.972L190.411 865.044L223.233 881.995Z" fill="#191919"/>
</svg>
