<svg width="969" height="820" viewBox="0 0 969 820" fill="none" xmlns="http://www.w3.org/2000/svg">
<path d="M-28.71 59.7948C-29.8005 59.7948 -30.8644 59.2634 -31.5027 58.3069C-32.4071 56.9253 -32.1676 55.0655 -30.9175 53.9762L34.5132 -2.96092C34.992 -3.38603 35.5772 -3.65172 36.2155 -3.73143L114.307 -14.9701C115.929 -15.2092 117.499 -14.2261 117.977 -12.632C118.456 -11.0644 117.712 -9.36403 116.222 -8.67324L-27.3002 59.4759C-27.7524 59.6885 -28.2312 59.7948 -28.71 59.7948ZM38.1571 2.69824L-8.25621 43.0829L93.5606 -5.27243L38.1571 2.69824Z" fill="#191919"/>
<path d="M36.7209 2.88422C35.3113 2.88422 34.0346 2.00745 33.5824 0.652435C33.0505 -0.862 33.6888 -2.50926 35.0719 -3.30632L198.941 -96.9882C200.404 -97.8118 202.24 -97.4399 203.25 -96.1114C204.261 -94.783 204.101 -92.8966 202.905 -91.7276C170.774 -60.5357 152.954 -43.3191 117.1 -9.25776C116.594 -8.77952 115.956 -8.48726 115.291 -8.38098L37.1997 2.85765C37.0401 2.85765 36.8805 2.88422 36.7209 2.88422ZM179.365 -78.1509L53.5042 -6.20233L113.296 -14.8107C141.011 -41.1404 157.928 -57.4006 179.365 -78.1509Z" fill="#191919"/>
<path d="M38.2635 103.58C37.5986 103.58 36.9604 103.394 36.4018 102.996C29.646 98.3993 22.8901 93.6966 16.2938 89.1002C-1.97891 76.3737 -19.2144 64.338 -30.0929 59.4759C-31.2632 58.9445 -32.0345 57.7755 -32.0611 56.4736C-32.0877 55.1718 -31.3431 54.0027 -30.1728 53.4448L113.349 -14.7044C114.706 -15.342 116.328 -14.9966 117.313 -13.8542C118.297 -12.7117 118.377 -11.0644 117.525 -9.8157L105.583 7.56035C82.5226 41.1168 67.2819 63.2753 41.0032 102.119C40.4978 102.836 39.7531 103.341 38.8754 103.527C38.6892 103.58 38.4763 103.58 38.2635 103.58ZM-21.156 56.5799C-10.0647 62.6642 4.67053 72.9198 20.0973 83.6802C25.7627 87.6389 31.561 91.6774 37.3859 95.6362C62.5741 58.4663 77.6284 36.5736 100.13 3.81413L105.078 -3.35947L-21.156 56.5799Z" fill="#191919"/>
<path d="M38.2635 103.58C37.5454 103.58 36.854 103.368 36.2422 102.889C34.8325 101.827 34.5133 99.8341 35.4974 98.3993C61.8027 59.5291 77.0432 37.3706 100.104 3.81413L112.046 -13.5353C112.179 -13.7213 112.339 -13.9073 112.498 -14.0667C148.326 -48.1015 166.146 -65.3181 198.25 -96.4834C199.5 -97.7055 201.495 -97.7321 202.798 -96.5631C204.101 -95.3941 204.261 -93.4014 203.144 -92.0198C143.299 -17.441 110.104 21.9341 40.7637 102.464C40.152 103.208 39.2211 103.58 38.2635 103.58ZM117.366 -9.49688L105.636 7.58691C94.0393 24.4847 84.4109 38.4865 74.3569 53.2057C108.003 13.8572 133.564 -16.6705 163.885 -53.92C150.188 -40.795 136.303 -27.484 117.366 -9.49688Z" fill="#191919"/>
<path d="M38.2901 103.58C37.4124 103.58 36.5347 103.235 35.8698 102.544C34.6994 101.295 34.6463 99.3824 35.7634 98.0805C105.051 17.6299 138.192 -21.7186 197.984 -96.2177C198.835 -97.2539 200.218 -97.7055 201.495 -97.3336C202.798 -96.9616 203.729 -95.8457 203.862 -94.5173C206.336 -72.1994 208.41 -60.1637 214.474 -33.3026C214.767 -32.0273 214.288 -30.6988 213.224 -29.9283C165.827 5.85994 134.574 30.011 95.0234 60.5918C78.6657 73.2386 60.9781 86.9216 40.2849 102.863C39.6998 103.368 38.9816 103.58 38.2901 103.58ZM198.197 -85.8293C147.714 -23.047 115.85 15.0793 62.0155 77.7819C72.2823 69.8643 81.8575 62.4516 91.0071 55.3843C130.106 25.1755 161.066 1.21037 207.559 -33.8871C202.505 -56.3644 200.298 -68.4266 198.197 -85.8293Z" fill="#191919"/>
<path d="M211.256 -29.211C210.884 -29.211 210.485 -29.2641 210.113 -29.4235C209.049 -29.8221 208.251 -30.6988 208.011 -31.8147C201.894 -58.9681 199.793 -71.1367 197.266 -93.7468C197.106 -95.2612 197.984 -96.6959 199.42 -97.2273C253.148 -117.101 281.874 -123.823 339.032 -129.88C340.575 -130.04 341.958 -129.163 342.49 -127.728C343.022 -126.294 342.517 -124.7 341.267 -123.849C293.843 -91.0102 268.495 -71.9869 213.251 -29.9018C212.693 -29.4501 211.974 -29.211 211.256 -29.211ZM204.181 -91.887C206.362 -72.5714 208.384 -60.7482 213.384 -38.2975C261.659 -75.0689 286.927 -94.0125 326.744 -121.804C279.347 -116.251 251.552 -109.316 204.181 -91.887Z" fill="#191919"/>
<path d="M38.2901 103.58C37.1198 103.58 35.9763 102.943 35.3911 101.88C34.5932 100.445 34.9654 98.6385 36.2687 97.6288C56.9619 81.6875 74.6494 68.0311 91.0071 55.3843C130.585 24.8035 161.837 0.62587 209.261 -35.189C210.219 -35.9063 211.469 -36.0658 212.56 -35.5875C213.65 -35.1093 214.421 -34.0997 214.554 -32.9306C218.039 -3.54546 220.566 12.0505 227.401 46.4306C227.747 48.2107 226.603 49.9643 224.795 50.3362C149.416 65.6931 111.301 76.5863 39.4339 103.394C39.0615 103.527 38.6625 103.58 38.2901 103.58ZM208.65 -26.3947C163.806 7.50722 133.325 31.0738 95.0768 60.645C83.4269 69.6518 71.0855 79.19 57.494 89.6848C116.355 68.3765 153.965 58.0678 220.273 44.4911C214.289 14.362 211.709 -1.26051 208.65 -26.3947Z" fill="#191919"/>
<path d="M224.156 50.3894C223.943 50.3894 223.704 50.3628 223.491 50.3097C222.188 50.044 221.151 49.0078 220.885 47.7059C214.022 13.1132 211.469 -2.56239 207.958 -32.1601C207.825 -33.3292 208.304 -34.4716 209.235 -35.189C264.558 -77.3538 289.959 -96.3771 337.49 -129.323C338.793 -130.226 340.549 -130.093 341.692 -128.977C342.836 -127.888 343.049 -126.134 342.198 -124.806C300.918 -59.9777 276.581 -23.8972 226.896 48.9281C226.257 49.858 225.22 50.3894 224.156 50.3894ZM214.767 -31.0442C217.879 -5.11301 220.299 10.1907 225.858 38.6459C268.947 -24.5083 292.779 -59.898 327.622 -114.338C288.869 -87.2374 263.495 -68.1609 214.767 -31.0442Z" fill="#191919"/>
<path d="M224.156 50.3894C223.225 50.3894 222.294 49.9908 221.656 49.2469C220.645 48.1044 220.566 46.4306 221.417 45.1819C271.048 -27.5637 295.359 -63.6442 336.612 -128.366C337.596 -129.907 339.618 -130.359 341.187 -129.402C380.366 -104.932 404.995 -88.8315 456.063 -52.4056C457.101 -51.6882 457.606 -50.4395 457.42 -49.1908C457.234 -47.942 456.356 -46.9324 455.159 -46.5339C368.397 -18.8757 319.616 2.80452 225.672 50.0174C225.167 50.2831 224.661 50.3894 224.156 50.3894ZM340.416 -122.016C302.221 -62.1033 278.336 -26.5275 234.104 38.3537C315.201 -2.19043 365.87 -24.7208 446.781 -50.838C400.633 -83.624 376.509 -99.4325 340.416 -122.016Z" fill="#191919"/>
<path d="M454.095 -46.3745C453.403 -46.3745 452.738 -46.587 452.153 -46.9856C401.218 -83.3052 376.669 -99.3528 337.596 -123.743C336.399 -124.487 335.788 -125.922 336.107 -127.303C336.426 -128.685 337.596 -129.721 339.006 -129.854C399.915 -136.31 433.083 -135.433 493.353 -125.762C494.391 -125.603 495.295 -124.939 495.774 -124.009C496.253 -123.079 496.279 -121.963 495.8 -121.006C482.688 -94.411 475.081 -80.0904 456.968 -48.0218C456.515 -47.1981 455.717 -46.6136 454.786 -46.401C454.6 -46.401 454.334 -46.3745 454.095 -46.3745ZM349.352 -124.248C383.238 -102.966 407.549 -86.9186 453.005 -54.5311C468.857 -82.641 476.411 -96.8553 487.848 -119.944C434.28 -128.313 402.176 -129.376 349.352 -124.248Z" fill="#191919"/>
<path d="M-70.7612 206.508C-71.373 206.508 -71.958 206.349 -72.49 206.003C-73.7667 205.233 -74.3518 203.692 -73.9528 202.257L-31.9016 55.5437C-31.6356 54.6138 -30.9707 53.8433 -30.1196 53.4448C-29.2418 53.0463 -28.2312 53.0197 -27.3534 53.4182C-15.9429 58.546 1.58514 70.7411 20.0973 83.6536C26.6669 88.2235 33.3961 92.9262 40.1254 97.496C40.9499 98.054 41.482 98.9573 41.5618 99.9669C41.6416 100.977 41.2692 101.96 40.5511 102.65C-2.96309 144.549 -25.3851 165.725 -68.5269 205.631C-69.1387 206.216 -69.9367 206.508 -70.7612 206.508ZM-26.6086 61.2029L-64.2979 192.692C-27.6194 158.711 -5.56976 137.881 32.9972 100.737C27.385 96.8849 21.7729 92.9793 16.2672 89.1534C-0.117126 77.6756 -15.7301 66.8089 -26.6086 61.2029Z" fill="#191919"/>
<path d="M-70.7612 206.508C-70.8942 206.508 -71.0271 206.508 -71.1601 206.482C-72.7826 206.269 -74.0328 204.914 -74.086 203.293L-76.7989 119.203C-76.8255 118.485 -76.6127 117.768 -76.1872 117.157L-31.4495 54.5341C-30.5186 53.2057 -28.7631 52.754 -27.3002 53.4714C-25.8374 54.1622 -25.0927 55.836 -25.5448 57.377L-67.5961 204.09C-67.9685 205.552 -69.2983 206.508 -70.7612 206.508ZM-70.0963 120.106L-68.1015 181.905L-37.1947 74.1154L-70.0963 120.106Z" fill="#191919"/>
<path d="M10.2826 270.22C9.5379 270.22 8.79306 269.955 8.1813 269.476C-29.8271 238.364 -46.4507 225.292 -72.7294 205.87C-73.5274 205.286 -74.0061 204.383 -74.0593 203.373C-74.1125 202.363 -73.7135 201.433 -72.9953 200.743C-29.8802 160.863 -7.48482 139.714 35.9761 97.868C37.04 96.8318 38.6891 96.6458 39.9658 97.3897C41.2425 98.1602 41.8809 99.6747 41.4819 101.109C24.9912 162.776 19.2727 196.917 13.6074 267.138C13.501 268.36 12.7296 269.45 11.5859 269.928C11.1603 270.114 10.7348 270.22 10.2826 270.22ZM-65.548 202.921C-42.1152 220.297 -25.7043 233.21 7.4899 260.31C12.6765 198.139 18.1822 164.237 32.0397 110.887C-5.11755 146.595 -27.1672 167.372 -65.548 202.921Z" fill="#191919"/>
<path d="M10.2826 270.22C9.80388 270.22 9.35168 270.114 8.89952 269.928C7.62282 269.344 6.85153 268.042 6.95793 266.633C12.6765 195.934 18.4482 161.554 35.0453 99.4089C35.3113 98.3727 36.0827 97.5225 37.0934 97.1506C109.36 70.2097 147.687 59.2368 223.465 43.8269C224.874 43.5346 226.337 44.1988 227.029 45.4741C227.72 46.7494 227.534 48.317 226.523 49.3797C141.171 138.518 93.5607 187.193 12.6233 269.237C12.0115 269.875 11.1604 270.22 10.2826 270.22ZM41.0564 102.783C25.6297 160.703 19.7514 194.446 14.3521 258.025C89.0921 182.251 135.825 134.427 214.368 52.4617C146.304 66.6229 108.535 77.6756 41.0564 102.783Z" fill="#191919"/>
<path d="M-152.922 291.502C-154.119 291.502 -155.263 290.838 -155.848 289.748C-156.539 288.473 -156.3 286.906 -155.289 285.869C-123.372 253.057 -106.562 235.76 -73.1283 200.902C-71.958 199.706 -70.0962 199.547 -68.7397 200.53C-42.3546 220.005 -25.6777 233.13 12.4371 264.322C13.4744 265.172 13.8999 266.58 13.5009 267.882C13.1019 269.184 11.9583 270.087 10.6018 270.22C-59.3772 276.145 -92.8639 280.529 -152.284 291.475C-152.523 291.475 -152.709 291.502 -152.922 291.502ZM-70.3888 207.597C-99.9124 238.391 -116.483 255.475 -143.294 283.026C-92.0394 273.78 -58.9782 269.529 1.85118 264.269C-30.7046 237.7 -46.9028 225 -70.3888 207.597Z" fill="#191919"/>
<path d="M224.156 50.3894C222.72 50.3894 221.443 49.4595 220.991 48.0779C220.512 46.5369 221.204 44.8365 222.667 44.1191C312.754 -1.15425 364.673 -24.6411 453.111 -52.8307C453.989 -53.0964 454.919 -53.0167 455.744 -52.565C456.542 -52.1134 457.127 -51.3694 457.34 -50.4661C465.399 -18.796 469.894 -1.41992 478.033 30.0376L479.842 36.9721C480.108 38.0083 479.868 39.0976 479.177 39.9212C478.485 40.7449 477.475 41.1965 476.384 41.1168C376.137 34.1824 322.036 36.175 224.635 50.3894C224.475 50.3894 224.316 50.3894 224.156 50.3894ZM451.754 -45.4446C372.785 -20.1244 325.095 0.493027 243.839 40.9309C328.127 29.4531 381.403 28.0184 472.235 34.1292L471.596 31.6583C463.75 1.34322 459.282 -15.9 451.754 -45.4446Z" fill="#191919"/>
<path d="M10.2826 270.22C9.35172 270.22 8.4474 269.848 7.78246 269.104C6.63875 267.803 6.69191 265.81 7.91541 264.588C88.8262 182.57 136.41 133.922 221.736 44.8099C222.8 43.694 224.475 43.4549 225.805 44.252C227.135 45.0225 227.747 46.6166 227.295 48.0779C218.837 75.8689 214.581 90.1895 205.963 120.212C205.777 120.903 205.352 121.488 204.793 121.939C175.908 144.071 152.262 162.297 129.947 179.461C92.1509 208.554 59.5419 233.688 12.2775 269.583C11.6924 269.981 11.0008 270.22 10.2826 270.22ZM216.922 59.4228C149.283 129.99 105.157 175.29 45.4716 235.92C74.4633 213.761 98.8535 194.977 125.904 174.174C147.98 157.17 171.413 139.129 199.899 117.29C206.868 93.0324 210.99 79.0572 216.922 59.4228Z" fill="#191919"/>
<path d="M202.798 122.577C201.974 122.577 201.176 122.285 200.537 121.7C199.606 120.85 199.234 119.548 199.606 118.353C208.224 88.2766 212.506 73.956 220.964 46.1118C221.337 44.8896 222.401 43.9863 223.677 43.8003C321.637 29.5062 376.03 27.5136 476.836 34.4746C478.485 34.5809 479.815 35.9093 479.922 37.5832C480.028 39.257 478.884 40.7183 477.262 41.0637C369.461 62.9299 308.392 82.9362 203.968 122.391C203.596 122.497 203.197 122.577 202.798 122.577ZM226.71 50.044C219.262 74.5405 215.06 88.6486 207.825 113.809C300.971 78.7118 360.071 59.2103 451.914 39.5227C367.359 34.6075 314.642 37.3175 226.71 50.044Z" fill="#191919"/>
<path d="M454.095 -46.3745C453.164 -46.3745 452.26 -46.773 451.621 -47.4638C450.664 -48.5266 450.504 -50.0676 451.196 -51.3163C469.229 -83.2787 476.81 -97.5196 489.869 -123.982C490.508 -125.284 491.944 -126.028 493.38 -125.789C535.352 -119.067 556.55 -113.62 596.5 -99.3263C597.91 -98.8214 598.814 -97.4133 598.681 -95.9254C598.548 -94.4376 597.431 -93.1888 595.942 -92.9232C548.358 -84.554 519.127 -74.0327 455.425 -46.6136C454.999 -46.4542 454.547 -46.3745 454.095 -46.3745ZM494.763 -118.854C483.512 -96.0849 476.145 -82.1096 461.835 -56.6035C514.605 -79.1073 543.331 -89.4426 582.589 -97.2007C550.672 -108.2 530.856 -112.983 494.763 -118.854Z" fill="#191919"/>
<path d="M695.923 -11.4098C695.79 -11.4098 695.657 -11.4098 695.524 -11.4364L600.729 -22.8079C599.107 -22.9939 597.883 -24.3489 597.803 -25.9696C596.58 -55.8064 595.463 -69.516 592.085 -95.766C591.925 -97.0945 592.564 -98.4229 593.76 -99.0871C594.931 -99.7514 596.394 -99.6451 597.458 -98.7949C637.381 -67.0185 658.925 -49.3502 698.051 -17.2816C699.195 -16.3517 699.567 -14.7575 699.008 -13.4025C698.45 -12.2069 697.226 -11.4098 695.923 -11.4098ZM604.32 -29.0781L684.991 -19.3805C653.26 -45.3914 632.647 -62.2361 599.692 -88.5127C602.219 -67.7624 603.282 -54.106 604.32 -29.0781Z" fill="#191919"/>
<path d="M601.128 -22.7813C600.862 -22.7813 600.57 -22.8079 600.304 -22.8876C543.357 -37.4739 513.249 -42.3094 453.882 -46.3745C452.339 -46.4808 451.089 -47.6232 450.823 -49.1376C450.557 -50.6521 451.382 -52.1399 452.792 -52.751C517.026 -80.3826 546.549 -91.0102 594.798 -99.4857C595.702 -99.6451 596.606 -99.4325 597.351 -98.9011C598.096 -98.3698 598.575 -97.5461 598.681 -96.6428C602.086 -70.1271 603.229 -56.3378 604.453 -26.2618C604.506 -25.1991 604.027 -24.216 603.229 -23.5518C602.617 -23.047 601.873 -22.7813 601.128 -22.7813ZM467.979 -52.0071C517.717 -48.1812 547.4 -43.1596 597.617 -30.4332C596.527 -55.9924 595.383 -69.5425 592.51 -92.3121C550.113 -84.6337 521.76 -74.8563 467.979 -52.0071Z" fill="#191919"/>
<path d="M476.597 41.0903C476.145 41.0903 475.719 41.0106 475.294 40.8246C474.336 40.4261 473.644 39.6024 473.378 38.5928L471.596 31.6583C463.457 0.20076 458.962 -17.2019 450.903 -48.872C450.637 -49.9081 450.877 -50.9975 451.568 -51.8211C452.26 -52.6447 453.27 -53.0698 454.361 -53.0167C514.206 -48.9251 544.554 -44.063 601.979 -29.3438C603.362 -28.9984 604.346 -27.8028 604.479 -26.3947C604.586 -24.9865 603.788 -23.6581 602.511 -23.0736C559.715 -4.34251 533.968 9.26076 478.272 40.6652C477.741 40.9574 477.155 41.0903 476.597 41.0903ZM458.457 -46.0556C465.825 -17.1487 470.266 0.0413513 478.006 30.011L478.725 32.7742C528.197 4.90346 553.89 -8.69981 590.968 -25.2256C541.283 -37.6599 511.6 -42.2829 458.457 -46.0556Z" fill="#191919"/>
<path d="M743.108 161.872C742.443 161.872 741.804 161.686 741.219 161.288L727.096 151.59C702.892 134.985 686.747 123.905 658.925 104.962C658.42 104.616 658.021 104.138 657.755 103.58C633.471 49.858 621.263 24.0331 598.123 -24.6943C597.405 -26.2353 597.936 -28.0685 599.399 -28.9719C600.862 -29.8486 602.751 -29.4767 603.788 -28.1217C654.484 39.2836 684.646 78.0476 734.623 142.238L745.714 156.479C746.725 157.781 746.645 159.614 745.502 160.783C744.863 161.5 743.985 161.872 743.108 161.872ZM663.447 99.9935C689.46 117.715 705.232 128.528 727.335 143.699C685.284 89.6582 657.143 53.4979 618.124 1.92775C633.179 33.7573 644.722 58.5726 663.447 99.9935Z" fill="#191919"/>
<path d="M660.787 105.546C660.362 105.546 659.936 105.467 659.537 105.307C586.1 75.6298 549.235 62.1594 475.666 40.984C474.389 40.612 473.432 39.4961 473.272 38.1677C473.112 36.8392 473.777 35.5374 474.948 34.8997C530.856 3.36246 556.71 -10.2939 599.772 -29.1313C601.421 -29.8486 603.336 -29.1313 604.107 -27.5106C627.274 21.2699 639.509 47.0948 663.793 100.87C664.351 102.119 664.112 103.554 663.154 104.537C662.542 105.174 661.691 105.546 660.787 105.546ZM485.135 36.7861C551.47 56.0751 588.201 69.3861 654.35 96.0347C632.753 48.3436 620.677 22.8109 599.505 -21.7717C560.22 -4.50192 534.873 8.7825 485.135 36.7861Z" fill="#191919"/>
<path d="M307.009 213.31C306.237 213.31 305.439 213.044 304.828 212.486L303.471 211.29C259.957 173.217 238.12 154.114 200.644 121.753C199.766 120.983 199.34 119.814 199.553 118.671C199.766 117.529 200.564 116.572 201.655 116.147C306.424 76.5597 367.705 56.4736 475.958 34.5012C477.395 34.2089 478.831 34.8997 479.549 36.175C480.241 37.4503 480.028 39.0444 479.017 40.0806C449.095 70.7677 424.811 95.3173 399.064 121.302C372.812 147.791 345.682 175.183 309.429 212.3C308.737 212.964 307.86 213.31 307.009 213.31ZM209.208 120.398C243.892 150.368 265.649 169.391 306.822 205.419C342.011 169.418 368.583 142.583 394.303 116.626C417.815 92.873 440.158 70.3426 466.676 43.1892C367.093 63.8598 307.035 83.5207 209.208 120.398Z" fill="#191919"/>
<path d="M580.089 233.794C580.036 233.794 579.983 233.794 579.93 233.794C578.759 233.741 577.695 233.077 577.163 232.041C558.465 197.076 543.916 170.135 529.819 144.045C512.211 111.445 495.561 80.6248 473.644 39.3367C473.033 38.1677 473.166 36.733 473.99 35.6968C474.841 34.6606 476.198 34.2355 477.501 34.6075C551.363 55.8625 588.334 69.3861 662.037 99.1698C662.941 99.5418 663.633 100.259 663.926 101.163C664.245 102.066 664.138 103.075 663.66 103.899C637.274 149.093 620.358 175.608 582.855 232.306C582.243 233.236 581.206 233.794 580.089 233.794ZM483.22 43.1361C503.354 80.9967 519.073 110.143 535.697 140.883C549.103 165.725 562.96 191.364 580.408 223.99C614.799 171.942 631.503 145.719 655.999 103.846C587.403 76.1878 550.698 62.7705 483.22 43.1361Z" fill="#191919"/>
<path d="M386.989 322.853C385.951 322.853 384.941 322.348 384.302 321.498C350.948 276.305 334.378 253.748 304.296 211.928C303.365 210.626 303.498 208.82 304.615 207.677C340.894 170.534 368.051 143.141 394.276 116.626C419.997 90.6678 444.307 66.1181 474.203 35.4577C475.267 34.3683 476.916 34.1292 478.246 34.8997C479.576 35.6436 480.188 37.2112 479.789 38.6725C454.521 129.326 435.503 185.838 403.985 279.44C399.622 292.379 395.021 306.035 390.154 320.595C389.755 321.764 388.744 322.641 387.521 322.827C387.334 322.827 387.148 322.853 386.989 322.853ZM311.344 210.307C339.219 249.071 355.63 271.416 385.871 312.412C390.021 300.11 393.931 288.447 397.681 277.314C427.683 188.202 446.355 132.753 469.868 49.4063C444.014 75.8689 422.098 98.0008 399.011 121.302C373.264 147.313 346.64 174.2 311.344 210.307Z" fill="#191919"/>
<path d="M386.989 322.853C386.191 322.853 385.419 322.561 384.781 322.03C383.77 321.153 383.398 319.745 383.823 318.496C388.717 303.936 393.319 290.28 397.654 277.341C429.146 183.818 448.137 127.386 473.378 36.8924C473.751 35.5905 474.868 34.634 476.224 34.4746C477.581 34.3152 478.884 35.0326 479.523 36.2281C501.439 77.5162 518.063 108.31 535.671 140.91C549.768 167 564.317 193.968 583.015 228.932C583.441 229.756 583.52 230.712 583.228 231.589C582.935 232.466 582.27 233.183 581.419 233.555C510.536 264.349 472.182 282.415 388.425 322.561C387.973 322.747 387.467 322.853 386.989 322.853ZM477.554 46.6697C453.377 132.7 434.546 188.601 403.985 279.44C400.367 290.147 396.617 301.332 392.654 313.129C470.373 275.906 508.567 257.945 575.461 228.853C557.587 195.429 543.49 169.312 529.819 144.045C513.275 113.384 497.583 84.3444 477.554 46.6697Z" fill="#191919"/>
<path d="M580.089 233.794C579.158 233.794 578.227 233.396 577.589 232.678C576.605 231.563 576.472 229.915 577.323 228.64C614.746 172.048 631.636 145.612 657.915 100.551C658.367 99.7543 659.165 99.1964 660.042 98.9839C660.947 98.7713 661.878 98.9573 662.649 99.4887C690.497 118.459 706.615 129.512 730.846 146.144L744.97 155.841C746.007 156.532 746.539 157.754 746.379 159.003C746.22 160.225 745.395 161.288 744.225 161.713C687.944 182.437 654.244 197.794 581.525 233.502C581.1 233.688 580.594 233.794 580.089 233.794ZM661.878 106.955C638.126 147.578 621.715 173.456 589.611 222.104C652.648 191.284 685.763 176.326 735.953 157.648L727.122 151.59C703.743 135.569 687.917 124.703 661.878 106.955Z" fill="#191919"/>
<path d="M10.2826 270.22C9.03255 270.22 7.83562 269.503 7.27707 268.334C6.61212 266.926 7.01108 265.225 8.26117 264.269C55.499 228.374 88.1346 203.267 125.904 174.174C148.219 156.984 171.891 138.757 200.777 116.626C202.027 115.669 203.782 115.722 204.979 116.758C242.482 149.119 264.319 168.249 307.833 206.322L309.19 207.518C310.174 208.368 310.546 209.723 310.174 210.972C309.801 212.22 308.737 213.124 307.461 213.31C185.988 230.394 126.914 242.482 11.0539 270.141C10.7879 270.194 10.5486 270.22 10.2826 270.22ZM202.665 123.533C174.764 144.921 151.704 162.669 129.973 179.408C95.6087 205.87 65.5264 229.038 24.805 260.018C128.829 235.362 187.77 223.539 299.348 207.73C259.319 172.686 237.748 153.822 202.665 123.533Z" fill="#191919"/>
<path d="M-173.642 415.977C-174.227 415.977 -174.812 415.818 -175.344 415.499C-176.514 414.808 -177.126 413.453 -176.913 412.098L-156.194 287.623C-155.954 286.241 -154.89 285.152 -153.507 284.913C-93.8215 273.913 -60.2018 269.529 10.0166 263.578C11.4529 263.445 12.836 264.295 13.368 265.65C13.8999 267.005 13.501 268.546 12.3839 269.476C-68.9791 335.527 -106.801 365.496 -171.62 415.286C-172.205 415.738 -172.924 415.977 -173.642 415.977ZM-150.023 291.024L-168.987 404.871C-110.445 359.837 -73.0751 330.213 -0.223495 271.124C-62.1434 276.544 -95.1248 280.954 -150.023 291.024Z" fill="#191919"/>
<path d="M177.158 383.404C176.493 383.404 175.828 383.218 175.243 382.793C98.9599 328.725 66.0319 306.088 8.50066 269.689C7.38354 268.972 6.77164 267.643 7.01102 266.341C7.2504 265.039 8.20792 263.977 9.51122 263.658C125.611 235.92 184.791 223.804 306.53 206.694C307.86 206.508 309.19 207.146 309.855 208.315C310.546 209.484 310.44 210.945 309.615 212.008L300.04 224.389C254.77 283 227.454 318.363 179.791 382.049C179.179 382.952 178.169 383.404 177.158 383.404ZM18.7141 268.307C74.7825 303.936 109.652 328.167 176.44 375.513C222.933 313.421 250.142 278.191 294.8 220.35L299.375 214.426C185.962 230.526 127.047 242.509 18.7141 268.307Z" fill="#191919"/>
<path d="M177.158 383.404C176.094 383.404 175.056 382.899 174.445 381.996C173.62 380.826 173.647 379.259 174.498 378.117C222.161 314.378 249.504 278.988 294.8 220.377L304.376 207.996C305.014 207.172 305.998 206.721 307.062 206.694C308.126 206.721 309.083 207.225 309.695 208.076C339.751 249.869 356.321 272.425 389.648 317.566C390.313 318.443 390.473 319.585 390.1 320.621C389.728 321.658 388.877 322.455 387.84 322.747C308.605 344.241 266.181 356.941 195.883 377.957L178.089 383.271C177.796 383.351 177.477 383.404 177.158 383.404ZM306.902 215.542L300.067 224.389C256.739 280.476 229.848 315.281 185.855 373.998L193.994 371.554C262.936 350.937 305.094 338.316 381.43 317.566C350.922 276.251 334.511 253.907 306.902 215.542Z" fill="#191919"/>
<path d="M686.162 459.311C685.683 459.311 685.231 459.205 684.778 459.019C645.174 440.952 611.82 425.462 579.584 410.477C520.829 383.165 465.346 357.366 385.659 322.588C384.462 322.056 383.69 320.914 383.664 319.612C383.637 318.31 384.382 317.114 385.552 316.556C469.389 276.384 507.769 258.291 578.759 227.444C580.382 226.754 582.27 227.418 583.068 229.012C627.965 319.213 651.239 366.479 689.22 454.688C689.752 455.937 689.486 457.425 688.502 458.381C687.837 458.992 687.013 459.311 686.162 459.311ZM394.968 319.399C471.198 352.77 525.244 377.904 582.403 404.446C612.485 418.421 643.525 432.848 679.698 449.374C644.164 367.17 622.247 322.587 578.546 234.777C511.334 264.003 473.113 281.937 394.968 319.399Z" fill="#191919"/>
<path d="M686.162 459.311C685.949 459.311 685.763 459.284 685.55 459.258C684.459 459.045 683.555 458.328 683.103 457.292C645.121 369.056 623.151 324.447 577.11 231.935C576.445 230.579 576.764 228.959 577.882 227.976C578.999 226.993 580.648 226.86 581.924 227.683C622.353 254.252 653.047 274.631 682.704 294.318C713.291 314.617 742.177 333.826 780.478 358.96C781.302 359.518 781.861 360.395 781.967 361.378C782.074 362.361 781.728 363.344 781.036 364.062C750.528 394.881 732.016 413.825 701.349 445.203L688.555 458.301C687.917 458.966 687.039 459.311 686.162 459.311ZM588.547 240.011C629.189 321.684 651.983 368.419 687.252 450.118L696.588 440.58C726.298 410.185 744.597 391.454 773.456 362.308C736.804 338.237 708.717 319.585 679.033 299.871C651.93 281.884 623.976 263.312 588.547 240.011Z" fill="#191919"/>
<path d="M78.1339 493.16C77.9211 493.16 77.7082 493.133 77.522 493.107C76.3783 492.894 75.4208 492.097 75.0218 491.008C40.7903 398.707 25.3902 351.069 7.03766 267.617C6.74507 266.315 7.27704 264.96 8.36755 264.189C9.45807 263.419 10.921 263.392 12.0647 264.109C72.8941 302.581 107.923 326.945 179.099 377.399C179.871 377.957 180.376 378.807 180.483 379.764C180.589 380.72 180.27 381.65 179.631 382.367C149.203 415.658 129.787 437.312 107.285 462.393C99.1195 471.506 90.4487 481.151 80.6075 492.097C79.9691 492.761 79.0648 493.16 78.1339 493.16ZM15.2565 273.966C32.4387 350.751 47.5994 397.751 79.3307 483.515C87.6824 474.216 95.183 465.847 102.311 457.903C124.175 433.513 143.166 412.364 172.157 380.614C101.061 330.239 67.9735 307.47 15.2565 273.966Z" fill="#191919"/>
<path d="M-173.642 415.977C-175.025 415.977 -176.275 415.1 -176.754 413.798C-177.259 412.443 -176.807 410.902 -175.663 410.026C-110.924 360.289 -73.1018 330.319 8.20796 264.322C9.37828 263.366 11.0806 263.339 12.2775 264.242C13.501 265.146 13.9531 266.766 13.368 268.174C-9.63921 324.235 -20.1985 352.398 -37.3807 408.671C-37.8063 410.026 -39.0299 410.982 -40.4661 411.009C-95.8695 412.736 -123.212 413.745 -173.509 415.977C-173.535 415.977 -173.589 415.977 -173.642 415.977ZM2.30331 277.66C-68.8194 335.341 -106.056 364.859 -163.269 408.883C-120.074 406.997 -92.9703 405.987 -43.0461 404.446C-27.4597 353.54 -17.1929 325.537 2.30331 277.66Z" fill="#191919"/>
<path d="M78.1339 493.16C77.4689 493.16 76.8038 492.947 76.2187 492.549L58.2385 479.902C19.7247 452.828 -3.54831 436.462 -42.4078 410.424C-43.6313 409.601 -44.1633 408.086 -43.7377 406.705C-26.4757 350.193 -15.8632 321.897 7.22375 265.624C7.78232 264.269 9.13884 263.445 10.5751 263.578C12.0114 263.711 13.2349 264.747 13.5275 266.182C31.7736 349.263 47.1206 396.688 81.2457 488.67C81.7511 490.025 81.2988 491.566 80.1551 492.442C79.57 492.921 78.8521 493.16 78.1339 493.16ZM-36.6628 406.306C1.05305 431.6 24.1932 447.86 62.0686 474.482L71.3248 480.991C41.0564 398.893 26.055 352.185 9.35156 277.978C-10.6235 326.971 -20.9168 354.922 -36.6628 406.306Z" fill="#191919"/>
<path d="M78.1339 493.16C77.1498 493.16 76.1655 492.708 75.5272 491.884C74.5165 490.609 74.5964 488.802 75.6603 487.607C85.5015 476.66 94.1723 467.016 102.338 457.903C124.84 432.822 144.283 411.142 174.711 377.851C175.11 377.399 175.642 377.08 176.2 376.921L193.994 371.607C264.346 350.565 306.796 337.865 386.111 316.344C387.733 315.919 389.435 316.742 390.074 318.337C390.686 319.904 390.047 321.684 388.558 322.481C320.866 358.642 270.25 387.07 221.31 414.569C176.333 439.836 133.883 463.695 79.7031 492.761C79.1977 493.027 78.6659 493.16 78.1339 493.16ZM178.993 383.005C148.911 415.897 129.601 437.445 107.258 462.34C102.817 467.308 98.2152 472.436 93.3478 477.856C139.655 452.802 177.849 431.334 218.039 408.777C260.595 384.865 304.402 360.262 359.619 330.478C297.54 347.562 257.377 359.598 195.909 377.984L178.993 383.005Z" fill="#191919"/>
<path d="M686.162 459.311C580.541 459.125 525.883 458.859 415.262 458.142C413.693 458.142 412.336 457.026 412.017 455.485C404.889 421.131 399.942 397.565 394.516 371.634C391.271 356.224 387.866 339.99 383.743 320.196C383.477 318.974 383.93 317.725 384.914 316.928C385.871 316.158 387.201 315.972 388.345 316.45C468.086 351.282 523.622 377.08 582.403 404.42C614.64 419.405 647.967 434.894 687.545 452.934C688.981 453.572 689.752 455.14 689.406 456.654C689.061 458.222 687.731 459.311 686.162 459.311ZM418.002 451.526C521.388 452.19 575.833 452.456 670.841 452.642C637.221 437.259 607.99 423.656 579.61 410.477C522.318 383.855 468.112 358.668 391.59 325.165C395.154 342.169 398.16 356.569 401.059 370.305C406.325 395.546 411.166 418.581 418.002 451.526Z" fill="#191919"/>
<path d="M78.1339 493.16C76.671 493.16 75.3676 492.203 74.942 490.795C74.4899 489.281 75.1548 487.66 76.5645 486.916C130.665 457.876 173.115 434.017 218.065 408.777C267.032 381.252 317.674 352.796 385.446 316.61C386.377 316.105 387.467 316.078 388.425 316.53C389.382 316.981 390.047 317.832 390.26 318.868C394.409 338.662 397.814 354.895 401.032 370.305C406.485 396.21 411.432 419.803 418.534 454.157C418.72 455.06 418.507 456.016 417.975 456.787C417.416 457.557 416.592 458.036 415.661 458.142L364.034 463.881C254.345 476.076 188.116 483.409 78.4264 493.16C78.32 493.133 78.2137 493.16 78.1339 493.16ZM384.648 324.554C318.898 359.731 269.293 387.575 221.31 414.542C180.376 437.551 141.49 459.391 93.9594 485.056C194.18 476.023 259.132 468.796 363.316 457.212L411.299 451.898C404.57 419.458 399.782 396.635 394.516 371.634C391.51 357.393 388.372 342.408 384.648 324.554Z" fill="#191919"/>
<path d="M644.802 604.324C644.35 604.324 643.871 604.218 643.445 604.032C641.903 603.341 641.131 601.614 641.637 600.02C659.83 541.967 668.341 512.9 682.943 455.193C683.076 454.635 683.369 454.103 683.794 453.678L696.588 440.58C727.255 409.202 745.767 390.258 776.302 359.412C777.446 358.243 779.281 358.084 780.611 359.067C781.941 360.023 782.366 361.803 781.621 363.264C738.639 447.727 709.834 499.191 647.674 602.703C647.036 603.739 645.946 604.324 644.802 604.324ZM689.167 457.664C677.065 505.514 669.112 533.704 656.266 575.417C704.301 494.913 731.405 446.478 765.929 379.365C743.64 401.949 726.617 419.351 701.349 445.203L689.167 457.664Z" fill="#191919"/>
<path d="M644.802 604.324C644.19 604.324 643.605 604.164 643.073 603.846C573.067 561.017 527.931 531.764 459.627 487.501C445.398 478.281 430.183 468.424 413.48 457.637C412.23 456.84 411.671 455.299 412.097 453.891C412.523 452.483 413.826 451.526 415.289 451.526H415.315C525.936 452.244 580.568 452.509 686.162 452.695C687.172 452.695 688.156 453.174 688.768 453.971C689.406 454.768 689.619 455.83 689.38 456.813C674.751 514.681 666.213 543.827 647.994 601.986C647.675 602.969 646.956 603.739 645.999 604.111C645.6 604.244 645.201 604.324 644.802 604.324ZM426.646 458.222C439.652 466.644 451.781 474.482 463.245 481.921C530.325 525.388 575.062 554.374 642.913 595.955C659.803 541.94 668.261 513.007 681.879 459.311C582.696 459.125 528.33 458.859 426.646 458.222Z" fill="#191919"/>
<path d="M405.208 568.722C404.995 568.722 404.756 568.695 404.516 568.642C295.439 545.899 229.05 529.798 145.001 509.42C123.989 504.319 101.753 498.925 77.3358 493.053C75.7399 492.681 74.6762 491.194 74.8091 489.573C74.9155 487.952 76.2187 486.65 77.8412 486.517C187.478 476.767 253.653 469.434 363.316 457.239L414.943 451.526C415.927 451.42 416.911 451.765 417.629 452.456C418.347 453.147 418.693 454.13 418.613 455.113C414.943 495.976 412.921 518.002 409.57 554.534L408.533 565.693C408.453 566.623 407.974 567.499 407.203 568.057C406.591 568.482 405.9 568.722 405.208 568.722ZM98.561 491.326C115.451 495.418 131.356 499.271 146.597 502.964C229.635 523.103 295.439 539.071 402.229 561.389L402.921 553.949C406.166 518.639 408.187 496.879 411.618 458.567L364.035 463.854C261.207 475.279 196.601 482.452 98.561 491.326Z" fill="#191919"/>
<path d="M500.588 628.342C499.976 628.342 499.391 628.183 498.833 627.837C463.564 606.024 444.147 593.803 408.852 571.644L403.399 568.217C402.336 567.553 401.75 566.357 401.857 565.108L402.894 553.949C406.245 517.417 408.294 495.391 411.937 454.529C412.07 453.041 413.161 451.845 414.624 451.553C416.087 451.261 417.55 452.005 418.214 453.306C425.476 467.654 431.992 480.513 438.03 492.469C461.276 538.353 478.06 571.511 503.541 623.533C504.179 624.862 503.886 626.456 502.796 627.465C502.211 628.05 501.413 628.342 500.588 628.342ZM408.692 563.673L412.416 566.012C444.254 586.018 463.192 597.921 492.529 616.12C469.841 569.917 453.776 538.247 432.125 495.498C427.577 486.491 422.736 476.979 417.55 466.697C414.517 500.466 412.576 521.615 409.544 554.56L408.692 563.673Z" fill="#191919"/>
<path d="M500.588 628.342C499.338 628.342 498.168 627.625 497.609 626.482C472.155 574.487 455.372 541.356 432.125 495.498C426.087 483.542 419.544 470.682 412.31 456.335C411.645 455.007 411.937 453.36 413.054 452.377C414.172 451.393 415.821 451.234 417.071 452.058C433.748 462.845 448.988 472.728 463.218 481.921C531.495 526.158 576.605 555.384 646.531 598.187C647.701 598.904 648.313 600.285 648.073 601.614C647.834 602.942 646.77 604.032 645.413 604.271C589.106 614.606 560.353 619.548 501.093 628.316C500.934 628.316 500.774 628.342 500.588 628.342ZM423.8 464.279C428.88 474.349 433.615 483.675 438.083 492.495C461.01 537.742 477.634 570.608 502.53 621.381C557.055 613.278 585.675 608.442 635.679 599.302C569.822 558.891 525.51 530.17 459.627 487.501C448.377 480.194 436.514 472.516 423.8 464.279Z" fill="#191919"/>
<path d="M-71.3995 547.413C-72.1708 547.413 -72.9421 547.148 -73.5539 546.616C-74.4316 545.872 -74.8571 544.73 -74.671 543.587C-66.5852 491.592 -60.2283 463.456 -43.7376 406.758C-43.445 405.748 -42.6738 404.924 -41.6897 404.553C-40.7056 404.181 -39.5883 404.313 -38.7106 404.924C0.228745 431.015 23.5016 447.355 62.0686 474.482L80.0489 487.102C81.0596 487.793 81.5916 488.988 81.4321 490.211C81.2725 491.433 80.501 492.469 79.3573 492.921C15.0703 518.294 -15.5705 529.718 -70.3887 547.281C-70.7345 547.36 -71.0537 547.413 -71.3995 547.413ZM-38.6309 412.975C-53.5257 464.572 -59.8294 492.283 -67.2768 539.283C-17.4324 523.209 12.8892 511.97 71.1918 488.988L58.2652 479.902C20.975 453.705 -2.00555 437.551 -38.6309 412.975Z" fill="#191919"/>
<path d="M-71.3995 547.413C-72.3836 547.413 -73.3411 546.962 -73.9795 546.191C-118.77 491.034 -140.767 462.738 -176.302 414.622C-177.02 413.639 -177.153 412.337 -176.621 411.221C-176.089 410.105 -174.998 409.388 -173.775 409.335C-123.452 407.103 -96.0824 406.094 -40.6524 404.367C-39.5353 404.34 -38.5777 404.818 -37.9128 405.642C-37.2478 406.466 -37.0617 407.581 -37.3543 408.591C-53.7386 464.997 -60.0689 492.947 -68.1015 544.597C-68.3142 545.899 -69.2451 546.962 -70.5218 547.307C-70.8144 547.387 -71.1069 547.413 -71.3995 547.413ZM-167.258 415.685C-135.128 459.045 -113.584 486.757 -73.5274 536.201C-66.1598 490.104 -59.8028 462.287 -45.041 411.142C-95.1514 412.709 -122.228 413.719 -167.258 415.685Z" fill="#191919"/>
<path d="M609.693 746.653C608.762 746.653 607.884 746.255 607.246 745.564C567.695 702.151 545.326 677.946 498.168 627.279C497.317 626.376 497.051 625.074 497.476 623.932C497.875 622.763 498.912 621.939 500.136 621.753C559.316 612.985 588.015 608.07 644.243 597.735C645.334 597.549 646.451 597.894 647.249 598.691C648.047 599.488 648.339 600.631 648.1 601.72C635.12 660.145 627.939 688.547 612.964 744.209C612.645 745.378 611.714 746.281 610.544 746.574C610.224 746.627 609.958 746.653 609.693 746.653ZM507.344 627.386C550.007 673.27 572.19 697.235 608.07 736.61C621.555 686.395 628.657 658.179 640.466 605.174C589.345 614.526 560.753 619.415 507.344 627.386Z" fill="#191919"/>
<path d="M493.593 796.603C492.901 796.603 492.236 796.39 491.651 795.992C490.72 795.328 490.215 794.238 490.268 793.096C493.939 727.869 495.375 693.303 497.263 624.941C497.29 623.586 498.141 622.391 499.418 621.939C500.695 621.461 502.104 621.806 503.035 622.789C550.22 673.483 572.589 697.687 612.166 741.127C612.884 741.924 613.177 742.987 612.964 744.023C612.751 745.059 612.06 745.936 611.076 746.388C564.077 767.669 540.671 777.898 494.843 796.39C494.444 796.523 494.018 796.603 493.593 796.603ZM503.7 633.231C501.971 694.605 500.535 728.826 497.21 788.234C538.464 771.548 561.63 761.426 604.16 742.19C568.04 702.576 545.938 678.637 503.7 633.231Z" fill="#191919"/>
<path d="M493.593 796.603C493.167 796.603 492.715 796.523 492.289 796.337C435.45 772.399 405.5 758.822 346.639 730.234C345.575 729.702 344.857 728.64 344.778 727.471C344.698 726.302 345.283 725.133 346.267 724.468C402.096 688.016 435.317 666.043 498.7 622.284C499.737 621.567 501.067 621.487 502.184 622.098C503.274 622.683 503.966 623.852 503.913 625.101C502.024 693.542 500.561 728.135 496.891 793.441C496.838 794.53 496.253 795.487 495.322 796.071C494.816 796.417 494.205 796.603 493.593 796.603ZM354.832 726.806C408.639 752.897 438.296 766.341 490.534 788.366C493.885 728.215 495.322 693.941 497.104 631.451C438.961 671.57 406.219 693.25 354.832 726.806Z" fill="#191919"/>
<path d="M148.538 689.557C148.086 689.557 147.661 689.477 147.235 689.291C146.411 688.946 145.772 688.282 145.426 687.458C114.865 609.93 99.944 570.449 74.942 490.822C74.5963 489.679 74.8621 488.43 75.6867 487.554C76.5112 486.677 77.7348 486.305 78.9051 486.597C103.322 492.469 125.558 497.862 146.597 502.964C230.566 523.342 296.901 539.443 405.9 562.133C407.283 562.425 408.346 563.567 408.506 564.949C408.692 566.357 407.948 567.712 406.697 568.35L397.282 573.026C292.194 625.34 239.423 651.59 149.815 689.265C149.416 689.477 148.964 689.557 148.538 689.557ZM83.0544 494.435C106.593 569.067 121.435 608.389 150.374 681.852C237.881 644.974 290.571 618.751 394.303 567.101L395.154 566.676C291.582 544.969 226.63 529.214 145.027 509.393C125.664 504.717 105.264 499.775 83.0544 494.435Z" fill="#191919"/>
<path d="M148.538 689.557C147.9 689.557 147.288 689.371 146.73 689.025C121.701 672.765 100.104 658.684 80.1818 645.692C28.2361 611.816 -12.7778 585.062 -73.1816 546.935C-74.2721 546.244 -74.8573 544.996 -74.6977 543.72C-74.5381 542.445 -73.6338 541.382 -72.4103 540.984C-17.7782 523.475 12.7828 512.103 76.9103 486.783C77.7614 486.438 78.719 486.491 79.5701 486.863C80.3946 487.261 81.0331 487.979 81.299 488.856C106.221 568.27 121.116 607.672 151.624 685.04C152.156 686.395 151.757 687.91 150.64 688.839C150.028 689.291 149.283 689.557 148.538 689.557ZM-63.633 545.102C-6.44757 581.262 33.5824 607.379 83.7992 640.139C101.38 651.59 120.265 663.918 141.623 677.813C114.014 607.592 99.3322 568.27 76.0059 494.249C16.6394 517.656 -13.8684 529.028 -63.633 545.102Z" fill="#191919"/>
<path d="M348.102 730.553C347.384 730.553 346.666 730.313 346.054 729.862C344.937 728.985 344.485 727.524 344.937 726.169C364.301 668.992 375.711 637.376 396.404 579.96L402.069 564.258C402.415 563.302 403.16 562.558 404.118 562.239C405.075 561.92 406.112 562.026 406.964 562.558L412.416 565.985C447.685 588.143 467.101 600.365 502.344 622.178C503.301 622.763 503.886 623.799 503.913 624.915C503.939 626.031 503.407 627.093 502.477 627.731C439.041 671.543 405.793 693.516 349.911 729.995C349.379 730.393 348.741 730.553 348.102 730.553ZM406.937 570.395L402.681 582.192C383.132 636.446 371.881 667.664 354.353 719.181C404.25 686.581 436.913 664.901 494.524 625.154C461.941 604.962 442.684 592.873 408.879 571.618L406.937 570.395Z" fill="#191919"/>
<path d="M348.102 730.553C347.916 730.553 347.757 730.526 347.57 730.499C265.782 717.295 225.938 708.66 147.741 689.451C146.357 689.105 145.32 687.91 145.214 686.475C145.107 685.04 145.905 683.712 147.235 683.154C236.631 645.559 289.321 619.335 394.303 567.101L403.719 562.425C404.942 561.814 406.405 562 407.416 562.903C408.426 563.806 408.799 565.241 408.347 566.516L402.681 582.219C382.015 639.581 370.604 671.198 351.268 728.294C350.789 729.676 349.512 730.553 348.102 730.553ZM159.071 685.386C229.928 702.708 269.585 711.131 345.868 723.512C364.7 668.009 376.057 636.472 396.431 579.96L399.277 572.043L397.282 573.026C295.837 623.533 243.174 649.757 159.071 685.386Z" fill="#191919"/>
<path d="M13.1286 724.707C11.9051 724.707 10.7879 724.043 10.2027 722.954C-28.4972 650.182 -46.1581 614.34 -74.4582 545.368C-75.0168 544.039 -74.6179 542.498 -73.5274 541.568C-72.4103 540.638 -70.8411 540.532 -69.6176 541.303C-9.18716 579.455 31.8534 606.237 83.8257 640.112C103.747 653.104 125.345 667.186 150.374 683.446C151.464 684.137 152.023 685.412 151.863 686.661C151.704 687.936 150.799 688.999 149.576 689.371C91.4859 707.863 63.7177 715.568 13.7403 724.628C13.5275 724.707 13.3148 724.707 13.1286 724.707ZM-64.3511 552.488C-38.6575 614.393 -21.0498 649.996 14.9106 717.667C61.0845 709.191 88.4272 701.779 140.825 685.173C118.27 670.534 98.5077 657.621 80.1551 645.665C30.7894 613.49 -8.7083 587.718 -64.3511 552.488Z" fill="#191919"/>
<path d="M13.1286 724.707C12.7296 724.707 12.304 724.628 11.9051 724.468C-50.1478 700.025 -80.5492 686.714 -135.022 661.474C-136.644 660.73 -137.389 658.817 -136.697 657.169C-121.483 620.903 -107.759 596.699 -74.2455 542.339C-73.5806 541.276 -72.3836 540.691 -71.1335 540.771C-69.8834 540.877 -68.7928 541.674 -68.3141 542.817C-40.1203 611.524 -22.5126 647.259 16.081 719.819C16.7459 721.041 16.5598 722.555 15.6288 723.592C14.9639 724.335 14.0595 724.707 13.1286 724.707ZM-129.33 656.824C-79.2724 679.992 -49.3498 693.117 5.94717 715.01C-28.7631 649.571 -46.1581 613.995 -72.0112 551.425C-101.96 600.126 -115.286 623.772 -129.33 656.824Z" fill="#191919"/>
<path d="M-133.638 661.792C-133.771 661.792 -133.931 661.792 -134.064 661.766C-135.554 661.58 -136.724 660.411 -136.937 658.949L-156.167 523.74C-156.327 522.651 -155.928 521.535 -155.103 520.791C-154.278 520.047 -153.135 519.755 -152.044 520.047L-141.192 522.837C-116.323 529.214 -100.125 533.385 -70.6016 540.877C-69.5643 541.143 -68.7397 541.86 -68.3407 542.844C-67.9417 543.827 -68.0482 544.942 -68.5802 545.846C-101.907 599.86 -115.525 623.905 -130.553 659.773C-131.085 661.022 -132.309 661.792 -133.638 661.792ZM-148.853 527.726L-131.989 646.303C-118.797 616.439 -105.046 592.421 -76.5861 546.218C-103.397 539.39 -119.196 535.351 -142.815 529.267L-148.853 527.726Z" fill="#191919"/>
<path d="M-71.3995 547.413C-71.6655 547.413 -71.9581 547.387 -72.2241 547.307C-101.774 539.788 -117.972 535.643 -142.841 529.267L-153.693 526.477C-154.944 526.158 -155.901 525.149 -156.14 523.873L-176.94 413.267C-177.233 411.753 -176.435 410.238 -174.998 409.601C-173.589 408.99 -171.913 409.415 -171.009 410.663C-135.527 458.7 -113.584 486.916 -68.8727 541.993C-67.9684 543.109 -67.8886 544.677 -68.6599 545.872C-69.2185 546.855 -70.2824 547.413 -71.3995 547.413ZM-149.97 520.579L-141.166 522.837C-119.169 528.496 -103.955 532.402 -80.2832 538.407C-117.361 492.628 -138.559 465.448 -167.684 426.233L-149.97 520.579Z" fill="#191919"/>
<path d="M609.693 746.653C608.895 746.653 608.097 746.361 607.485 745.803C606.554 744.979 606.155 743.678 606.501 742.455C621.449 686.9 628.63 658.578 641.583 600.259C641.823 599.169 642.594 598.266 643.658 597.868C644.695 597.469 645.866 597.629 646.797 598.266C697.093 634.533 720.792 651.165 762.099 678.292C763.109 678.956 763.694 680.125 763.588 681.347C763.482 682.569 762.71 683.632 761.593 684.11C702.971 709.537 672.916 722.29 610.943 746.388C610.517 746.574 610.118 746.653 609.693 746.653ZM646.956 606.635C635.147 659.587 628.045 687.83 614.613 737.859C670.442 716.073 700.258 703.479 753.268 680.523C716.057 655.974 692.492 639.448 646.956 606.635Z" fill="#191919"/>
<path d="M737.575 784.647C737.336 784.647 737.123 784.62 736.884 784.567C690.071 774.604 663.793 766.314 608.576 746.441C607.272 745.963 606.394 744.74 606.368 743.359C606.341 741.977 607.192 740.728 608.496 740.224C670.362 716.179 700.365 703.426 758.907 678.052C760.024 677.574 761.327 677.734 762.285 678.504C763.242 679.275 763.721 680.497 763.482 681.692C756.034 722.582 751.38 743.253 740.767 782.176C740.395 783.664 739.065 784.647 737.575 784.647ZM619.188 743.199C667.357 760.389 693.05 768.334 735.208 777.42C744.757 742.19 749.198 722.688 755.848 686.634C703.503 709.324 673.74 721.891 619.188 743.199Z" fill="#191919"/>
<path d="M578.892 799.047C553.917 799.047 526.361 798.17 493.433 796.603C491.864 796.523 490.587 795.381 490.321 793.84C490.055 792.299 490.906 790.784 492.343 790.2C538.065 771.761 561.417 761.558 608.336 740.303C609.134 739.958 610.012 739.905 610.836 740.197C665.734 759.938 691.854 768.174 738.293 778.058C739.863 778.403 740.953 779.785 740.927 781.379C740.9 782.973 739.73 784.328 738.16 784.594C677.411 794.743 634.641 799.047 578.892 799.047ZM508.913 790.651C597.91 794.504 646.797 792.299 719.941 780.821C683.263 772.372 657.25 763.923 609.879 746.919C568.652 765.57 545.618 775.693 508.913 790.651Z" fill="#191919"/>
<path d="M644.802 604.324C643.791 604.324 642.834 603.872 642.195 603.049C641.344 601.959 641.238 600.471 641.956 599.276C704.035 495.923 732.788 444.539 775.69 360.236C776.408 358.827 778.031 358.11 779.547 358.535C781.063 358.96 782.074 360.422 781.967 361.989C775.69 441.271 768.987 485.774 750.715 569.094C750.449 570.236 749.624 571.193 748.48 571.538C708.876 584.318 687.97 591.013 645.813 604.138C645.467 604.271 645.148 604.324 644.802 604.324ZM773.961 378.249C736.033 452.164 707.573 502.778 652.143 595.237C688.289 583.972 708.876 577.357 744.624 565.826C761.194 490.078 768.11 446.531 773.961 378.249Z" fill="#191919"/>
<path d="M760.237 684.429C759.598 684.429 758.96 684.243 758.401 683.871C716.988 656.665 693.237 639.979 642.86 603.66C641.85 602.916 641.318 601.667 641.53 600.445C641.743 599.223 642.621 598.186 643.818 597.814C685.975 584.716 706.855 577.994 746.432 565.241C747.39 564.922 748.427 565.082 749.252 565.613C750.076 566.144 750.635 567.048 750.741 568.031L763.508 680.736C763.641 682.011 763.056 683.26 761.939 683.951C761.434 684.27 760.822 684.429 760.237 684.429ZM652.143 602.172C696.428 634.054 719.808 650.474 756.114 674.413L744.597 572.787C709.461 584.132 688.848 590.747 652.143 602.172Z" fill="#191919"/>
<path d="M169.418 781.645C169.072 781.645 168.726 781.591 168.381 781.485C103.375 760.443 72.2823 748.805 11.8785 724.468C10.4954 723.91 9.67093 722.529 9.80392 721.041C9.9369 719.553 11.0539 718.384 12.5168 718.118C62.1219 709.112 89.7305 701.46 147.501 683.074C148.405 682.782 149.39 682.888 150.188 683.366C151.012 683.845 151.571 684.642 151.757 685.571C159.39 722.369 163.486 740.41 172.609 777.553C172.902 778.722 172.53 779.944 171.652 780.768C171.04 781.352 170.242 781.645 169.418 781.645ZM24.9646 722.582C76.7773 743.359 107.525 754.757 164.763 773.355C156.864 741.1 152.821 723.14 146.038 690.54C94.7309 706.8 67.202 714.505 24.9646 722.582Z" fill="#191919"/>
<path d="M-54.2172 745.086C-55.1215 745.086 -55.9993 744.714 -56.6377 744.05C-89.2999 709.377 -105.923 692.054 -136.006 660.783C-137.123 659.64 -137.256 657.86 -136.325 656.558C-135.394 655.256 -133.665 654.805 -132.229 655.469C-77.8627 680.656 -47.5678 693.941 14.3521 718.304C15.6288 718.809 16.48 720.058 16.4534 721.413C16.4268 722.768 15.5757 724.017 14.299 724.495C-16.8471 736.185 -30.1727 740.224 -53.5522 745.033C-53.7916 745.086 -54.0044 745.086 -54.2172 745.086ZM-119.01 668.886C-96.3748 692.453 -80.3097 709.271 -53.1001 738.151C-33.3113 734.033 -20.5974 730.313 3.81944 721.307C-46.823 701.247 -76.2136 688.547 -119.01 668.886Z" fill="#191919"/>
<path d="M169.418 781.645C169.232 781.645 169.072 781.618 168.886 781.591L-54.7492 745.033C-56.3451 744.767 -57.5154 743.412 -57.542 741.818C-57.5686 740.224 -56.4515 738.816 -54.8822 738.497C-31.9016 733.794 -18.7888 729.809 11.9849 718.251C12.7563 717.959 13.6339 717.959 14.4053 718.278C74.6495 742.535 105.636 754.172 170.482 775.135C172.131 775.667 173.088 777.393 172.689 779.067C172.264 780.635 170.934 781.645 169.418 781.645ZM-36.769 741.26L128.244 768.227C87.8952 754.544 58.9301 743.412 13.0754 724.947C-9.18706 733.289 -22.2466 737.673 -36.769 741.26Z" fill="#191919"/>
<path d="M169.418 781.645C167.928 781.645 166.572 780.635 166.2 779.121C157.05 741.898 152.954 723.778 145.294 686.9C145.054 685.784 145.427 684.615 146.251 683.844C147.076 683.047 148.246 682.729 149.363 683.021C227.375 702.204 267.112 710.812 348.688 723.964C350.204 724.203 351.347 725.451 351.48 726.966C351.613 728.48 350.682 729.888 349.22 730.393C272.378 756.112 235.726 767.111 170.189 781.591C169.897 781.618 169.657 781.645 169.418 781.645ZM152.874 690.726C159.63 723.113 163.699 741.1 171.865 774.391C231.471 761.133 267.351 750.586 334.272 728.347C262.936 716.604 223.465 708.022 152.874 690.726Z" fill="#191919"/>
<path d="M778.642 365.071C778.004 365.071 777.366 364.885 776.807 364.513C738.48 339.352 709.594 320.17 679.007 299.845C649.35 280.157 618.656 259.779 578.254 233.21C577.27 232.546 576.685 231.43 576.764 230.234C576.844 229.039 577.536 227.976 578.626 227.471C651.558 191.656 685.39 176.22 741.937 155.416C742.815 155.097 743.799 155.15 744.624 155.602C745.448 156.054 746.06 156.824 746.299 157.728C766.514 237.487 773.855 279.387 781.94 361.431C782.073 362.707 781.435 363.929 780.345 364.593C779.839 364.912 779.254 365.071 778.642 365.071ZM586.792 230.898C624.853 255.926 654.244 275.428 682.704 294.345C711.722 313.607 739.198 331.86 774.653 355.161C766.992 279.227 759.651 237.78 740.767 162.962C687.89 182.516 654.457 197.714 586.792 230.898Z" fill="#191919"/>
<path d="M743.108 161.872C742.097 161.872 741.113 161.421 740.474 160.597L729.383 146.356C679.379 82.1126 649.19 43.3486 598.468 -24.0832C597.458 -25.4116 597.617 -27.298 598.814 -28.4671C600.011 -29.6361 601.899 -29.7424 603.203 -28.6796C635.732 -2.88123 659.404 16.089 684.486 36.175C701.296 49.6454 719.169 63.9661 741.458 81.7407C742.15 82.2986 742.602 83.0957 742.682 83.999C745.634 112.242 746.353 126.881 746.406 158.578C746.406 159.986 745.501 161.261 744.171 161.713C743.826 161.819 743.453 161.872 743.108 161.872ZM619.481 -7.29166C661.213 47.9185 690.018 84.9555 734.623 142.265L739.73 148.827C739.543 124.277 738.719 110.116 736.219 86.0448C714.435 68.6688 696.854 54.5873 680.31 41.3294C660.814 25.6803 642.142 10.722 619.481 -7.29166Z" fill="#191919"/>
<path d="M739.384 87.6389C738.639 87.6389 737.921 87.3998 737.309 86.9216C715.02 69.147 697.146 54.8264 680.31 41.356C655.228 21.2699 631.556 2.29971 599.053 -23.4721C597.883 -24.402 597.484 -25.9696 598.043 -27.3512C598.628 -28.7327 600.038 -29.5298 601.5 -29.3704L696.295 -17.9989C697.412 -17.8661 698.397 -17.1753 698.902 -16.1391C717.6 22.5452 726.564 42.9501 742.469 83.1222C743.028 84.5304 742.576 86.1245 741.352 87.0013C740.767 87.3998 740.076 87.6389 739.384 87.6389ZM612.379 -21.4263C640.307 0.758713 661.824 17.9753 684.459 36.1219C698.742 47.5465 713.77 59.6088 731.644 73.8763C718.638 41.4622 710.126 22.3326 693.689 -11.6755L612.379 -21.4263Z" fill="#191919"/>
<path d="M739.384 87.6389C738.027 87.6389 736.804 86.8153 736.299 85.54C720.287 45.0756 711.775 25.6803 692.917 -13.2697C692.332 -14.4918 692.545 -15.9265 693.449 -16.9362C694.354 -17.9458 695.79 -18.2912 697.067 -17.8395L756.406 3.761C757.949 4.31894 758.854 5.93964 758.534 7.53377L742.682 84.9555C742.389 86.3902 741.193 87.4795 739.703 87.5858C739.57 87.6124 739.49 87.6389 739.384 87.6389ZM702.466 -8.80608C717.255 22.0138 725.872 41.5419 738.373 72.7604L751.433 9.02164L702.466 -8.80608Z" fill="#191919"/>
<path d="M851.148 197.501C850.776 197.501 850.377 197.448 850.005 197.289C807.182 181.746 786.01 174.758 742.15 161.74C740.74 161.314 739.783 160.039 739.783 158.551C739.73 127.147 739.012 112.64 736.086 84.6632C735.953 83.2551 736.698 81.9266 737.974 81.3156C739.251 80.7045 740.767 80.9702 741.751 81.9798C785.585 125.925 808.565 148.482 853.462 191.789C854.579 192.878 854.792 194.605 853.968 195.934C853.356 196.917 852.265 197.501 851.148 197.501ZM746.406 156.08C783.191 167.027 804.788 174.014 837.663 185.784C801.889 151.218 779.706 129.379 743.613 93.2715C745.741 115.164 746.326 129.644 746.406 156.08Z" fill="#191919"/>
<path d="M866.016 122.577C865.724 122.577 865.431 122.55 865.139 122.471L738.506 87.5327C736.831 87.0544 735.793 85.3806 736.139 83.6536L751.991 6.2319C752.231 5.00974 753.162 4.02669 754.359 3.70786C755.555 3.36246 756.859 3.73442 757.683 4.66434C779.52 28.2575 798.804 47.3074 819.231 67.4732C834.844 82.8831 850.989 98.8244 868.41 116.998C869.448 118.087 869.634 119.708 868.862 121.009C868.251 121.966 867.16 122.577 866.016 122.577ZM743.267 81.9266L855.191 112.826C840.988 98.2399 827.609 85.0086 814.576 72.1493C795.479 53.2854 777.366 35.4311 757.231 13.8572L743.267 81.9266Z" fill="#191919"/>
<path d="M851.148 197.501C850.297 197.501 849.473 197.182 848.834 196.571C803.884 153.238 780.903 130.627 737.017 86.6559C735.953 85.5931 735.74 83.9459 736.511 82.644C737.283 81.3421 738.826 80.731 740.262 81.103L866.894 116.041C868.57 116.493 869.607 118.193 869.262 119.894L854.393 194.818C854.154 196.013 853.276 196.97 852.133 197.342C851.813 197.448 851.494 197.501 851.148 197.501ZM750.608 90.8538C787.526 127.785 810.028 149.89 849.074 187.538L862.16 121.621L750.608 90.8538Z" fill="#191919"/>
<path d="M854.899 277.341C854.021 277.341 853.143 276.995 852.505 276.331C808.459 231.217 786.01 208.155 740.687 160.836C739.65 159.747 739.464 158.1 740.262 156.798C741.06 155.522 742.602 154.911 744.039 155.336C787.553 168.249 809.789 175.609 852.265 191.018C853.462 191.444 854.287 192.506 854.42 193.755C857.904 223.858 858.675 240.357 858.197 274.046C858.17 275.375 857.346 276.597 856.095 277.075C855.723 277.288 855.324 277.341 854.899 277.341ZM754.199 165.326C792.048 204.781 814.044 227.444 851.68 265.969C851.92 238.284 851.095 222.928 848.089 196.598C810.586 182.995 789.681 176.007 754.199 165.326Z" fill="#191919"/>
<path d="M854.899 277.341C854.234 277.341 853.569 277.128 852.984 276.73C852.079 276.092 851.547 275.056 851.574 273.966C852.053 240.224 851.334 224.628 847.85 194.526C847.717 193.277 848.276 192.055 849.339 191.364C850.403 190.673 851.733 190.646 852.824 191.284C878.225 206.056 894.716 215.701 914.026 226.993L942.858 243.837C944.028 244.528 944.666 245.857 944.454 247.212C944.241 248.567 943.23 249.629 941.9 249.948C912.297 256.75 895.434 262.09 856.042 277.128C855.697 277.288 855.297 277.341 854.899 277.341ZM855.191 200.371C857.877 225.08 858.596 241.127 858.276 269.184C891.231 256.67 908.174 251.197 932.325 245.378L910.674 232.732C892.854 222.317 877.427 213.31 855.191 200.371Z" fill="#191919"/>
<path d="M941.182 250.028C940.597 250.028 940.038 249.868 939.506 249.576L910.674 232.732C891.364 221.44 874.874 211.795 849.473 197.05C848.249 196.332 847.611 194.924 847.877 193.543L862.745 118.618C863.011 117.316 863.995 116.307 865.298 116.014C866.575 115.722 867.932 116.227 868.703 117.29C874.262 124.915 879.342 131.77 884.05 138.067C910.595 173.802 925.223 193.463 944.321 245.538C944.799 246.866 944.401 248.328 943.337 249.231C942.725 249.762 941.953 250.028 941.182 250.028ZM854.872 192.48C879.129 206.588 895.248 215.993 914.026 226.993L934.799 239.135C917.643 194.472 904.131 176.273 878.704 142.052C875.299 137.456 871.655 132.593 867.798 127.333L854.872 192.48Z" fill="#191919"/>
<path d="M778.642 365.071C778.297 365.071 777.951 365.018 777.632 364.912C776.382 364.513 775.477 363.397 775.344 362.069C767.285 280.423 759.997 238.736 739.863 159.348C739.49 157.887 740.155 156.346 741.485 155.629C742.815 154.911 744.464 155.15 745.501 156.24C790.824 203.559 813.246 226.621 857.292 271.708C858.489 272.93 858.569 274.896 857.425 276.198C831.226 306.699 815.959 324.155 782.472 362.441L781.169 363.955C780.531 364.673 779.6 365.071 778.642 365.071ZM749.385 169.896C766.727 239.56 773.828 280.848 781.196 353.779C811.278 319.373 826.386 302.103 850.403 274.152C810.613 233.422 788.404 210.6 749.385 169.896Z" fill="#191919"/>
<path d="M925.995 395.519C925.782 395.519 925.542 395.492 925.33 395.439C901.498 390.524 882.401 386.565 863.569 382.66C838.275 377.399 813.406 372.245 778.004 364.991C776.834 364.752 775.903 363.929 775.53 362.786C775.158 361.644 775.398 360.422 776.169 359.545L777.499 358.03C810.959 319.771 826.226 302.289 852.398 271.841C853.09 271.044 854.101 270.619 855.164 270.699C856.228 270.778 857.159 271.336 857.745 272.24C889.396 321.844 904.131 345.915 928.921 390.577C929.559 391.72 929.452 393.101 928.681 394.164C928.016 395.041 927.032 395.519 925.995 395.519ZM784.919 359.651C817.396 366.32 840.961 371.209 864.899 376.177C881.842 379.684 898.945 383.244 919.558 387.495C897.508 348.014 882.959 324.235 854.5 279.599C830.668 307.31 815.48 324.686 784.919 359.651Z" fill="#191919"/>
<path d="M925.995 395.519C925.941 395.519 925.888 395.519 925.835 395.519C924.691 395.466 923.654 394.828 923.096 393.819C898.36 349.289 883.678 325.298 852.106 275.826C851.281 274.551 851.441 272.877 852.478 271.761C853.516 270.645 855.165 270.406 856.521 271.124C903.706 297.214 925.463 309.17 967.221 331.435C968.046 331.887 968.658 332.657 968.897 333.587C969.136 334.517 968.95 335.473 968.418 336.244L928.734 394.084C928.096 394.988 927.085 395.519 925.995 395.519ZM864.713 283.239C890.646 324.022 904.876 347.483 926.287 385.875L960.811 335.527C924.558 316.211 903.174 304.494 864.713 283.239Z" fill="#191919"/>
<path d="M965.626 337.705C965.094 337.705 964.562 337.572 964.056 337.307C922.271 315.015 900.487 303.033 853.276 276.942C852.132 276.305 851.468 275.082 851.574 273.807C851.654 272.532 852.505 271.389 853.702 270.938C893.439 255.767 910.462 250.373 940.437 243.492C942.086 243.12 943.736 244.023 944.294 245.591C956.848 279.812 961.902 297.958 968.87 333.773C969.11 335.022 968.605 336.324 967.594 337.068C967.035 337.466 966.344 337.705 965.626 337.705ZM862.772 274.578C903.413 297.055 924.984 308.878 961.024 328.14C954.933 297.772 950.093 280.821 939.081 250.612C912.882 256.723 896.285 261.931 862.772 274.578Z" fill="#191919"/>
<path d="M747.47 571.724C746.911 571.724 746.379 571.591 745.874 571.299C744.597 570.581 743.932 569.12 744.225 567.685C762.418 484.737 769.12 440.394 775.344 361.484C775.424 360.528 775.903 359.651 776.648 359.093C777.419 358.509 778.376 358.296 779.307 358.482C814.709 365.735 839.578 370.89 864.873 376.15C883.704 380.056 902.801 384.015 926.633 388.93C927.83 389.169 928.814 390.072 929.16 391.242C929.506 392.411 929.187 393.686 928.282 394.563C896.471 425.648 871.309 450.623 842.132 479.503C816.518 504.903 787.473 533.677 749.757 570.741C749.145 571.378 748.321 571.724 747.47 571.724ZM781.674 365.762C775.77 439.225 769.306 483.037 753.082 558.227C786.967 524.909 813.698 498.394 837.477 474.827C865.272 447.275 889.449 423.31 919.186 394.217C898.147 389.886 880.752 386.273 863.543 382.686C839.126 377.612 815.135 372.617 781.674 365.762Z" fill="#191919"/>
<path d="M839.392 573.398C813.406 573.398 784.334 572.813 747.363 571.724C746.033 571.697 744.863 570.847 744.358 569.625C743.879 568.376 744.172 566.968 745.129 566.038C782.845 529.001 811.863 500.227 837.477 474.827C866.655 445.92 891.843 420.945 923.654 389.833C924.505 388.983 925.782 388.691 926.926 389.036C928.096 389.382 928.974 390.338 929.213 391.507L966.955 564.285C967.168 565.215 966.955 566.198 966.37 566.968C965.785 567.739 964.907 568.217 963.95 568.297C916.579 571.804 882.188 573.398 839.392 573.398ZM755.343 565.294C845.935 567.871 888.146 567.154 959.641 561.947L924 398.76C894.184 427.933 869.98 451.925 842.158 479.503C817.821 503.654 790.372 530.861 755.343 565.294Z" fill="#191919"/>
<path d="M760.237 684.429C759.731 684.429 759.199 684.323 758.747 684.084C757.736 683.579 757.071 682.596 756.938 681.48L744.172 568.775C744.065 567.818 744.384 566.862 745.023 566.144C745.688 565.427 746.592 565.028 747.576 565.082C845.244 567.951 887.614 567.287 963.498 561.681C965.067 561.548 966.477 562.558 966.929 564.045C967.381 565.533 966.716 567.154 965.36 567.898C905.036 601.348 865.484 624.224 810.693 655.841C795.851 664.396 779.839 673.669 761.912 684.004C761.38 684.27 760.795 684.429 760.237 684.429ZM751.193 571.83L762.95 675.714C779.121 666.389 793.723 657.966 807.341 650.102C858.09 620.796 895.78 599.037 949.002 569.386C882.773 573.956 839.924 574.407 751.193 571.83Z" fill="#191919"/>
<path d="M862.878 746.175C862.399 746.175 861.92 746.069 861.442 745.856C829.205 730.579 807.421 716.976 758.348 683.871C757.391 683.233 756.859 682.144 756.885 681.002C756.939 679.859 757.55 678.823 758.534 678.239C776.461 667.903 792.473 658.657 807.315 650.102C862.107 618.458 901.711 595.583 962.088 562.106C963.391 561.389 965.014 561.601 966.051 562.664C967.088 563.727 967.328 565.347 966.583 566.649L865.75 744.501C865.165 745.564 864.048 746.175 862.878 746.175ZM766.487 681.32C810.773 711.131 832.104 724.389 861.495 738.497L954.986 573.61C900.354 604.005 862.24 626.031 810.666 655.814C797.128 663.652 782.579 672.048 766.487 681.32Z" fill="#191919"/>
<path d="M737.575 784.647C736.671 784.647 735.82 784.275 735.181 783.637C734.357 782.787 734.064 781.591 734.357 780.449C745.023 741.26 749.438 721.652 756.938 680.497C757.151 679.381 757.896 678.478 758.907 678.026C759.944 677.574 761.141 677.707 762.072 678.345C810.826 711.237 832.423 724.734 864.288 739.825C865.485 740.383 866.229 741.605 866.176 742.934C866.123 744.262 865.298 745.431 864.075 745.909C817.369 764.215 791.489 772.159 738.32 784.54C738.081 784.62 737.841 784.647 737.575 784.647ZM762.577 686.714C756.008 722.502 751.406 742.827 742.23 776.836C788.776 765.889 814.071 758.184 854.526 742.535C826.785 728.905 805.24 715.408 762.577 686.714Z" fill="#191919"/>
<path d="M382.494 800.455C312.727 800.455 252.403 794.663 168.886 781.618C167.317 781.379 166.12 780.024 166.067 778.43C166.013 776.836 167.104 775.427 168.673 775.082C233.918 760.682 270.437 749.709 347.039 724.096C347.863 723.831 348.767 723.884 349.539 724.256C408.267 752.791 438.136 766.341 494.87 790.2C496.306 790.811 497.104 792.299 496.865 793.813C496.599 795.328 495.322 796.47 493.779 796.576C452.047 799.1 416.167 800.455 382.494 800.455ZM187.292 777.712C295.811 793.973 366.109 797.081 479.177 790.784C430.875 770.3 401.272 756.75 347.89 730.818C278.842 753.907 242.296 765.066 187.292 777.712Z" fill="#191919"/>
<path d="M36.8007 846.818C35.8698 846.818 34.9389 846.419 34.3005 845.702C-1.07466 805.53 -19.4537 785.072 -56.6907 744.023C-57.6483 742.987 -57.8346 741.446 -57.143 740.197C-56.4515 738.948 -55.0949 738.284 -53.6852 738.497L169.95 775.056C171.333 775.268 172.423 776.357 172.689 777.712C172.955 779.094 172.317 780.476 171.093 781.193C105.849 819.479 77.4423 834.304 37.7849 846.685C37.4657 846.765 37.1199 846.818 36.8007 846.818ZM-45.3866 746.6C-12.751 782.601 5.44189 802.9 37.8647 839.698C74.224 828.167 101.7 814.085 159.789 780.13L-45.3866 746.6Z" fill="#191919"/>
<path d="M250.036 889.86C249.983 889.86 249.93 889.86 249.85 889.86C154.975 884.891 110.902 875.991 35.5772 846.605C34.2739 846.101 33.4227 844.799 33.4758 843.391C33.529 841.982 34.46 840.76 35.8165 840.335C74.8356 828.167 102.976 813.474 167.742 775.481C169.205 774.63 171.067 775.002 172.078 776.357C205.272 820.488 221.842 842.647 252.722 884.572C253.494 885.609 253.573 886.99 252.962 888.106C252.377 889.195 251.233 889.86 250.036 889.86ZM46.7217 843.789C114.254 869.481 157.555 878.036 243.174 882.845C215.459 845.25 199.021 823.278 168.54 782.707C110.025 816.981 81.5117 832.072 46.7217 843.789Z" fill="#191919"/>
<path d="M250.036 889.86C248.999 889.86 247.988 889.381 247.35 888.505C216.496 846.605 199.926 824.447 166.758 780.343C165.934 779.253 165.88 777.792 166.572 776.65C167.263 775.481 168.593 774.869 169.923 775.082C293.204 794.371 365.763 797.719 493.38 789.987C495.003 789.908 496.412 790.944 496.811 792.485C497.21 794.026 496.439 795.646 494.976 796.311C386.909 846.101 334.458 866.187 250.914 889.753C250.621 889.806 250.329 889.86 250.036 889.86ZM176.972 782.867C206.495 822.135 222.88 844.055 251.339 882.713C329.005 860.714 380.02 841.504 476.198 797.612C361.401 803.856 290.252 800.243 176.972 782.867Z" fill="#191919"/>
<path d="M434.466 910.344C369.647 910.344 323.739 904.898 249.371 889.806C247.855 889.488 246.764 888.212 246.711 886.671C246.658 885.13 247.642 883.775 249.132 883.35C332.25 859.89 384.515 839.884 492.21 790.279C493.327 789.775 494.657 789.908 495.641 790.651C496.625 791.395 497.104 792.644 496.891 793.866C488.885 839.644 484.736 862.414 476.544 907.076C476.251 908.617 474.921 909.76 473.352 909.786C459.494 910.132 446.647 910.344 434.466 910.344ZM264.106 885.954C342.703 901.364 389.781 905.19 470.453 903.197C477.953 862.308 482.049 839.724 489.204 798.914C390.712 844.161 338.793 864.327 264.106 885.954Z" fill="#191919"/>
<path d="M473.245 909.786C472.474 909.786 471.729 909.521 471.118 909.016C470.187 908.245 469.761 907.05 469.974 905.854C478.166 861.192 482.289 838.449 490.295 792.697C490.587 791.05 492.024 789.854 493.726 789.961C599.639 795.088 649.669 792.644 737.017 778.058C738.612 777.792 740.182 778.722 740.714 780.263C741.246 781.804 740.581 783.478 739.144 784.275C631.583 842.434 577.536 870.039 474.416 909.6C474.07 909.707 473.671 909.786 473.245 909.786ZM496.359 796.736C489.018 838.635 484.922 861.245 477.581 901.231C571.179 865.097 624.454 838.475 718.691 787.729C643.02 799.472 592.856 801.305 496.359 796.736Z" fill="#191919"/>
<path d="M743.427 882.899C743.134 882.899 742.868 882.872 742.576 882.792C741.166 882.447 740.209 881.118 740.102 879.684L734.251 781.538C734.144 779.918 735.235 778.483 736.804 778.111C789.601 765.836 815.268 757.945 861.628 739.772C863.064 739.214 864.687 739.692 865.564 740.968C866.442 742.216 866.362 743.917 865.352 745.059C833.088 781.777 748.773 877.85 746.14 881.384C745.555 882.367 744.544 882.899 743.427 882.899ZM741.06 783.93L746.246 871.049C763.96 850.484 818.885 787.888 851.414 750.851C813.034 765.491 787.5 773.063 741.06 783.93Z" fill="#191919"/>
<path d="M563.412 967.334C562.322 967.334 561.258 966.776 560.62 965.82C559.795 964.545 559.928 962.871 560.965 961.755C628.418 889.036 665.867 849.741 735.208 778.988C736.139 778.058 737.522 777.739 738.746 778.191C739.969 778.642 740.82 779.785 740.9 781.113L746.752 879.259C746.831 880.481 746.22 881.65 745.156 882.287C674.671 924.957 637.514 942.413 564.476 967.148C564.13 967.281 563.758 967.334 563.412 967.334ZM734.703 789.004C666.852 858.322 631.317 895.784 574.823 956.601C638.738 934.389 675.203 916.827 739.969 877.664L734.703 789.004Z" fill="#191919"/>
<path d="M563.412 967.334C562.827 967.334 562.242 967.175 561.737 966.883C530.271 948.391 511.6 936.249 471.41 909.228C470.373 908.538 469.814 907.342 469.974 906.093C470.107 904.871 470.931 903.808 472.075 903.357C574.823 863.955 628.737 836.403 736.006 778.403C737.442 777.633 739.251 778.005 740.235 779.333C741.219 780.635 741.113 782.495 739.969 783.664C665.043 860.129 629.216 897.99 565.859 966.298C565.194 966.989 564.317 967.334 563.412 967.334ZM480.4 907.262C515.935 931.121 534.234 942.944 562.774 959.789C623.976 893.818 660.548 855.32 719.888 794.637C626.768 844.772 573.44 871.341 480.4 907.262Z" fill="#191919"/>
<path d="M284.48 993C284.001 993 283.496 992.894 283.044 992.681C184.313 945.787 131.622 912.045 34.9123 846.26C33.5026 845.304 33.0504 843.47 33.8483 841.956C34.6463 840.468 36.4283 839.804 37.9976 840.415C112.525 869.481 156.172 878.276 250.196 883.217C251.579 883.297 252.749 884.2 253.175 885.502C267.085 927.8 273.788 947.673 287.619 988.616C288.044 989.891 287.672 991.273 286.688 992.15C286.076 992.708 285.278 993 284.48 993ZM61.7495 856.409C141.889 910.53 192.983 942.147 278.815 983.302C267.112 948.736 260.117 927.88 247.562 889.727C165.667 885.343 121.781 877.877 61.7495 856.409Z" fill="#191919"/>
<path d="M36.8007 846.818C36.2156 846.818 35.6305 846.659 35.0985 846.34L-42.2748 800.004C-43.0462 799.552 -43.5781 798.808 -43.7909 797.958L-57.4623 742.562C-57.8346 741.074 -57.1431 739.56 -55.7866 738.842C-54.4301 738.125 -52.781 738.417 -51.7703 739.533C-14.5066 780.635 3.87245 801.093 39.2742 841.292C40.3648 842.514 40.3914 844.347 39.3275 845.622C38.6891 846.419 37.7583 846.818 36.8007 846.818ZM-37.6734 795.035L20.1504 829.681C-4.10692 802.235 -21.1826 783.212 -47.8603 753.774L-37.6734 795.035Z" fill="#191919"/>
<path d="M284.48 993C282.911 993 281.555 991.911 281.235 990.343C280.89 988.696 281.847 987.049 283.47 986.517C347.65 965.661 388.106 947.833 471.703 903.543C472.793 902.958 474.097 903.038 475.107 903.729C515.164 930.696 533.782 942.758 565.088 961.17C566.338 961.914 566.95 963.349 566.657 964.757C566.338 966.165 565.168 967.202 563.732 967.334L284.799 993C284.693 993 284.587 993 284.48 993ZM473.059 910.344C402.362 947.753 362.465 966.219 312.408 983.781L552.906 961.649C526.84 946.132 508.248 934.017 473.059 910.344Z" fill="#191919"/>
<path d="M563.412 967.334C562.029 967.334 560.726 966.458 560.274 965.076C559.688 963.349 560.619 961.463 562.348 960.852C634.828 936.302 671.719 918.979 741.698 876.602C743.001 875.805 744.677 876.017 745.767 877.08C746.858 878.143 747.071 879.817 746.299 881.145C734.57 900.912 728.665 910.45 716.137 929.686C715.685 930.404 714.94 930.909 714.116 931.121C673.767 940.739 568.306 965.953 564.45 967.148C564.13 967.281 563.758 967.334 563.412 967.334ZM733.798 889.142C689.992 915.286 658.792 931.413 620.864 946.611C657.728 937.763 700.312 927.587 711.27 924.984C720.659 910.557 726.298 901.603 733.798 889.142Z" fill="#191919"/>
<path d="M284.48 993C283.097 993 281.794 992.123 281.342 990.742C267.856 950.862 260.755 929.819 246.871 887.575C246.498 886.459 246.764 885.21 247.536 884.333C248.334 883.456 249.531 883.058 250.674 883.297C338.474 901.125 386.27 905.402 473.166 903.171C474.682 903.091 476.065 904.154 476.464 905.641C476.863 907.129 476.171 908.697 474.815 909.414C390.818 953.917 350.124 971.851 285.517 992.841C285.172 992.947 284.826 993 284.48 993ZM254.957 890.922C267.325 928.544 274.027 948.391 286.581 985.508C345.735 966.139 385.206 948.975 459.255 910.105C382.254 911.487 335.043 906.97 254.957 890.922Z" fill="#191919"/>
<path d="M963.711 568.297C962.168 568.297 960.811 567.234 960.466 565.693L922.723 392.915C922.537 392.012 922.723 391.082 923.229 390.338L962.886 332.524C963.711 331.329 965.227 330.797 966.636 331.222C968.02 331.647 968.977 332.949 968.977 334.411L967.062 565.029C967.035 566.729 965.759 568.137 964.083 568.297C963.95 568.297 963.844 568.297 963.711 568.297ZM929.532 392.889L960.625 535.298L962.195 345.224L929.532 392.889Z" fill="#191919"/>
<path d="M-152.922 291.502C-153.587 291.502 -154.225 291.316 -154.81 290.917C-156.14 289.988 -156.619 288.234 -155.928 286.773L-76.453 117.688C-75.7881 116.307 -74.2722 115.536 -72.7827 115.855C-71.2666 116.174 -70.1761 117.476 -70.1229 118.99L-67.4099 203.081C-67.3832 203.984 -67.729 204.861 -68.3407 205.499L-150.502 290.492C-151.167 291.157 -152.044 291.502 -152.922 291.502ZM-76.3467 133.045L-141.405 271.496L-74.139 201.912L-76.3467 133.045Z" fill="#191919"/>
<path d="M755.236 10.1907C754.864 10.1907 754.465 10.1375 754.093 9.97812L694.779 -11.6224C694.434 -11.7552 694.114 -11.9412 693.822 -12.1538L593.282 -93.6405C591.899 -94.7564 591.659 -96.7491 592.697 -98.1572C593.734 -99.5654 595.702 -99.9639 597.192 -99.0074L757.072 4.07982C758.481 5.00974 759.013 6.84299 758.242 8.35741C757.657 9.49988 756.487 10.1907 755.236 10.1907ZM697.572 -17.6535L728.559 -6.38831L645.041 -60.2434L697.572 -17.6535Z" fill="#191919"/>
<path d="M743.427 882.792C742.443 882.792 741.458 882.341 740.82 881.517C739.836 880.268 739.889 878.488 740.927 877.292L860.378 740.675C861.495 739.373 863.436 739.161 864.819 740.171C866.203 741.18 866.602 743.067 865.75 744.554L803.112 851.84C802.793 852.371 802.341 852.823 801.756 853.115L744.969 882.447C744.464 882.659 743.959 882.792 743.427 882.792ZM842.424 771.309L757.444 868.498L797.846 847.642L842.424 771.309Z" fill="#191919"/>
<path d="M713.345 931.227C712.573 931.227 711.828 930.962 711.217 930.457C709.94 929.394 709.647 927.561 710.525 926.153L740.607 877.718C740.927 877.213 741.379 876.788 741.911 876.522L798.697 847.19C800.187 846.419 802.022 846.871 802.953 848.253C803.91 849.634 803.671 851.494 802.448 852.61L715.579 930.377C714.94 930.935 714.143 931.227 713.345 931.227ZM745.767 881.995L728.399 909.972L778.589 865.044L745.767 881.995Z" fill="#191919"/>
</svg>
