<svg width="87" height="87" viewBox="0 0 87 87" fill="none" xmlns="http://www.w3.org/2000/svg">
<path d="M38.5875 48.0875H15.525L20.475 52.925C21.375 53.825 21.825 54.9125 21.825 56.1875C21.825 57.4625 21.375 58.55 20.475 59.45C19.575 60.35 18.4875 60.8 17.2125 60.8C15.9375 60.8 14.85 60.35 13.95 59.45L1.2375 46.7375C0.7875 46.2875 0.46875 45.8 0.28125 45.275C0.09375 44.75 0 44.1875 0 43.5875C0 42.9875 0.09375 42.425 0.28125 41.9C0.46875 41.375 0.7875 40.8875 1.2375 40.4375L13.95 27.725C14.85 26.825 15.9187 26.375 17.1562 26.375C18.3937 26.375 19.4625 26.825 20.3625 27.725C21.2625 28.625 21.7125 29.6937 21.7125 30.9312C21.7125 32.1687 21.2625 33.2375 20.3625 34.1375L15.4125 39.0875H38.5875V15.9125L33.525 20.975C32.625 21.875 31.575 22.3062 30.375 22.2687C29.175 22.2312 28.125 21.7625 27.225 20.8625C26.325 19.9625 25.875 18.8937 25.875 17.6562C25.875 16.4187 26.325 15.35 27.225 14.45L39.9375 1.7375C40.3875 1.2875 40.875 0.96875 41.4 0.78125C41.925 0.59375 42.4875 0.5 43.0875 0.5C43.6875 0.5 44.25 0.59375 44.775 0.78125C45.3 0.96875 45.7875 1.2875 46.2375 1.7375L59.0625 14.5625C59.9625 15.4625 60.4125 16.5125 60.4125 17.7125C60.4125 18.9125 59.9625 19.9625 59.0625 20.8625C58.1625 21.7625 57.0938 22.2125 55.8562 22.2125C54.6187 22.2125 53.55 21.7625 52.65 20.8625L47.5875 15.9125V39.0875H70.65L65.7 34.25C64.8 33.35 64.35 32.2625 64.35 30.9875C64.35 29.7125 64.8 28.625 65.7 27.725C66.6 26.825 67.6875 26.375 68.9625 26.375C70.2375 26.375 71.325 26.825 72.225 27.725L84.9375 40.4375C85.3875 40.8875 85.7062 41.375 85.8937 41.9C86.0812 42.425 86.175 42.9875 86.175 43.5875C86.175 44.1875 86.0812 44.75 85.8937 45.275C85.7062 45.8 85.3875 46.2875 84.9375 46.7375L72.1125 59.5625C71.2125 60.4625 70.1625 60.8937 68.9625 60.8562C67.7625 60.8187 66.7125 60.35 65.8125 59.45C64.9125 58.55 64.4625 57.4812 64.4625 56.2437C64.4625 55.0062 64.9125 53.9375 65.8125 53.0375L70.7625 48.0875H47.5875V71.15L52.425 66.2C53.325 65.3 54.4125 64.85 55.6875 64.85C56.9625 64.85 58.05 65.3 58.95 66.2C59.85 67.1 60.3 68.1875 60.3 69.4625C60.3 70.7375 59.85 71.825 58.95 72.725L46.2375 85.4375C45.7875 85.8875 45.3 86.2062 44.775 86.3937C44.25 86.5812 43.6875 86.675 43.0875 86.675C42.4875 86.675 41.925 86.5812 41.4 86.3937C40.875 86.2062 40.3875 85.8875 39.9375 85.4375L27.1125 72.6125C26.2125 71.7125 25.7812 70.6437 25.8187 69.4062C25.8562 68.1687 26.325 67.1 27.225 66.2C28.125 65.3 29.1937 64.85 30.4312 64.85C31.6687 64.85 32.7375 65.3 33.6375 66.2L38.5875 71.2625V48.0875Z" fill="#113E3C"/>
</svg>
