<svg width="72" height="95" viewBox="0 0 72 95" fill="none" xmlns="http://www.w3.org/2000/svg">
<path d="M9 94.5C6.525 94.5 4.40625 93.6187 2.64375 91.8562C0.88125 90.0938 0 87.975 0 85.5V40.5C0 38.025 0.88125 35.9062 2.64375 34.1437C4.40625 32.3812 6.525 31.5 9 31.5H49.5V22.5C49.5 18.75 48.1875 15.5625 45.5625 12.9375C42.9375 10.3125 39.75 9 36 9C32.85 9 30.0938 9.95625 27.7312 11.8687C25.3687 13.7812 23.775 16.1625 22.95 19.0125C22.65 20.0625 22.0312 20.9062 21.0938 21.5437C20.1562 22.1812 19.125 22.5 18 22.5C16.725 22.5 15.6562 22.0875 14.7937 21.2625C13.9312 20.4375 13.6125 19.4625 13.8375 18.3375C14.8875 13.1625 17.475 8.8125 21.6 5.2875C25.725 1.7625 30.525 0 36 0C42.225 0 47.5312 2.19375 51.9187 6.58125C56.3062 10.9688 58.5 16.275 58.5 22.5V31.5H63C65.475 31.5 67.5938 32.3812 69.3562 34.1437C71.1188 35.9062 72 38.025 72 40.5V85.5C72 87.975 71.1188 90.0938 69.3562 91.8562C67.5938 93.6187 65.475 94.5 63 94.5H9ZM9 85.5H63V40.5H9V85.5ZM36 72C38.475 72 40.5938 71.1188 42.3563 69.3562C44.1187 67.5938 45 65.475 45 63C45 60.525 44.1187 58.4062 42.3563 56.6437C40.5938 54.8812 38.475 54 36 54C33.525 54 31.4062 54.8812 29.6437 56.6437C27.8812 58.4062 27 60.525 27 63C27 65.475 27.8812 67.5938 29.6437 69.3562C31.4062 71.1188 33.525 72 36 72Z" fill="#113E3C"/>
</svg>
