<svg width="108" height="100" viewBox="0 0 108 100" fill="none" xmlns="http://www.w3.org/2000/svg">
<path fill-rule="evenodd" clip-rule="evenodd" d="M56.9114 4.27588C58.1521 1.91929 55.3016 -0.934055 52.9664 0.295918C51.0668 1.06052 50.5847 3.83811 52.0632 5.2434C53.4588 6.70768 56.1909 6.19686 56.9114 4.27588ZM30.9235 5.31536C31.0681 3.75368 29.2724 2.44092 27.8538 3.03074C25.8792 3.56212 25.6601 6.70334 27.5758 7.45279C29.0217 8.25852 31.074 7.01069 30.9235 5.31536ZM79.299 7.50002C77.0823 7.22946 76.7314 3.70892 78.8656 3.00005C80.521 2.18458 82.0397 3.71379 82.2819 5.29873C81.9347 6.65208 80.813 7.89125 79.299 7.50002ZM38.9529 17.3525C39.3177 14.5701 35.9336 12.3136 33.562 13.8288C31.341 14.9759 31.0356 18.3985 33.051 19.8904C35.1354 21.7898 38.8297 20.1621 38.9529 17.3525ZM69.7707 15.4359C70.8287 12.6816 75.116 12.5982 76.3203 15.2795C77.5106 17.3661 76.0465 19.9499 73.9257 20.6593C71.1164 21.1891 68.448 18.1215 69.7707 15.4359ZM54.285 16.2109C52.0575 16.3722 49.9226 18.1363 49.9457 20.5037C49.8187 22.4382 51.1869 24.0183 52.8117 24.824C52.9753 24.8339 53.141 24.8472 53.3078 24.8606C54.2255 24.9342 55.1787 25.0106 56.0046 24.5431C58.1389 23.5897 59.1878 20.7293 58.0066 18.6519C57.3728 17.146 55.7625 16.5102 54.285 16.2109ZM12.5906 23.9525C14.757 22.6073 17.6799 25.0624 16.8597 27.4395C16.4081 29.4958 13.6717 30.3324 12.1074 29.0196C10.4376 27.7896 10.7022 24.8324 12.5906 23.9525ZM97.4557 26.5054C97.6748 24.1612 94.6416 22.5076 92.8035 23.9491C90.9173 25.119 91.1225 28.2419 93.1319 29.1542C94.9566 30.2548 97.5789 28.6428 97.4557 26.5054ZM60.4496 28.205C63.4828 27.1043 67.0854 28.4214 68.8142 31.153C71.0947 34.4923 69.8813 39.5777 66.3424 41.4938C62.6755 43.7601 57.321 41.8391 55.9667 37.7027C54.4292 33.9998 56.669 29.3657 60.4496 28.205ZM52.1539 31.7849C50.5302 28.3115 46.0061 26.9668 42.6445 28.5696C39.0616 30.1859 37.4132 34.9538 39.2695 38.464C40.9248 42.0939 45.7505 43.5814 49.1711 41.6193C52.5873 39.8736 54.0648 35.1659 52.1539 31.7849ZM24.834 34.7215C25.0895 32.5338 27.1327 31.1101 29.1941 30.9629C31.4152 31.2335 33.1895 32.9759 33.4311 35.2464C33.2854 37.4942 31.5657 39.6912 29.2075 39.6777C26.6131 39.9033 24.3384 37.2962 24.834 34.7215ZM83.709 35.2438C83.8274 32.153 80.1288 29.8732 77.4653 31.4392C74.6056 32.8012 74.3908 37.3061 77.146 38.9056C79.7983 40.8266 83.8917 38.5187 83.709 35.2438ZM35.4031 42.9819C38.5182 42.1161 42.0802 43.5993 43.608 46.4916C45.2816 49.4029 44.5975 53.4472 41.9982 55.5825C38.6645 58.7145 32.5161 57.4569 30.7418 53.1826C28.7029 49.2643 31.1795 44.0133 35.4031 42.9819ZM77.3791 46.0565C75.7511 43.2698 72.1934 42.0907 69.1651 42.9657C64.9099 44.1426 62.6567 49.596 64.896 53.4548C66.7431 57.1853 71.9427 58.438 75.2995 56.0522C78.5041 53.9975 79.5316 49.2438 77.3791 46.0565ZM15.372 46.6034C18.0629 45.5753 21.0458 48.5747 19.9556 51.2695C19.2897 53.7246 15.8644 54.632 14.0949 52.822C12.0244 51.1223 12.791 47.3404 15.372 46.6034ZM92.1473 46.1426C89.8609 46.267 88.2297 48.2616 88.3074 50.5138C88.7541 51.5641 89.2968 52.6604 90.3548 53.2037C92.6123 54.4613 95.8052 52.642 95.6364 49.9656C95.7822 47.9391 93.9902 46.4375 92.1473 46.1426ZM2.14139 47.9247C3.76032 47.211 5.76281 48.6282 5.39317 50.4442C5.30638 52.5005 2.30104 53.291 1.19693 51.573C0.2214 50.3798 0.805327 48.54 2.14139 47.9247ZM107.64 48.9963C107.189 47.651 105.36 47.0617 104.22 47.8815C102.323 48.9037 103.066 52.4416 105.364 52.23C107.002 52.4784 108.406 50.4654 107.64 48.9963ZM44.1988 57.7534C48.4588 56.6344 53.038 60.2226 53.0648 64.6533C53.3429 69.1305 48.8327 73.1007 44.472 72.0666C41.1013 71.5185 38.4565 68.2387 38.5658 64.7983C38.5567 61.5077 41.015 58.4493 44.1988 57.7534ZM70.0421 64.7105C70.1107 60.1775 65.3948 56.5249 61.0711 57.7457C58.5077 58.3891 56.337 60.5233 55.7707 63.1477C54.6489 67.086 57.6136 71.5449 61.6314 72.0697C65.901 72.9415 70.2703 69.1049 70.0421 64.7105ZM28.547 60.4706C31.539 59.9549 34.344 63.3267 33.1306 66.1963C32.2456 69.2541 27.8399 70.0837 25.892 67.5859C23.6072 65.1871 25.3129 60.8018 28.547 60.4706ZM83.7592 64.7336C83.9644 61.8089 80.6896 59.4777 78.0217 60.6065C74.7973 61.6417 74.2594 66.607 77.2144 68.2942C79.8233 70.1735 83.8663 67.9533 83.7592 64.7336ZM91.85 74.6154C90.8054 72.6484 92.7029 70.0413 94.865 70.4054C95.8817 70.3881 96.6097 71.1515 97.2679 71.8419L97.2701 71.8442L97.3829 71.9623C97.39 72.0207 97.3973 72.0796 97.4047 72.1391L97.407 72.1575L97.4075 72.1617C97.5473 73.2833 97.7075 74.5692 96.8038 75.4168C95.5031 77.0797 92.5566 76.6051 91.85 74.6154ZM17.055 74.0092C17.5092 71.6228 14.6014 69.5963 12.5807 70.9551C10.6559 71.9459 10.5873 75.0411 12.4478 76.1282C14.1814 77.3257 16.8134 76.1196 17.055 74.0092ZM52.5073 75.3715C55.1527 74.1924 58.5228 76.5186 58.2721 79.4618C58.4682 82.714 54.2998 84.9661 51.7134 83.0132C48.8404 81.3363 49.3193 76.4028 52.5073 75.3715ZM39.0839 83.1456C39.2891 80.5985 36.2655 78.5303 34.0123 79.7278C32.425 80.3268 31.7779 82.0958 31.75 83.684C32.2927 85.1412 33.3962 86.6737 35.0886 86.7105C37.1318 87.0195 39.1525 85.237 39.0839 83.1456ZM71.4654 79.7669C73.7823 78.3205 77.0753 80.3979 76.8562 83.1219C76.9157 85.9687 73.1941 87.7923 71.0368 85.9222C68.948 84.4563 69.203 80.9325 71.4654 79.7669ZM79.8381 92.1992C78.1646 92.5585 76.9512 94.4562 77.9819 96.0314C79.0399 97.8604 82.1277 97.2062 82.3238 95.0737C82.6067 93.4979 81.1838 92.4757 79.8381 92.1992ZM26.2812 94.6622C26.6916 93.4138 27.6859 92.173 29.1409 92.4977C31.2618 92.6498 31.8912 95.8786 30.035 96.8738C28.3657 98.0107 26.4291 96.4538 26.2812 94.6622ZM55.5516 94.3322C53.9916 93.3511 51.6248 94.2494 51.2188 96.0963C50.4768 97.962 52.2586 100.217 54.2337 99.9837C55.2966 100.011 56.1173 99.2467 56.7559 98.4821C56.8802 97.9664 57.0066 97.4501 57.148 96.9345L57.1393 96.9017C56.8767 95.9186 56.571 94.7742 55.5516 94.3322Z" fill="white"/>
</svg>
