<svg width="81" height="80" viewBox="0 0 81 80" fill="none" xmlns="http://www.w3.org/2000/svg">
<path d="M54.7642 12.6959L64.8927 22.8194L51.8158 35.8994L56.9445 41.0282H80.012V38.6578H69.6234L71.1237 37.1576L62.5094 28.5473L68.2382 22.8194L55.7464 10.3235H41.1912V0H38.8238V10.3235H24.2656L11.7698 22.8194L17.5026 28.5473L8.89233 37.1576L10.3926 38.6578H0V41.0252H23.0675L28.3232 35.7674L27.2981 34.9992L15.1193 22.8194L25.2478 12.6959H33.355L22.1423 23.9076L23.1675 24.6757L38.8238 40.3321V53.05L33.616 47.8422V37.0796L14.7022 55.9894L16.3765 57.6636L22.8874 51.1527L38.8238 67.0931V80H41.1912V67.0931L57.1296 51.1547L63.6385 57.6636L65.3098 55.9894L57.9657 48.6413L46.396 37.0796V47.8452L41.1952 53.046V40.331L57.8777 23.6505L56.8525 22.8814L46.659 12.6959H54.7602H54.7642ZM67.7742 37.1576L66.2739 38.6578H57.9257L55.1643 35.8994L60.8391 30.2245L67.7742 37.1576ZM22.0863 38.6578H13.7371L12.2368 37.1576L19.1719 30.2215L24.8477 35.8994L22.0863 38.6578ZM38.8238 12.6959V28.1592L33.616 22.9524V15.7794L36.7055 12.6959H38.8238ZM24.5577 49.4784L31.2477 42.7884V48.7283L31.5347 49.1104L38.8238 56.4025V63.7436L24.5577 49.4784ZM48.4183 49.1724L48.7643 48.8223V42.7894L55.4553 49.4804L41.1912 63.7436V56.4025L48.4183 49.1724ZM40.006 38.1667L25.6188 23.7786L31.2487 18.1477V23.9336L40.006 32.6929L48.7623 23.9356V18.1457L54.3962 23.7796L40.006 38.1667ZM46.394 15.7774V22.9544L41.1932 28.1552V12.6959H43.3065L46.394 15.7774Z" fill="white"/>
</svg>
